<svg width="192" height="16" viewBox="0 0 192 16" fill="none" xmlns="http://www.w3.org/2000/svg">
<path d="M182.546 1.90117C182.209 2.08673 182 2.44895 182 2.84728L182 12.9295C182 13.3278 182.209 13.6901 182.546 13.8756C182.867 14.0523 183.244 14.0401 183.554 13.8434L191.507 8.80228C191.816 8.60728 192 8.26561 192 7.88839C192 7.51117 191.816 7.1695 191.508 6.97395L183.555 1.93284C183.244 1.73673 182.867 1.7245 182.546 1.90117Z" fill="white"/>
<path d="M5.14417 14.16C4.15217 14.16 3.25617 13.9147 2.45617 13.424C1.66683 12.9333 1.08017 12.2987 0.696167 11.52L2.72817 10.256C2.9415 10.7467 3.2615 11.136 3.68817 11.424C4.11483 11.712 4.6055 11.856 5.16017 11.856C5.6615 11.856 6.05617 11.7493 6.34417 11.536C6.64283 11.312 6.79217 11.008 6.79217 10.624C6.79217 10.3253 6.69617 10.0747 6.50417 9.872C6.31217 9.65866 6.07217 9.488 5.78417 9.36C5.50683 9.22133 5.1175 9.06133 4.61617 8.88C3.9015 8.61333 3.31483 8.36266 2.85617 8.128C2.40817 7.88266 2.01883 7.53066 1.68817 7.072C1.36817 6.61333 1.20817 6.02666 1.20817 5.312C1.20817 4.56533 1.38417 3.93066 1.73617 3.408C2.08817 2.88533 2.54683 2.496 3.11217 2.24C3.68817 1.97333 4.3015 1.84 4.95217 1.84C5.66683 1.84 6.33883 1.99466 6.96817 2.304C7.60817 2.60266 8.14683 3.008 8.58417 3.52L6.93617 5.056C6.32817 4.36266 5.66683 4.016 4.95217 4.016C4.56817 4.016 4.2535 4.112 4.00817 4.304C3.76283 4.496 3.64017 4.77866 3.64017 5.152C3.64017 5.42933 3.7255 5.66933 3.89617 5.872C4.0775 6.064 4.3015 6.224 4.56817 6.352C4.8455 6.48 5.22417 6.62933 5.70417 6.8C6.44017 7.06666 7.0375 7.328 7.49617 7.584C7.9655 7.82933 8.3655 8.20266 8.69617 8.704C9.0375 9.19466 9.20817 9.84 9.20817 10.64C9.20817 11.3547 9.02683 11.9787 8.66417 12.512C8.3015 13.0453 7.81083 13.456 7.19217 13.744C6.5735 14.0213 5.89083 14.16 5.14417 14.16Z" fill="white"/>
<path d="M14.4799 4.208V6.896H18.6879V9.104H14.4799V11.792H19.3599V14H11.9839V2H19.3599V4.208H14.4799Z" fill="white"/>
<path d="M24.8862 4.208V6.896H29.0942V9.104H24.8862V11.792H29.7662V14H22.3902V2H29.7662V4.208H24.8862Z" fill="white"/>
<path d="M47.9824 2V14H45.5024V9.104H40.4464V14H37.9504V2H40.4464V6.88H45.5024V2H47.9824Z" fill="white"/>
<path d="M57.1472 14.16C56.0272 14.16 54.9925 13.888 54.0432 13.344C53.1045 12.7893 52.3578 12.0427 51.8032 11.104C51.2592 10.1547 50.9872 9.12 50.9872 8C50.9872 6.88 51.2592 5.85066 51.8032 4.912C52.3578 3.96266 53.1045 3.216 54.0432 2.672C54.9925 2.11733 56.0272 1.84 57.1472 1.84C58.2672 1.84 59.2965 2.11733 60.2352 2.672C61.1845 3.216 61.9312 3.96266 62.4752 4.912C63.0298 5.85066 63.3072 6.88 63.3072 8C63.3072 9.12 63.0298 10.1547 62.4752 11.104C61.9312 12.0427 61.1845 12.7893 60.2352 13.344C59.2965 13.888 58.2672 14.16 57.1472 14.16ZM57.1472 11.712C57.8405 11.712 58.4698 11.552 59.0352 11.232C59.6005 10.9013 60.0432 10.4533 60.3632 9.888C60.6938 9.32266 60.8592 8.69333 60.8592 8C60.8592 7.30666 60.6938 6.67733 60.3632 6.112C60.0432 5.54666 59.6005 5.104 59.0352 4.784C58.4698 4.45333 57.8405 4.288 57.1472 4.288C56.4538 4.288 55.8245 4.45333 55.2592 4.784C54.6938 5.104 54.2458 5.54666 53.9152 6.112C53.5952 6.67733 53.4352 7.30666 53.4352 8C53.4352 8.69333 53.5952 9.32266 53.9152 9.888C54.2458 10.4533 54.6938 10.9013 55.2592 11.232C55.8245 11.552 56.4538 11.712 57.1472 11.712Z" fill="white"/>
<path d="M81.7658 2L78.4378 14H75.5738L73.3018 5.28L71.0298 14H68.1658L64.8218 2H67.4618L69.7018 10.496L72.0538 2H74.5338L76.9018 10.512L79.1418 2H81.7658Z" fill="white"/>
<path d="M89.062 2H91.558V14H89.062V2Z" fill="white"/>
<path d="M102.611 4.224H99.5554V14H97.0754V4.224H94.0194V2H102.611V4.224Z" fill="white"/>
<path d="M125.688 2L122.36 14H119.496L117.224 5.28L114.952 14H112.088L108.744 2H111.384L113.624 10.496L115.976 2H118.456L120.824 10.512L123.064 2H125.688Z" fill="white"/>
<path d="M133.366 14.16C132.246 14.16 131.211 13.888 130.262 13.344C129.323 12.7893 128.577 12.0427 128.022 11.104C127.478 10.1547 127.206 9.12 127.206 8C127.206 6.88 127.478 5.85066 128.022 4.912C128.577 3.96266 129.323 3.216 130.262 2.672C131.211 2.11733 132.246 1.84 133.366 1.84C134.486 1.84 135.515 2.11733 136.454 2.672C137.403 3.216 138.15 3.96266 138.694 4.912C139.249 5.85066 139.526 6.88 139.526 8C139.526 9.12 139.249 10.1547 138.694 11.104C138.15 12.0427 137.403 12.7893 136.454 13.344C135.515 13.888 134.486 14.16 133.366 14.16ZM133.366 11.712C134.059 11.712 134.689 11.552 135.254 11.232C135.819 10.9013 136.262 10.4533 136.582 9.888C136.913 9.32266 137.078 8.69333 137.078 8C137.078 7.30666 136.913 6.67733 136.582 6.112C136.262 5.54666 135.819 5.104 135.254 4.784C134.689 4.45333 134.059 4.288 133.366 4.288C132.673 4.288 132.043 4.45333 131.478 4.784C130.913 5.104 130.465 5.54666 130.134 6.112C129.814 6.67733 129.654 7.30666 129.654 8C129.654 8.69333 129.814 9.32266 130.134 9.888C130.465 10.4533 130.913 10.9013 131.478 11.232C132.043 11.552 132.673 11.712 133.366 11.712Z" fill="white"/>
<path d="M152.017 14H149.137L146.161 9.264H145.025V14H142.529V2H147.537C148.198 2 148.801 2.16533 149.345 2.496C149.889 2.816 150.315 3.25333 150.625 3.808C150.945 4.36266 151.105 4.976 151.105 5.648C151.105 6.45866 150.87 7.17333 150.401 7.792C149.942 8.4 149.35 8.80533 148.625 9.008L152.017 14ZM147.185 7.2C147.622 7.2 147.985 7.06133 148.273 6.784C148.561 6.496 148.705 6.13866 148.705 5.712C148.705 5.28533 148.561 4.93333 148.273 4.656C147.985 4.368 147.622 4.224 147.185 4.224H145.025V7.2H147.185Z" fill="white"/>
<path d="M161.496 14L156.728 8.192V14H154.232V2H156.728V6.656L161.048 2H164.264L159.064 7.296L164.824 14H161.496Z" fill="white"/>
<path d="M170.144 14.16C169.152 14.16 168.256 13.9147 167.456 13.424C166.667 12.9333 166.08 12.2987 165.696 11.52L167.728 10.256C167.941 10.7467 168.262 11.136 168.688 11.424C169.115 11.712 169.606 11.856 170.16 11.856C170.662 11.856 171.056 11.7493 171.344 11.536C171.643 11.312 171.792 11.008 171.792 10.624C171.792 10.3253 171.696 10.0747 171.504 9.872C171.312 9.65866 171.072 9.488 170.784 9.36C170.507 9.22133 170.117 9.06133 169.616 8.88C168.901 8.61333 168.315 8.36266 167.856 8.128C167.408 7.88266 167.019 7.53066 166.688 7.072C166.368 6.61333 166.208 6.02666 166.208 5.312C166.208 4.56533 166.384 3.93066 166.736 3.408C167.088 2.88533 167.547 2.496 168.112 2.24C168.688 1.97333 169.301 1.84 169.952 1.84C170.667 1.84 171.339 1.99466 171.968 2.304C172.608 2.60266 173.147 3.008 173.584 3.52L171.936 5.056C171.328 4.36266 170.667 4.016 169.952 4.016C169.568 4.016 169.253 4.112 169.008 4.304C168.763 4.496 168.64 4.77866 168.64 5.152C168.64 5.42933 168.725 5.66933 168.896 5.872C169.077 6.064 169.302 6.224 169.568 6.352C169.846 6.48 170.224 6.62933 170.704 6.8C171.44 7.06666 172.038 7.328 172.496 7.584C172.966 7.82933 173.366 8.20266 173.696 8.704C174.038 9.19466 174.208 9.84 174.208 10.64C174.208 11.3547 174.027 11.9787 173.664 12.512C173.302 13.0453 172.811 13.456 172.192 13.744C171.574 14.0213 170.891 14.16 170.144 14.16Z" fill="white"/>
</svg>
