<svg xmlns="http://www.w3.org/2000/svg" xmlns:xlink="http://www.w3.org/1999/xlink" width="306" height="68" viewBox="0 0 306 68">
  <defs>
    <clipPath id="clip-allergan-logo">
      <rect width="306" height="68"/>
    </clipPath>
  </defs>
  <g id="allergan-logo" clip-path="url(#clip-allergan-logo)">
    <g id="Group_287" data-name="Group 287" transform="translate(1 0)">
      <path id="Path_1082" data-name="Path 1082" d="M700.609,73.715a18.079,18.079,0,0,0,.7-2.318c.158-.978.673-1.165,1.575-1.136,2.092.066,4.187.021,6.4.021-.384,3.007-.742,5.9-1.125,8.8-.74,5.6-1.477,11.195-2.245,16.788-.565,4.111-1.891,7.86-5.244,10.6a15.05,15.05,0,0,1-7.958,3.192,21.322,21.322,0,0,1-14.147-3.047c-.316-.2-.6-.441-.983-.724,1.133-1.869,2.229-3.678,3.338-5.509a15.809,15.809,0,0,0,9.445,2.992c3.633-.153,5.846-1.812,6.81-5.318a18.26,18.26,0,0,0,.608-3.855c-.365.369-.723.745-1.1,1.106-4.259,4.146-11.737,3.764-15.312-.781a10.671,10.671,0,0,1-2.183-5.459c-.661-5.681.509-10.894,4.424-15.219a11.971,11.971,0,0,1,11.673-4c2.336.437,3.706,1.488,5.319,3.867Zm-1.173,8.261c-.038-.332-.085-.826-.151-1.317-.548-4.039-4.208-5.861-7.714-3.765a7.419,7.419,0,0,0-2.229,2.083,10.874,10.874,0,0,0-1.809,8.377c.674,3.729,3.941,5.423,7.295,3.64a9.047,9.047,0,0,0,2.94-2.764,11.147,11.147,0,0,0,1.668-6.256" transform="translate(-470.415 -48.321)" fill="#2d5696"/>
      <path id="Path_1083" data-name="Path 1083" d="M323.449,39.072c2.512,13.016,5,25.921,7.508,38.9h-8.714l-1.377-7.935c-.366-.019-.733-.055-1.1-.055-3.744,0-7.488.029-11.231-.026a1.438,1.438,0,0,0-1.572,1.078c-.954,2.327-1.987,4.62-3,6.949h-8.093c.146-.389.249-.726.394-1.045q8.4-18.478,16.791-36.964a1.323,1.323,0,0,1,1.447-.92c2.937.05,5.875.02,8.946.02ZM310.11,63.282h9.782c-.923-5.374-1.831-10.649-2.737-15.923l-.217,0L310.11,63.284" transform="translate(-205.411 -27.112)" fill="#2d5696"/>
      <path id="Path_1084" data-name="Path 1084" d="M812.507,73.91c.3-1.067.509-1.985.833-2.859.113-.305.506-.713.781-.72,2.284-.058,4.571-.033,7.035-.033l-3.764,28.89h-7.616V95.565c-.335.315-.5.45-.642.607a10.2,10.2,0,0,1-10.753,3.372c-4.112-1.046-6.189-4.066-6.943-8-1.19-6.208-.2-12.046,3.8-17.095a11.931,11.931,0,0,1,11.64-4.684,7.1,7.1,0,0,1,5.163,3.456c.114.184.242.359.462.683Zm-1.287,8.937c0-.534.043-1.073-.007-1.6-.248-2.6-1.558-4.473-3.531-4.99a5.224,5.224,0,0,0-5.213,1.594c-2.846,2.782-4.034,8.973-2.458,12.643a4.273,4.273,0,0,0,4.517,2.806,6.06,6.06,0,0,0,4.84-3.244,12.828,12.828,0,0,0,1.853-7.205" transform="translate(-549.135 -48.334)" fill="#2d5696"/>
      <path id="Path_1085" data-name="Path 1085" d="M901.9,70.291h7.554v3.723c.392-.375.659-.607.9-.864a11.072,11.072,0,0,1,11.2-3.234c3.363.759,5.424,3.576,5.3,7.35-.1,2.968-.514,5.929-.869,8.882-.518,4.314-1.106,8.619-1.672,12.982H916.09c.36-2.785.706-5.5,1.064-8.22.409-3.1.87-6.2,1.226-9.308.191-1.673.117-3.408-1.576-4.351a4.465,4.465,0,0,0-5.147.587,8.47,8.47,0,0,0-3.323,6.136c-.542,4.932-1.246,9.845-1.886,14.764a2.443,2.443,0,0,1-.128.385h-8.174c1.254-9.624,2.5-19.19,3.756-28.832" transform="translate(-623.545 -48.287)" fill="#2d5696"/>
      <path id="Path_1086" data-name="Path 1086" d="M540.149,90.374l2.861,4.846a20.026,20.026,0,0,1-1.847,1.5,18.437,18.437,0,0,1-14.141,2.6,10.1,10.1,0,0,1-8.185-7.884c-1.538-6.189-.471-11.914,3.7-16.859a15.024,15.024,0,0,1,16.256-4.4c3.088,1.064,5.141,3.073,5.622,6.43a7.882,7.882,0,0,1-3.292,7.808,19.854,19.854,0,0,1-9.279,3.626c-1.766.275-3.554.409-5.34.608-.3,2.309,1.521,4.37,4.194,4.685a12.647,12.647,0,0,0,8.441-2.274c.321-.2.631-.429,1.006-.685Zm-13.466-7.324a19.352,19.352,0,0,0,2.821-.306,30.964,30.964,0,0,0,5.522-1.7,3.2,3.2,0,0,0,1.573-4.2,3.4,3.4,0,0,0-3.966-1.729c-3.32.615-5.983,4.11-5.948,7.929" transform="translate(-359.742 -48.157)" fill="#2e5696"/>
      <path id="Path_1087" data-name="Path 1087" d="M430.167,75.534H421.93c1.736-13.357,3.464-26.649,5.2-39.994h8.237c-1.734,13.337-3.459,26.6-5.2,39.994" transform="translate(-292.928 -24.674)" fill="#2e5696"/>
      <path id="Path_1088" data-name="Path 1088" d="M477.694,75.522h-8.239c1.74-13.369,3.47-26.67,5.2-39.982h8.233c-1.735,13.345-3.459,26.612-5.2,39.982" transform="translate(-325.923 -24.674)" fill="#2d5696"/>
      <path id="Path_1089" data-name="Path 1089" d="M619.761,99.184h-8.134c1.26-9.681,2.507-19.265,3.759-28.89h7.592V74.24a35.239,35.239,0,0,1,2.989-3.124,6.884,6.884,0,0,1,6.692-1.206c.73.219,1.009.6.775,1.443-.61,2.2-1.11,4.428-1.668,6.706-.611-.149-1.15-.326-1.7-.407a5.975,5.975,0,0,0-5.509,1.865,12.492,12.492,0,0,0-3.2,7.766c-.375,3.835-.941,7.65-1.43,11.475a2.38,2.38,0,0,1-.164.425" transform="translate(-424.627 -48.278)" fill="#2d5696"/>
      <path id="Path_1090" data-name="Path 1090" d="M90,34.83a6.946,6.946,0,1,1,6.912,6.952A6.968,6.968,0,0,1,90,34.83" transform="translate(-62.483 -19.35)" fill="#44af2c"/>
      <path id="Path_1091" data-name="Path 1091" d="M90.01,154.784a6.947,6.947,0,1,1,6.853,7.011,6.969,6.969,0,0,1-6.853-7.011" transform="translate(-62.49 -102.67)" fill="#44af2c"/>
      <path id="Path_1092" data-name="Path 1092" d="M77.253,94.875a6.942,6.942,0,1,1-6.861-7,6.958,6.958,0,0,1,6.861,7" transform="translate(-43.995 -61.008)" fill="#44af2c"/>
      <path id="Path_1093" data-name="Path 1093" d="M232.52,94.826a6.957,6.957,0,1,1,6.909,6.965,6.988,6.988,0,0,1-6.909-6.965" transform="translate(-161.429 -61.011)" fill="#2e5696"/>
      <path id="Path_1094" data-name="Path 1094" d="M206.029,34.883a6.923,6.923,0,1,1,6.946,6.9,6.927,6.927,0,0,1-6.946-6.9" transform="translate(-143.037 -19.35)" fill="#2e5696"/>
      <path id="Path_1095" data-name="Path 1095" d="M219.876,154.842a6.924,6.924,0,1,1-6.885-6.97,6.943,6.943,0,0,1,6.885,6.97" transform="translate(-143.037 -102.661)" fill="#2e5696"/>
      <path id="Path_1096" data-name="Path 1096" d="M154.249,0A6.943,6.943,0,1,1,147.2,6.941,6.944,6.944,0,0,1,154.249,0" transform="translate(-102.197 0)" fill="#3e86ca"/>
      <path id="Path_1097" data-name="Path 1097" d="M154.2,189.722a6.942,6.942,0,1,1,6.918-6.935,6.992,6.992,0,0,1-6.918,6.935" transform="translate(-102.197 -122.076)" fill="#3e86ca"/>
      <path id="Path_1098" data-name="Path 1098" d="M200.4,105.789a3.8,3.8,0,1,1,3.884-3.827,3.8,3.8,0,0,1-3.884,3.827" transform="translate(-136.485 -68.165)" fill="#4087ca"/>
      <path id="Path_1099" data-name="Path 1099" d="M181.273,59.054a3.837,3.837,0,1,1-3.853-3.862,3.865,3.865,0,0,1,3.853,3.862" transform="translate(-120.522 -38.317)" fill="#4087ca"/>
      <path id="Path_1100" data-name="Path 1100" d="M177.423,148.654a3.782,3.782,0,0,1-3.821-3.866,3.838,3.838,0,0,1,7.675.151,3.789,3.789,0,0,1-3.854,3.715" transform="translate(-120.524 -97.916)" fill="#4087ca"/>
      <path id="Path_1101" data-name="Path 1101" d="M31.432,98.178a3.8,3.8,0,1,1-.072,7.606,3.8,3.8,0,0,1,.072-7.606" transform="translate(-19.16 -68.161)" fill="#a3d235"/>
      <path id="Path_1102" data-name="Path 1102" d="M65.332,144.883a3.8,3.8,0,0,1-7.609-.022,3.8,3.8,0,1,1,7.609.022Z" transform="translate(-40.074 -97.924)" fill="#a3d235"/>
      <path id="Path_1103" data-name="Path 1103" d="M65.332,59.11a3.8,3.8,0,1,1-7.609-.059,3.8,3.8,0,0,1,7.609.059" transform="translate(-40.074 -38.384)" fill="#a3d235"/>
      <path id="Path_1104" data-name="Path 1104" d="M34.131,77.415a2.575,2.575,0,1,1,2.6-2.514,2.628,2.628,0,0,1-2.6,2.514" transform="translate(-21.933 -50.17)" fill="#c5d506"/>
      <path id="Path_1105" data-name="Path 1105" d="M36.74,134.721a2.572,2.572,0,1,1-2.533-2.588A2.625,2.625,0,0,1,36.74,134.721Z" transform="translate(-21.936 -91.734)" fill="#c5d506"/>
      <path id="Path_1106" data-name="Path 1106" d="M0,104.756a2.591,2.591,0,0,1,2.537-2.565,2.578,2.578,0,0,1-.027,5.156A2.583,2.583,0,0,1,0,104.756" transform="translate(0 -70.947)" fill="#c5d507"/>
      <path id="Path_1107" data-name="Path 1107" d="M153.507,74.027a2.533,2.533,0,1,1,2.589-2.5,2.558,2.558,0,0,1-2.589,2.5" transform="translate(-104.768 -47.877)" fill="#81ade2"/>
      <path id="Path_1108" data-name="Path 1108" d="M177.6,104.756a2.548,2.548,0,0,1-2.52,2.562,2.6,2.6,0,0,1,.072-5.2,2.558,2.558,0,0,1,2.449,2.635" transform="translate(-119.777 -70.898)" fill="#81ade2"/>
      <path id="Path_1109" data-name="Path 1109" d="M153.509,140.777a2.535,2.535,0,1,1,.058-5.066,2.533,2.533,0,1,1-.058,5.066Z" transform="translate(-104.768 -94.218)" fill="#81ade2"/>
    </g>
  </g>
</svg>
