<svg xmlns="http://www.w3.org/2000/svg" xmlns:xlink="http://www.w3.org/1999/xlink" width="303" height="33" viewBox="0 0 303 33">
  <defs>
    <clipPath id="clip-athletica-greens-logo">
      <rect width="303" height="33"/>
    </clipPath>
  </defs>
  <g id="athletica-greens-logo" clip-path="url(#clip-athletica-greens-logo)">
    <g id="Group_259" data-name="Group 259" transform="translate(18978 5929)">
      <g id="Group_258" data-name="Group 258" transform="translate(-18977.998 -5929)">
        <path id="Path_1017" data-name="Path 1017" d="M514.332,47.677c-3.53,0-5.418,2.062-5.418,5.593V63.9h-4.649V43.2h4.474v3.181a6.622,6.622,0,0,1,5.8-3.356,3,3,0,0,1,1.119.175v4.859a5.729,5.729,0,0,0-1.328-.385m8.6,3.74h11.011c-.175-2.971-2.622-4.684-5.418-4.684a5.379,5.379,0,0,0-5.593,4.684M528.7,60.4c2.622,0,4.684-.944,5.593-3.531l3.915,1.119c-1.119,4.09-5.243,6.362-9.333,6.362a10.775,10.775,0,0,1-11.011-10.836,10.524,10.524,0,0,1,10.452-10.836c6.537,0,10.277,4.474,10.277,10.836v1.5h-15.87c0,3.111,3.006,5.383,5.977,5.383m18.492-8.984H558.2c-.175-2.971-2.622-4.684-5.418-4.684a5.626,5.626,0,0,0-5.593,4.684m5.978,8.984c2.622,0,4.684-.944,5.593-3.531l3.915,1.119c-1.119,4.09-5.243,6.362-9.333,6.362a10.775,10.775,0,0,1-11.011-10.836,10.524,10.524,0,0,1,10.452-10.836c6.537,0,10.277,4.474,10.277,10.836v1.5h-15.87c0,3.111,2.8,5.383,5.978,5.383m23.351-13.283c-2.971,0-4.859,2.062-4.859,5.243v11.57h-4.684V43.2h4.474V46a7.991,7.991,0,0,1,6.362-3.181c5.244,0,7.83,3.74,7.83,8.389v12.9h-4.684V52.361c.035-3.006-1.293-5.243-4.439-5.243m-81.587,1.5h-9.543v4.09h8.774a12.413,12.413,0,0,1-3.915,5.034l-.175.175a10.064,10.064,0,0,1-6.152,1.853c-6.152,0-10.452-5.034-10.452-11.186,0-6.362,4.684-11.186,10.627-11.186a8.912,8.912,0,0,1,8.6,5.418l4.474-2.062c-1.853-4.3-6.362-7.655-13.073-7.655-8.949,0-15.7,6.712-15.7,15.87,0,8.949,6.362,15.7,15.486,15.7,4.684,0,8.389-1.678,10.836-4.474v4.3h4.3V49.18h-4.09Z" transform="translate(-310.469 -32.191)" fill="#3dae2b"/>
        <g id="Group_260" data-name="Group 260" transform="translate(0 0)">
          <path id="Path_1018" data-name="Path 1018" d="M29.114,31.619,16.6,62.415h4.859l2.8-7.271H39.182l2.8,7.271h5.034l-12.3-30.621H29.114Zm2.8,4.684,5.8,14.577H26.108Zm23.91,9.333V55.7c0,1.853.944,2.622,3.181,2.622a8.842,8.842,0,0,0,1.853-.175v3.915a12.426,12.426,0,0,1-3.356.385c-4.09,0-6.362-1.5-6.362-6.712V45.426h-4.09v-4.09h4.09V34.8h4.684v6.537h5.243v4.09H55.821Zm19.226-.21c-2.971,0-4.859,2.062-4.859,5.243V62.24H65.5V30.5h4.684V44.133a7.682,7.682,0,0,1,6.362-2.971c5.243,0,7.83,3.74,7.83,8.389v12.9H79.7V50.67c0-3.006-1.5-5.243-4.649-5.243M89.973,62.415h4.649V30.5H89.973Zm13.982-12.689h11.011c-.175-2.971-2.622-4.684-5.418-4.684a5.4,5.4,0,0,0-5.593,4.684m5.977,8.984c2.622,0,4.684-.944,5.593-3.531L119.44,56.3c-1.119,4.09-5.243,6.362-9.333,6.362A10.775,10.775,0,0,1,99.1,51.823a10.524,10.524,0,0,1,10.452-10.836c6.537,0,10.277,4.474,10.277,10.836v1.5h-15.87c-.175,3.111,2.831,5.383,5.977,5.383M130.1,45.636V55.7c0,1.853.944,2.622,3.181,2.622a8.842,8.842,0,0,0,1.853-.175v3.915a12.426,12.426,0,0,1-3.356.385c-4.09,0-6.362-1.5-6.362-6.712V45.426h-4.09v-4.09h4.125V34.8h4.684v6.537h5.243v4.09h-5.243C130.1,45.426,130.1,45.636,130.1,45.636Zm9.718,16.779H144.5v-20.9H139.82Zm2.237-30.8a2.98,2.98,0,0,1,2.971,3.181,2.806,2.806,0,0,1-2.971,2.971,2.925,2.925,0,0,1-2.971-2.971A3.107,3.107,0,0,1,142.057,31.619Zm6.921,20.17a10.776,10.776,0,0,1,11.011-10.836c5.243,0,8.774,3.181,9.718,6.712l-4.3,1.293a5.449,5.449,0,0,0-5.418-3.915,6.193,6.193,0,0,0-6.152,6.537c0,3.915,2.622,6.712,6.152,6.712a5.471,5.471,0,0,0,5.418-3.915l4.3,1.293a9.894,9.894,0,0,1-9.893,6.921,10.457,10.457,0,0,1-10.836-10.8" transform="translate(-16.6 -30.5)" fill="#002856"/>
          <path id="Path_1019" data-name="Path 1019" d="M494.932,48.62h-9.543v4.09h8.774a12.413,12.413,0,0,1-3.915,5.034l-.175.175a10.064,10.064,0,0,1-6.152,1.853c-6.152,0-10.452-5.034-10.452-11.186,0-6.362,4.684-11.186,10.627-11.186a8.912,8.912,0,0,1,8.6,5.418l4.474-2.062c-1.853-4.3-6.362-7.655-13.073-7.655-8.949,0-15.7,6.712-15.7,15.87,0,8.949,6.362,15.7,15.486,15.7,4.684,0,8.389-1.678,10.836-4.474v4.3h4.3V48.62Zm94.626,9.718,3.915-1.119a4.063,4.063,0,0,0,4.09,3.356c1.853,0,2.971-.944,2.971-2.412,0-1.119-.734-1.853-2.412-2.237l-2.622-.559c-3.74-.944-5.593-3.356-5.593-5.977,0-3.531,3.181-6.537,7.481-6.537,5.418,0,7.271,3.531,7.655,5.593l-3.915,1.119a3.7,3.7,0,0,0-3.74-2.971,2.562,2.562,0,0,0-2.8,2.412c0,1.293.944,1.853,2.063,2.237l2.8.559c3.74.734,5.977,3.356,5.977,6.362,0,3.181-2.412,6.537-7.655,6.537-5.593-.21-7.83-3.95-8.215-6.362m20.939,2.8c.384,0,.559-.175.559-.385s-.175-.385-.559-.385h-.734V61.1h.734Zm-1.5-1.5h1.5c.734,0,1.293.385,1.293.944s-.385.734-.734.944l.734,1.119h-.734l-.734-.944h-.559v.944h-.734l-.035-3.006Zm4.09,1.5a2.6,2.6,0,0,0-2.8-2.622,2.7,2.7,0,0,0-2.8,2.622,2.6,2.6,0,0,0,2.8,2.622A2.7,2.7,0,0,0,613.083,61.135Zm-5.978,0a2.98,2.98,0,0,1,3.181-2.971,3.088,3.088,0,0,1,3.181,2.8s0,0,0,.1a3.184,3.184,0,0,1-6.36.073Z" transform="translate(-310.469 -32.191)" fill="#3dae2b"/>
        </g>
      </g>
    </g>
  </g>
</svg>
