<svg xmlns="http://www.w3.org/2000/svg" xmlns:xlink="http://www.w3.org/1999/xlink" width="516" height="516" viewBox="0 0 516 516">
  <defs>
    <clipPath id="clip-favicon">
      <rect width="516" height="516"/>
    </clipPath>
  </defs>
  <g id="favicon" clip-path="url(#clip-favicon)">
    <g id="Group_291" data-name="Group 291" transform="translate(-16.999 -10.866)">
      <g id="Group_290" data-name="Group 290" transform="translate(43.999 122.01)">
        <path id="Path_1114" data-name="Path 1114" d="M252.334,311.592q-9.675,11.621-23.862,11.611a30.817,30.817,0,0,1-30.951-30.96q0-11.607,6.44-18.691L360.672,62.676A85.478,85.478,0,0,1,428.384,29.14a83.648,83.648,0,0,1,36.761,8.386A75.135,75.135,0,0,1,493.511,60.74l156.71,209.587a44.531,44.531,0,0,1,6.45,9.99,27.642,27.642,0,0,1,2.585,11.926,30.833,30.833,0,0,1-30.951,30.96q-15.5,0-24.52-12.251L453.525,110.391A141.5,141.5,0,0,0,442.247,99.1q-6.769-6.116-13.863-6.125c-4.726,0-9.36,2.048-13.863,6.125a82.57,82.57,0,0,0-10.638,11.287l-151.549,201.2Z" transform="translate(-197.521 -29.14)" fill="#353539"/>
        <path id="Path_1115" data-name="Path 1115" d="M211.234,206.325l116.8-159.593a15.96,15.96,0,0,1,25.743,0l116.79,159.593A15.938,15.938,0,0,1,457.7,231.689l-233.588.009a15.953,15.953,0,0,1-12.881-25.373Z" transform="translate(-110.033 62.364)" fill="#007bc3" fill-rule="evenodd"/>
        <path id="Path_1116" data-name="Path 1116" d="M212.04,160.77,295.487,46.733a15.96,15.96,0,0,1,25.743,0l55.332,75.608C301.3,113.63,293.791,187.227,212.04,160.77Z" transform="translate(-77.492 62.364)" fill="#1abaf1" fill-rule="evenodd"/>
      </g>
      <path id="Path_1117" data-name="Path 1117" d="M376.865,11.966h16.869L358.913,48.2l34.821,36.235H376.865L350.553,57,324.246,84.435h-17.02L342.045,48.2l-34.82-36.233h16.866L350.553,39.4l26.311-27.433Z" transform="translate(87.573 109.899)" fill="#353539"/>
    </g>
  </g>
</svg>
