<svg xmlns="http://www.w3.org/2000/svg" xmlns:xlink="http://www.w3.org/1999/xlink" width="246" height="52" viewBox="0 0 246 52">
  <defs>
    <clipPath id="clip-glossier-logo">
      <rect width="246" height="52"/>
    </clipPath>
  </defs>
  <g id="glossier-logo" clip-path="url(#clip-glossier-logo)">
    <path id="glossier-logo-2" data-name="glossier-logo" d="M48.029,15.113C46.406,6.791,40.832.757,30.775.665h-.439c-11.476.071-19.99,5.83-24.5,14.448A33.7,33.7,0,0,0,2.126,30.847c0,11.057,6.126,18.02,13.977,19.97a19.1,19.1,0,0,0,4.656.561,21.321,21.321,0,0,0,5.105-.561,14.061,14.061,0,0,0,7.851-4.891v4.39a1.165,1.165,0,0,0,0,.195.521.521,0,0,0,.439.306h6.79a.659.659,0,0,0,.235-.072.512.512,0,0,0,.225-.316L46.09,26.456a.586.586,0,0,0,0-.132.51.51,0,0,0-.51-.511H28.539a.512.512,0,0,0-.511.378l-1.286,6.493v.093a.63.63,0,0,0,0,.2.5.5,0,0,0,.47.306h8.6c-1.848,5.105-6.126,9.567-12.967,9.567S11.693,37.922,11.693,29.5a22.7,22.7,0,0,1,4.819-14.386A15.691,15.691,0,0,1,28.835,9.17c4.768,0,7.545,2.175,9.4,5.943a22.285,22.285,0,0,1,1.215,3.063.51.51,0,0,0,.469.316h.143l7.709-2.042a.355.355,0,0,0,.143-.061.511.511,0,0,0,.245-.439v-.081a3.834,3.834,0,0,0-.143-.746M66.908,1.176A.511.511,0,0,0,66.4.665H58.577a.512.512,0,0,0-.5.429L55.361,15.113,48.571,50.193v.113a.415.415,0,0,0,0,.195.512.512,0,0,0,.47.316h7.81a.5.5,0,0,0,.5-.378l6.83-35.326L66.867,1.257V1.176M91.33,15.113a18.617,18.617,0,0,0-4.645-.563,24.952,24.952,0,0,0-5.575.563,18.739,18.739,0,0,0-9.015,5.105C67.847,24.3,65.969,29.57,65.969,36.3,65.969,43.282,70,49.04,76.9,50.817a18.648,18.648,0,0,0,4.656.561,24.506,24.506,0,0,0,5.687-.561,18.693,18.693,0,0,0,9.005-5.105c4.248-4.084,6.126-9.341,6.126-16.071,0-6.995-4.084-12.763-10.935-14.528M90.248,40.045a9.374,9.374,0,0,1-7.862,3.829c-4.176,0-6.943-3.4-6.943-8.924,0-3.829.847-6.8,2.623-9.066a9.374,9.374,0,0,1,7.862-3.778c4.176,0,6.943,3.4,6.943,8.924,0,3.829-.858,6.8-2.624,9.067m41.4-19.849c-1.194-2.327-3.89-4.226-7.014-5.1a14.035,14.035,0,0,0-3.921-.561,17.46,17.46,0,0,0-4.533.561,10.088,10.088,0,0,0-7.933,10.344c0,4.747,3.124,7.514,7.3,9.494s6.126,3.187,6.126,5.239c0,2.552-2.134,3.685-4.533,3.685-3.379,0-5.789-2.042-6.8-5.564a.53.53,0,0,0-.49-.347.628.628,0,0,0-.194,0l-6.576,2.736a.508.508,0,0,0-.315.469v.08a13.126,13.126,0,0,0,9.127,9.526,15.475,15.475,0,0,0,4.237.562,21.145,21.145,0,0,0,5.013-.562c5.411-1.337,9.014-5.105,9.014-11.833,0-4.952-3.685-7.36-7.361-9.065-2.409-1.135-6.126-2.2-6.126-4.677a3.165,3.165,0,0,1,3.13-3.2,3.21,3.21,0,0,1,.342.014,6.343,6.343,0,0,1,5.186,2.7.517.517,0,0,0,.408.2.6.6,0,0,0,.266-.07l5.5-3.962a.481.481,0,0,0,.133-.622m22.176-5.176a14.1,14.1,0,0,0-3.921-.563,17.554,17.554,0,0,0-4.542.563,10.085,10.085,0,0,0-7.923,10.341c0,4.748,3.063,7.516,7.3,9.5,4.033,1.91,6.126,3.186,6.126,5.238,0,2.552-2.123,3.686-4.534,3.686-3.379,0-5.8-2.042-6.81-5.586a.5.5,0,0,0-.468-.327.521.521,0,0,0-.206,0l-6.564,2.727a.5.5,0,0,0-.306.469.318.318,0,0,0,0,.1,13.128,13.128,0,0,0,9.118,9.506,15.675,15.675,0,0,0,4.248.561,20.978,20.978,0,0,0,5-.561c5.411-1.338,9.025-5.105,9.025-11.833,0-4.953-3.686-7.362-7.372-9.068-2.41-1.132-6.125-2.194-6.125-4.677a3.165,3.165,0,0,1,3.128-3.2,3,3,0,0,1,.343.015,6.337,6.337,0,0,1,5.175,2.684.5.5,0,0,0,.42.215.618.618,0,0,0,.265-.071l5.565-3.962a.554.554,0,0,0,.174-.4.523.523,0,0,0-.052-.226c-1.194-2.337-3.889-4.237-7.014-5.1m22.839-.029h-7.78a.522.522,0,0,0-.49.367L161.7,50.194a.338.338,0,0,0,0,.113.6.6,0,0,0,0,.195.522.522,0,0,0,.469.316h7.78a.6.6,0,0,0,.265-.072.491.491,0,0,0,.225-.306L177.2,15.663a.522.522,0,0,0-.51-.511m27.576-.039a17.4,17.4,0,0,0-4.522-.563,23.083,23.083,0,0,0-5.1.563,20.677,20.677,0,0,0-16.071,20.471c0,8.168,4.372,13.559,10.773,15.233a17.578,17.578,0,0,0,4.522.561,23.213,23.213,0,0,0,5.3-.561c4.974-1.154,8.6-4.084,11.967-8.975a.509.509,0,0,0-.174-.694l-6.125-3.176a.469.469,0,0,0-.205-.051.512.512,0,0,0-.387.194c-2.562,3.686-5.493,5.759-9.546,5.759-4.676,0-7.229-3.257-7.229-6.944V35.8h25.26a.608.608,0,0,0,.265-.072.536.536,0,0,0,.224-.285,25.374,25.374,0,0,0,.889-6.586c0-6.595-3.37-12.027-9.791-13.742M189.11,28.854a10.506,10.506,0,0,1,9.5-6.8c4.461,0,6.513,2.338,6.8,6.8Zm53.532-5.727a.482.482,0,0,0,.244.062.5.5,0,0,0,.266-.072.543.543,0,0,0,.2-.245l2.6-6.892a.658.658,0,0,0,0-.2.524.524,0,0,0-.315-.47l-.481-.174a9.937,9.937,0,0,0-3.666-.561,12.886,12.886,0,0,0-3.819.561,15.058,15.058,0,0,0-7.371,5.319l.928-4.686a.489.489,0,0,0-.325-.612.525.525,0,0,0-.164-.021h-7.811a.512.512,0,0,0-.5.419l-6.748,34.714a.225.225,0,0,0,0,.082.4.4,0,0,0,0,.193.51.51,0,0,0,.469.317h7.9a.606.606,0,0,0,.265-.072.513.513,0,0,0,.225-.317l2.409-12.252c2.124-11.231,8.168-15.723,12.608-15.723a6.7,6.7,0,0,1,3.063.674M174.377,1.216a5.034,5.034,0,1,0,5.033,5.034h0a4.93,4.93,0,0,0-4.827-5.034c-.069,0-.137,0-.206,0M243.1,41.443a5.055,5.055,0,0,0-2.6,9.374,5.277,5.277,0,0,0,5.2,0,5.055,5.055,0,0,0-2.592-9.374" transform="translate(-2.124 -0.665)"/>
  </g>
</svg>
