<svg xmlns="http://www.w3.org/2000/svg" xmlns:xlink="http://www.w3.org/1999/xlink" width="146" height="106" viewBox="0 0 146 106">
  <defs>
    <clipPath id="clip-path">
      <path id="Path_1028" data-name="Path 1028" d="M131.16,35.75h-1.57V40.2h1.694a2.19,2.19,0,0,0,2.439-2.246C133.722,36.516,132.677,35.75,131.16,35.75Zm0,3.966h-.536V36.232h.477c.975,0,1.56.606,1.56,1.72C132.645,39.234,132.061,39.716,131.16,39.716Z" transform="translate(-129.59 -35.75)" fill="#58427c"/>
    </clipPath>
    <clipPath id="clip-path-2">
      <path id="Path_1033" data-name="Path 1033" d="M179.21,38.883a1.12,1.12,0,0,0-1.072-.793h0c.718,0,1.393-.359,1.393-1.109,0-.863-.772-1.2-1.688-1.2H175.79v4.449h1.018V38.31h.579a.67.67,0,0,1,.761.536l.252.7a3.558,3.558,0,0,0,.295.659h1.147a2.594,2.594,0,0,1-.413-.75Zm-1.737-1.072H176.8V36.257h.675c.632,0,.975.268.975.772s-.354.788-.975.788Z" transform="translate(-175.79 -35.78)" fill="#58427c"/>
    </clipPath>
    <clipPath id="clip-path-3">
      <path id="Path_1036" data-name="Path 1036" d="M190.363,35.72l-1.983,4.465h.59l.482-1.1h1.742l.5,1.1h1.072l-2.01-4.465Zm-.713,2.894.654-1.5.681,1.5Z" transform="translate(-188.38 -35.72)" fill="#58427c"/>
    </clipPath>
    <clipPath id="clip-path-4">
      <path id="Path_1041" data-name="Path 1041" d="M230.436,35.629a2.289,2.289,0,1,0,2.321,2.289,2.262,2.262,0,0,0-2.321-2.289Zm0,4.116c-.809,0-1.184-.665-1.184-1.828s.375-1.833,1.184-1.833,1.179.67,1.179,1.833S231.24,39.746,230.436,39.746Z" transform="translate(-228.18 -35.629)" fill="#58427c"/>
    </clipPath>
    <clipPath id="clip-path-5">
      <path id="Path_1044" data-name="Path 1044" d="M245.889,38.883a1.109,1.109,0,0,0-1.072-.793h0c.718,0,1.388-.359,1.388-1.109,0-.863-.766-1.2-1.683-1.2H242.47v4.449h1.018V38.31h.579a.67.67,0,0,1,.761.536l.247.7a3.992,3.992,0,0,0,.3.659h1.131a2.727,2.727,0,0,1-.413-.75Zm-1.737-1.072h-.67V36.257h.67c.638,0,.981.268.981.772s-.354.788-.981.788Z" transform="translate(-242.47 -35.78)" fill="#58427c"/>
    </clipPath>
    <clipPath id="clip-path-6">
      <path id="Path_1047" data-name="Path 1047" d="M257.11,35.75h-1.57V40.2h1.688a2.194,2.194,0,0,0,2.444-2.246C259.672,36.516,258.622,35.75,257.11,35.75Zm0,3.966h-.536V36.232h.477c.975,0,1.56.606,1.56,1.72C258.59,39.234,258.005,39.716,257.11,39.716Z" transform="translate(-255.54 -35.75)" fill="#58427c"/>
    </clipPath>
    <clipPath id="clip-path-7">
      <path id="Path_1052" data-name="Path 1052" d="M125.819,9.44h-.188l-2.262,5.285h.391l.772-1.769h2.192l.8,1.79h.67l-2.31-5.2Zm-1.136,3.135.916-2.144.965,2.144Z" transform="translate(-123.37 -9.44)" fill="#58427c"/>
    </clipPath>
    <clipPath id="clip-path-8">
      <path id="Path_1062" data-name="Path 1062" d="M244.562,13.349a1.286,1.286,0,0,0-.938-1.276,1.27,1.27,0,0,0,.745-1.142c0-.868-.686-1.361-1.881-1.361H240.88v5.215h1.833C243.86,14.785,244.562,14.249,244.562,13.349ZM241.48,9.929h.975c.841,0,1.233.322,1.233,1s-.381,1.013-1.227,1.013h-.981Zm1.184,4.491H241.48V12.277h.986c1.281,0,1.426.611,1.426,1.072.011.766-.343,1.072-1.217,1.072Z" transform="translate(-240.88 -9.57)" fill="#58427c"/>
    </clipPath>
    <clipPath id="clip-path-9">
      <path id="Path_1066" data-name="Path 1066" d="M270.694,14.725h.67l-2.3-5.2-.064-.08h-.188l-2.267,5.285h.4l.766-1.769h2.2Zm-2.841-2.144.922-2.144.959,2.144Z" transform="translate(-266.54 -9.44)" fill="#58427c"/>
    </clipPath>
    <clipPath id="clip-meaningful-beauty-logo">
      <rect width="146" height="106"/>
    </clipPath>
  </defs>
  <g id="meaningful-beauty-logo" clip-path="url(#clip-meaningful-beauty-logo)">
    <g id="Group_289" data-name="Group 289" transform="translate(22.002 17)">
      <path id="Path_1020" data-name="Path 1020" d="M45.921,17.443v-.1C50.9,17.131,55.1,13.7,55.1,8.871,55.1,2.409,49.362,0,42.433,0H31.7L18.054,32.829,2.925,0H0V35.9H.563V1.025L16.927,36.419h.2L31.852,1.025V35.9H43.919c7.337,0,12.671-3.075,12.671-9.434C56.591,20.619,52.03,17.646,45.921,17.443ZM34.472.563h7.914c6.516,0,10,2.566,10,8.307,0,6.787-5.022,8.26-10.052,8.26H34.472Zm9.4,34.777h-9.4V17.694h7.961c6.875,0,11.443,2.362,11.443,8.823C53.876,33.345,49.871,35.34,43.872,35.34Z" transform="translate(22.968)" fill="#58427c"/>
      <g id="Group_274" data-name="Group 274" transform="translate(5.998 44.41)">
        <g id="Group_271" data-name="Group 271" transform="translate(0 22.077)">
          <path id="Path_1024" data-name="Path 1024" d="M97.1,36.158a1.436,1.436,0,0,1,1.27.815l.375-.413a1.962,1.962,0,0,0-1.785-.933,2.283,2.283,0,0,0-2.353,2.342,2.2,2.2,0,0,0,2.321,2.24,2.01,2.01,0,0,0,1.817-1l-.364-.306a1.372,1.372,0,0,1-1.281.75c-.756,0-1.361-.638-1.361-1.758S96.271,36.158,97.1,36.158Z" transform="translate(-94.609 -35.624)" fill="#58427c"/>
          <rect id="Rectangle_558" data-name="Rectangle 558" width="1.018" height="4.449" transform="translate(7.124 0.068)" fill="#58427c"/>
          <path id="Path_1025" data-name="Path 1025" d="M119.332,38.435l-2.246-2.685H116.1V40.2h.616V36.843l2.825,3.361h.4V35.75h-.606Z" transform="translate(-104.581 -35.682)" fill="#58427c"/>
          <path id="Path_1026" data-name="Path 1026" d="M131.16,35.75h-1.57V40.2h1.694a2.19,2.19,0,0,0,2.439-2.246C133.722,36.516,132.677,35.75,131.16,35.75Zm0,3.966h-.536V36.232h.477c.975,0,1.56.606,1.56,1.72C132.645,39.234,132.061,39.716,131.16,39.716Z" transform="translate(-110.841 -35.682)" fill="#58427c"/>
          <g id="Group_262" data-name="Group 262" transform="translate(18.749 0.068)" clip-path="url(#clip-path)">
            <path id="Path_1027" data-name="Path 1027" d="M131.967,36.65h-.477v3.484h.536c.9,0,1.485-.482,1.485-1.763C133.527,37.256,132.942,36.65,131.967,36.65Z" transform="translate(-130.472 -36.168)" fill="#58427c"/>
          </g>
          <path id="Path_1029" data-name="Path 1029" d="M143.981,37.712l-1.286-1.962H141.51l1.71,2.567V40.2h1V38.317l1.7-2.567h-.649Z" transform="translate(-116.372 -35.682)" fill="#58427c"/>
          <path id="Path_1030" data-name="Path 1030" d="M165,36.158a1.442,1.442,0,0,1,1.27.815l.375-.413a1.962,1.962,0,0,0-1.774-.933,2.283,2.283,0,0,0-2.364,2.342,2.2,2.2,0,0,0,2.321,2.24,2.01,2.01,0,0,0,1.817-1l-.37-.306a1.367,1.367,0,0,1-1.276.75c-.761,0-1.361-.638-1.361-1.758S164.165,36.158,165,36.158Z" transform="translate(-126.116 -35.624)" fill="#58427c"/>
          <path id="Path_1031" data-name="Path 1031" d="M179.21,38.883a1.12,1.12,0,0,0-1.072-.793h0c.718,0,1.393-.359,1.393-1.109,0-.863-.772-1.2-1.688-1.2H175.79v4.449h1.018V38.31h.579a.67.67,0,0,1,.761.536l.252.7a3.558,3.558,0,0,0,.295.659h1.147a2.594,2.594,0,0,1-.413-.75Zm-1.737-1.072H176.8V36.257h.675c.632,0,.975.268.975.772s-.354.788-.975.788Z" transform="translate(-132.279 -35.696)" fill="#58427c"/>
          <g id="Group_263" data-name="Group 263" transform="translate(43.511 0.084)" clip-path="url(#clip-path-2)">
            <path id="Path_1032" data-name="Path 1032" d="M179.321,37.442c0-.5-.343-.772-.975-.772h-.675v1.56h.675C178.967,38.23,179.321,37.988,179.321,37.442Z" transform="translate(-176.662 -36.193)" fill="#58427c"/>
          </g>
          <path id="Path_1034" data-name="Path 1034" d="M190.363,35.72l-1.983,4.465h.59l.482-1.1h1.742l.5,1.1h1.072l-2.01-4.465Zm-.713,2.894.654-1.5.681,1.5Z" transform="translate(-138.122 -35.669)" fill="#58427c"/>
          <g id="Group_264" data-name="Group 264" transform="translate(50.258 0.051)" clip-path="url(#clip-path-3)">
            <path id="Path_1035" data-name="Path 1035" d="M190.75,39.821h1.335l-.681-1.5Z" transform="translate(-189.48 -36.926)" fill="#58427c"/>
          </g>
          <path id="Path_1037" data-name="Path 1037" d="M204.914,38.709l-1.024-2.959h-1.029l.418,1.126-.7,1.913-1.152-3.039h-1.05l1.785,4.459h.386l1-2.637.992,2.637h.381L206.6,35.75h-.595Z" transform="translate(-143.69 -35.682)" fill="#58427c"/>
          <path id="Path_1038" data-name="Path 1038" d="M217.43,40.2h1.013v-2h1.635v-.52h-1.635v-1.4h2.187v-.52h-3.2Z" transform="translate(-151.602 -35.682)" fill="#58427c"/>
          <path id="Path_1039" data-name="Path 1039" d="M230.436,35.629a2.289,2.289,0,1,0,2.321,2.289,2.262,2.262,0,0,0-2.321-2.289Zm0,4.116c-.809,0-1.184-.665-1.184-1.828s.375-1.833,1.184-1.833,1.179.67,1.179,1.833S231.24,39.746,230.436,39.746Z" transform="translate(-156.59 -35.626)" fill="#58427c"/>
          <g id="Group_265" data-name="Group 265" transform="translate(71.59 0.002)" clip-path="url(#clip-path-4)">
            <path id="Path_1040" data-name="Path 1040" d="M231.365,36.48c-.809,0-1.185.67-1.185,1.833s.375,1.828,1.185,1.828,1.179-.665,1.179-1.828S232.168,36.48,231.365,36.48Z" transform="translate(-229.108 -36.024)" fill="#58427c"/>
          </g>
          <path id="Path_1042" data-name="Path 1042" d="M245.889,38.883a1.109,1.109,0,0,0-1.072-.793h0c.718,0,1.388-.359,1.388-1.109,0-.863-.766-1.2-1.683-1.2H242.47v4.449h1.018V38.31h.579a.67.67,0,0,1,.761.536l.247.7a3.992,3.992,0,0,0,.3.659h1.131a2.727,2.727,0,0,1-.413-.75Zm-1.737-1.072h-.67V36.257h.67c.638,0,.981.268.981.772s-.354.788-.981.788Z" transform="translate(-163.221 -35.696)" fill="#58427c"/>
          <g id="Group_266" data-name="Group 266" transform="translate(79.249 0.084)" clip-path="url(#clip-path-5)">
            <path id="Path_1043" data-name="Path 1043" d="M246.011,37.442c0-.5-.343-.772-.981-.772h-.67v1.56h.67C245.657,38.23,246.011,37.988,246.011,37.442Z" transform="translate(-243.347 -36.193)" fill="#58427c"/>
          </g>
          <path id="Path_1045" data-name="Path 1045" d="M257.11,35.75h-1.57V40.2h1.688a2.194,2.194,0,0,0,2.444-2.246C259.672,36.516,258.622,35.75,257.11,35.75Zm0,3.966h-.536V36.232h.477c.975,0,1.56.606,1.56,1.72C258.59,39.234,258.005,39.716,257.11,39.716Z" transform="translate(-169.286 -35.682)" fill="#58427c"/>
          <g id="Group_267" data-name="Group 267" transform="translate(86.254 0.068)" clip-path="url(#clip-path-6)">
            <path id="Path_1046" data-name="Path 1046" d="M257.907,36.65h-.477v3.484h.536c.9,0,1.479-.482,1.479-1.763C259.467,37.256,258.882,36.65,257.907,36.65Z" transform="translate(-256.417 -36.168)" fill="#58427c"/>
          </g>
        </g>
        <g id="Group_273" data-name="Group 273" transform="translate(10.184 0)">
          <path id="Path_1048" data-name="Path 1048" d="M99.091,9.57h-.08l-1.785,4.293L95.248,9.57H94.61v5.215h.364V10.5l2.015,4.357H97.2l1.785-4.288v4.218h.643V9.57h-.541Z" transform="translate(-94.61 -9.497)" fill="#58427c"/>
          <path id="Path_1049" data-name="Path 1049" d="M111.873,12.293h2.08v-.364h-2.08v-2h2.755V9.57h-3.4v5.215H114.7v-.364h-2.825Z" transform="translate(-102.322 -9.497)" fill="#58427c"/>
          <path id="Path_1050" data-name="Path 1050" d="M125.819,9.44h-.188l-2.262,5.285h.391l.772-1.769h2.192l.8,1.79h.67l-2.31-5.2Zm-1.136,3.135.916-2.144.965,2.144Z" transform="translate(-107.956 -9.436)" fill="#58427c"/>
          <g id="Group_268" data-name="Group 268" transform="translate(15.414 0.004)" clip-path="url(#clip-path-7)">
            <path id="Path_1051" data-name="Path 1051" d="M125.82,13.434H127.7l-.965-2.144Z" transform="translate(-124.507 -10.298)" fill="#58427c"/>
          </g>
          <path id="Path_1053" data-name="Path 1053" d="M142.6,14.794V9.51h-.359v4.164l-3.591-4.186-.07-.048h-.209v5.285h.364V10.549l3.628,4.245Z" transform="translate(-114.916 -9.436)" fill="#58427c"/>
          <rect id="Rectangle_559" data-name="Rectangle 559" width="0.643" height="5.215" transform="translate(31.568 0.073)" fill="#58427c"/>
          <path id="Path_1054" data-name="Path 1054" d="M165.794,13.674l-3.586-4.186-.07-.048h-.209v5.285h.359V10.549l3.634,4.245h.236V9.51h-.364Z" transform="translate(-125.849 -9.436)" fill="#58427c"/>
          <path id="Path_1055" data-name="Path 1055" d="M180.479,12.953a1.452,1.452,0,0,1-1.554,1.485c-1.19,0-1.871-.847-1.871-2.326s.713-2.321,1.908-2.321a1.742,1.742,0,0,1,1.715,1.1l.054.134.322-.145-.064-.129a2.058,2.058,0,0,0-2.042-1.318,2.6,2.6,0,0,0-2.589,2.68,2.562,2.562,0,0,0,2.551,2.68,1.9,1.9,0,0,0,1.645-.852l.284.852h.273V12.235h-.649Z" transform="translate(-132.542 -9.433)" fill="#58427c"/>
          <path id="Path_1056" data-name="Path 1056" d="M195.373,9.929V9.57H192.12v5.215h.643V12.362h2.08V12h-2.08V9.929Z" transform="translate(-139.858 -9.497)" fill="#58427c"/>
          <path id="Path_1057" data-name="Path 1057" d="M204.33,9.57v3.184a1.965,1.965,0,0,0,2.176,2.1,1.94,1.94,0,0,0,2-2.1V9.57h-.364v3.173a1.528,1.528,0,0,1-1.64,1.688c-1.018,0-1.533-.595-1.533-1.769V9.57Z" transform="translate(-145.524 -9.497)" fill="#58427c"/>
          <path id="Path_1058" data-name="Path 1058" d="M219.893,9.57h-.643v5.215h3.328v-.364h-2.685Z" transform="translate(-152.447 -9.497)" fill="#58427c"/>
        </g>
        <g id="Group_272" data-name="Group 272" transform="translate(23.583 7.507)">
          <path id="Path_1059" data-name="Path 1059" d="M244.562,13.349a1.286,1.286,0,0,0-.938-1.276,1.27,1.27,0,0,0,.745-1.142c0-.868-.686-1.361-1.881-1.361H240.88v5.215h1.833C243.86,14.785,244.562,14.249,244.562,13.349ZM241.48,9.929h.975c.841,0,1.233.322,1.233,1s-.381,1.013-1.227,1.013h-.981Zm1.184,4.491H241.48V12.277h.986c1.281,0,1.426.611,1.426,1.072.011.766-.343,1.072-1.217,1.072Z" transform="translate(-240.88 -9.5)" fill="#58427c"/>
          <g id="Group_269" data-name="Group 269" transform="translate(0 0.07)" clip-path="url(#clip-path-8)">
            <path id="Path_1060" data-name="Path 1060" d="M244.219,11.242c0-.681-.391-1-1.233-1H242v2.015h.97C243.828,12.255,244.219,11.918,244.219,11.242Z" transform="translate(-241.4 -9.881)" fill="#58427c"/>
            <path id="Path_1061" data-name="Path 1061" d="M243,14.63h-1v2.144h1.184c.874,0,1.227-.306,1.227-1.072C244.423,15.241,244.278,14.63,243,14.63Z" transform="translate(-241.4 -11.918)" fill="#58427c"/>
          </g>
          <path id="Path_1063" data-name="Path 1063" d="M257.878,14.421h-2.825V12.293h2.08v-.364h-2.08v-2h2.755V9.57h-3.4v5.215h3.468Z" transform="translate(-247.158 -9.5)" fill="#58427c"/>
          <path id="Path_1064" data-name="Path 1064" d="M270.694,14.725h.67l-2.3-5.2-.064-.08h-.188l-2.267,5.285h.4l.766-1.769h2.2Zm-2.841-2.144.922-2.144.959,2.144Z" transform="translate(-252.787 -9.44)" fill="#58427c"/>
          <g id="Group_270" data-name="Group 270" transform="translate(13.753 0)" clip-path="url(#clip-path-9)">
            <path id="Path_1065" data-name="Path 1065" d="M268.99,13.434h1.881l-.959-2.144Z" transform="translate(-267.677 -10.298)" fill="#58427c"/>
          </g>
          <path id="Path_1067" data-name="Path 1067" d="M285.121,12.759V9.57h-.364v3.173a1.528,1.528,0,0,1-1.64,1.688c-1.018,0-1.533-.595-1.533-1.769V9.57h-.643v3.184a1.965,1.965,0,0,0,2.176,2.1,1.94,1.94,0,0,0,2-2.1Z" transform="translate(-259.469 -9.5)" fill="#58427c"/>
          <path id="Path_1068" data-name="Path 1068" d="M294.81,9.929H296.8v4.856h.638V9.929h2V9.57H294.81Z" transform="translate(-265.905 -9.5)" fill="#58427c"/>
          <path id="Path_1069" data-name="Path 1069" d="M311.3,12.239,309.62,9.57h-.74l1.94,3.076v2.139h.643V12.646l1.929-3.076h-.418Z" transform="translate(-272.434 -9.5)" fill="#58427c"/>
          <path id="Path_1070" data-name="Path 1070" d="M318.739,11.157a.8.8,0,1,1,.8-.8.788.788,0,0,1-.8.8Zm0-1.5a.7.7,0,1,0,.7.7.692.692,0,0,0-.7-.7Zm-.139,1.131h-.209V9.914h.407c.177,0,.327.07.327.23s-.129.22-.273.225h0a.225.225,0,0,1,.214.155l.037.107a.578.578,0,0,0,.08.15h-.236a.687.687,0,0,1-.059-.129l-.048-.145a.123.123,0,0,0-.139-.1h-.1Zm0-.472h.118c.123,0,.188-.048.188-.15s-.064-.15-.188-.15H318.6Z" transform="translate(-276.638 -9.496)" fill="#58427c"/>
        </g>
      </g>
    </g>
  </g>
</svg>
