<svg xmlns="http://www.w3.org/2000/svg" xmlns:xlink="http://www.w3.org/1999/xlink" width="146" height="106" viewBox="0 0 146 106">
  <defs>
    <clipPath id="clip-path">
      <path id="Path_1028" data-name="Path 1028" d="M131.9,35.75H129.59V42.3h2.5c1.966,0,3.593-1.066,3.593-3.309C135.679,36.879,134.139,35.75,131.9,35.75Zm0,5.844h-.79V36.461h.7c1.437,0,2.3.892,2.3,2.535C134.091,40.883,133.23,41.594,131.9,41.594Z" transform="translate(-129.59 -35.75)" fill="#58427c"/>
    </clipPath>
    <clipPath id="clip-path-2">
      <path id="Path_1033" data-name="Path 1033" d="M180.828,40.352a1.65,1.65,0,0,0-1.579-1.169h0c1.058,0,2.053-.529,2.053-1.635,0-1.271-1.137-1.769-2.488-1.769H175.79v6.554h1.5V39.507h.853a.987.987,0,0,1,1.121.79l.371,1.034a5.241,5.241,0,0,0,.434.971h1.69a3.822,3.822,0,0,1-.608-1.106Zm-2.559-1.579h-.995v-2.29h.995c.932,0,1.437.395,1.437,1.137s-.521,1.161-1.437,1.161Z" transform="translate(-175.79 -35.78)" fill="#58427c"/>
    </clipPath>
    <clipPath id="clip-path-3">
      <path id="Path_1036" data-name="Path 1036" d="M191.3,35.72,188.38,42.3h.869l.711-1.627h2.566l.742,1.627h1.579l-2.961-6.578Zm-1.05,4.264.963-2.211,1,2.211Z" transform="translate(-188.38 -35.72)" fill="#58427c"/>
    </clipPath>
    <clipPath id="clip-path-4">
      <path id="Path_1041" data-name="Path 1041" d="M231.5,35.63A3.372,3.372,0,1,0,234.924,39,3.332,3.332,0,0,0,231.5,35.63Zm0,6.065c-1.192,0-1.745-.979-1.745-2.693s.553-2.7,1.745-2.7,1.737.987,1.737,2.7S232.689,41.695,231.5,41.695Z" transform="translate(-228.18 -35.629)" fill="#58427c"/>
    </clipPath>
    <clipPath id="clip-path-5">
      <path id="Path_1044" data-name="Path 1044" d="M247.508,40.352a1.635,1.635,0,0,0-1.579-1.169h0c1.058,0,2.045-.529,2.045-1.635,0-1.271-1.129-1.769-2.48-1.769H242.47v6.554h1.5V39.507h.853a.987.987,0,0,1,1.121.79l.363,1.034a5.882,5.882,0,0,0,.442.971h1.666a4.019,4.019,0,0,1-.608-1.106Zm-2.559-1.579h-.987v-2.29h.987c.94,0,1.445.395,1.445,1.137s-.521,1.161-1.445,1.161Z" transform="translate(-242.47 -35.78)" fill="#58427c"/>
    </clipPath>
    <clipPath id="clip-path-6">
      <path id="Path_1047" data-name="Path 1047" d="M257.854,35.75H255.54V42.3h2.488c1.966,0,3.6-1.066,3.6-3.309C261.629,36.879,260.081,35.75,257.854,35.75Zm0,5.844h-.79V36.461h.7c1.437,0,2.3.892,2.3,2.535C260.033,40.883,259.173,41.594,257.854,41.594Z" transform="translate(-255.54 -35.75)" fill="#58427c"/>
    </clipPath>
    <clipPath id="clip-path-7">
      <path id="Path_1052" data-name="Path 1052" d="M126.979,9.44H126.7l-3.333,7.786h.576l1.137-2.606h3.23l1.177,2.638h.987l-3.4-7.668ZM125.3,14.06l1.35-3.159,1.421,3.159Z" transform="translate(-123.37 -9.44)" fill="#58427c"/>
    </clipPath>
    <clipPath id="clip-path-8">
      <path id="Path_1062" data-name="Path 1062" d="M246.305,15.137a1.9,1.9,0,0,0-1.382-1.879,1.872,1.872,0,0,0,1.1-1.682c0-1.279-1.011-2.006-2.772-2.006H240.88v7.684h2.7C245.271,17.254,246.305,16.464,246.305,15.137ZM241.764,10.1H243.2c1.24,0,1.816.474,1.816,1.477s-.561,1.493-1.808,1.493h-1.445Zm1.745,6.618h-1.745V13.558h1.453c1.887,0,2.1.9,2.1,1.579.016,1.129-.505,1.579-1.793,1.579Z" transform="translate(-240.88 -9.57)" fill="#58427c"/>
    </clipPath>
    <clipPath id="clip-path-9">
      <path id="Path_1066" data-name="Path 1066" d="M272.66,17.226h.987l-3.4-7.668-.095-.118h-.276l-3.34,7.786h.584l1.129-2.606h3.238Zm-4.185-3.159,1.358-3.159,1.414,3.159Z" transform="translate(-266.54 -9.44)" fill="#58427c"/>
    </clipPath>
    <clipPath id="clip-meaningful-beauty-logo">
      <rect width="146" height="106"/>
    </clipPath>
  </defs>
  <g id="meaningful-beauty-logo" clip-path="url(#clip-meaningful-beauty-logo)">
    <path id="Path_1020" data-name="Path 1020" d="M67.66,25.7v-.15c7.33-.31,13.53-5.37,13.53-12.48C81.19,3.55,72.73,0,62.52,0H46.71L26.6,48.37,4.31,0H0V52.9H.83V1.51L24.94,53.66h.3L46.93,1.51V52.9H64.71c10.81,0,18.67-4.53,18.67-13.9C83.38,30.38,76.66,26,67.66,25.7ZM50.79.83H62.45c9.6,0,14.73,3.78,14.73,12.24,0,10-7.4,12.17-14.81,12.17H50.79ZM64.64,52.07H50.79v-26H62.52c10.13,0,16.86,3.48,16.86,13C79.38,49.13,73.48,52.07,64.64,52.07Z" transform="translate(31.001)" fill="#58427c"/>
    <g id="Group_274" data-name="Group 274" transform="translate(16.999 -3)">
      <g id="Group_271" data-name="Group 271" transform="translate(-11.001 100.961)">
        <path id="Path_1024" data-name="Path 1024" d="M98.282,36.411a2.116,2.116,0,0,1,1.872,1.2l.553-.608a2.89,2.89,0,0,0-2.63-1.374A3.364,3.364,0,0,0,94.61,39.08a3.238,3.238,0,0,0,3.419,3.3,2.961,2.961,0,0,0,2.677-1.469l-.537-.45a2.022,2.022,0,0,1-1.887,1.106c-1.113,0-2.006-.94-2.006-2.59S97.058,36.411,98.282,36.411Z" transform="translate(-94.609 -35.624)" fill="#58427c"/>
        <rect id="Rectangle_558" data-name="Rectangle 558" width="1.5" height="6.554" transform="translate(10.496 0.1)" fill="#58427c"/>
        <path id="Path_1025" data-name="Path 1025" d="M120.862,39.706l-3.309-3.956H116.1V42.3h.908V37.361l4.162,4.951h.584V35.75h-.892Z" transform="translate(-99.128 -35.65)" fill="#58427c"/>
        <path id="Path_1026" data-name="Path 1026" d="M131.9,35.75H129.59V42.3h2.5c1.966,0,3.593-1.066,3.593-3.309C135.679,36.879,134.139,35.75,131.9,35.75Zm0,5.844h-.79V36.461h.7c1.437,0,2.3.892,2.3,2.535C134.091,40.883,133.23,41.594,131.9,41.594Z" transform="translate(-101.966 -35.65)" fill="#58427c"/>
        <g id="Group_262" data-name="Group 262" transform="translate(27.625 0.1)" clip-path="url(#clip-path)">
          <path id="Path_1027" data-name="Path 1027" d="M132.193,36.65h-.7v5.133h.79c1.327,0,2.187-.711,2.187-2.6C134.491,37.542,133.63,36.65,132.193,36.65Z" transform="translate(-129.99 -35.939)" fill="#58427c"/>
        </g>
        <path id="Path_1029" data-name="Path 1029" d="M145.15,38.64l-1.9-2.89H141.51l2.519,3.783V42.3h1.477V39.533l2.511-3.783h-.956Z" transform="translate(-104.472 -35.65)" fill="#58427c"/>
        <path id="Path_1030" data-name="Path 1030" d="M166.182,36.411a2.124,2.124,0,0,1,1.872,1.2l.553-.608a2.89,2.89,0,0,0-2.614-1.374,3.364,3.364,0,0,0-3.483,3.451,3.238,3.238,0,0,0,3.419,3.3,2.961,2.961,0,0,0,2.677-1.469l-.545-.45a2.014,2.014,0,0,1-1.879,1.106c-1.121,0-2.006-.94-2.006-2.59S164.95,36.411,166.182,36.411Z" transform="translate(-108.889 -35.624)" fill="#58427c"/>
        <path id="Path_1031" data-name="Path 1031" d="M180.828,40.352a1.65,1.65,0,0,0-1.579-1.169h0c1.058,0,2.053-.529,2.053-1.635,0-1.271-1.137-1.769-2.488-1.769H175.79v6.554h1.5V39.507h.853a.987.987,0,0,1,1.121.79l.371,1.034a5.241,5.241,0,0,0,.434.971h1.69a3.822,3.822,0,0,1-.608-1.106Zm-2.559-1.579h-.995v-2.29h.995c.932,0,1.437.395,1.437,1.137s-.521,1.161-1.437,1.161Z" transform="translate(-111.682 -35.657)" fill="#58427c"/>
        <g id="Group_263" data-name="Group 263" transform="translate(64.108 0.123)" clip-path="url(#clip-path-2)">
          <path id="Path_1032" data-name="Path 1032" d="M180.1,37.807c0-.742-.505-1.137-1.437-1.137h-.995v2.3h.995C179.581,38.968,180.1,38.613,180.1,37.807Z" transform="translate(-176.185 -35.967)" fill="#58427c"/>
        </g>
        <path id="Path_1034" data-name="Path 1034" d="M191.3,35.72,188.38,42.3h.869l.711-1.627h2.566l.742,1.627h1.579l-2.961-6.578Zm-1.05,4.264.963-2.211,1,2.211Z" transform="translate(-114.33 -35.644)" fill="#58427c"/>
        <g id="Group_264" data-name="Group 264" transform="translate(74.05 0.076)" clip-path="url(#clip-path-3)">
          <path id="Path_1035" data-name="Path 1035" d="M190.75,40.531h1.966l-1-2.211Z" transform="translate(-188.878 -36.267)" fill="#58427c"/>
        </g>
        <path id="Path_1037" data-name="Path 1037" d="M207.061,40.109l-1.508-4.359h-1.516l.616,1.658-1.027,2.819-1.7-4.478H200.38l2.63,6.57h.569l1.469-3.885,1.461,3.885h.561l2.48-6.57h-.877Z" transform="translate(-116.853 -35.65)" fill="#58427c"/>
        <path id="Path_1038" data-name="Path 1038" d="M217.43,42.3h1.493V39.351h2.409v-.766h-2.409V36.516h3.222V35.75H217.43Z" transform="translate(-120.439 -35.65)" fill="#58427c"/>
        <path id="Path_1039" data-name="Path 1039" d="M231.5,35.63A3.372,3.372,0,1,0,234.924,39,3.332,3.332,0,0,0,231.5,35.63Zm0,6.065c-1.192,0-1.745-.979-1.745-2.693s.553-2.7,1.745-2.7,1.737.987,1.737,2.7S232.689,41.695,231.5,41.695Z" transform="translate(-122.7 -35.625)" fill="#58427c"/>
        <g id="Group_265" data-name="Group 265" transform="translate(105.48 0.004)" clip-path="url(#clip-path-4)">
          <path id="Path_1040" data-name="Path 1040" d="M231.925,36.48c-1.192,0-1.745.987-1.745,2.7s.553,2.693,1.745,2.693,1.737-.979,1.737-2.693S233.11,36.48,231.925,36.48Z" transform="translate(-228.601 -35.808)" fill="#58427c"/>
        </g>
        <path id="Path_1042" data-name="Path 1042" d="M247.508,40.352a1.635,1.635,0,0,0-1.579-1.169h0c1.058,0,2.045-.529,2.045-1.635,0-1.271-1.129-1.769-2.48-1.769H242.47v6.554h1.5V39.507h.853a.987.987,0,0,1,1.121.79l.363,1.034a5.882,5.882,0,0,0,.442.971h1.666a4.019,4.019,0,0,1-.608-1.106Zm-2.559-1.579h-.987v-2.29h.987c.94,0,1.445.395,1.445,1.137s-.521,1.161-1.445,1.161Z" transform="translate(-125.705 -35.657)" fill="#58427c"/>
        <g id="Group_266" data-name="Group 266" transform="translate(116.765 0.123)" clip-path="url(#clip-path-5)">
          <path id="Path_1043" data-name="Path 1043" d="M246.792,37.807c0-.742-.505-1.137-1.445-1.137h-.987v2.3h.987C246.271,38.968,246.792,38.613,246.792,37.807Z" transform="translate(-242.868 -35.967)" fill="#58427c"/>
        </g>
        <path id="Path_1045" data-name="Path 1045" d="M257.854,35.75H255.54V42.3h2.488c1.966,0,3.6-1.066,3.6-3.309C261.629,36.879,260.081,35.75,257.854,35.75Zm0,5.844h-.79V36.461h.7c1.437,0,2.3.892,2.3,2.535C260.033,40.883,259.173,41.594,257.854,41.594Z" transform="translate(-128.454 -35.65)" fill="#58427c"/>
        <g id="Group_267" data-name="Group 267" transform="translate(127.086 0.1)" clip-path="url(#clip-path-6)">
          <path id="Path_1046" data-name="Path 1046" d="M258.133,36.65h-.7v5.133h.79c1.319,0,2.18-.711,2.18-2.6C260.431,37.542,259.57,36.65,258.133,36.65Z" transform="translate(-255.938 -35.939)" fill="#58427c"/>
        </g>
      </g>
      <g id="Group_273" data-name="Group 273" transform="translate(4.005 68.433)">
        <path id="Path_1048" data-name="Path 1048" d="M101.212,9.57h-.118L98.464,15.9,95.55,9.57h-.94v7.684h.537V10.936l2.969,6.42h.316l2.63-6.318v6.215h.948V9.57h-.8Z" transform="translate(-94.61 -9.462)" fill="#58427c"/>
        <path id="Path_1049" data-name="Path 1049" d="M112.178,13.582h3.064v-.537h-3.064V10.1h4.059V9.57H111.23v7.684h5.109v-.537h-4.162Z" transform="translate(-98.105 -9.462)" fill="#58427c"/>
        <path id="Path_1050" data-name="Path 1050" d="M126.979,9.44H126.7l-3.333,7.786h.576l1.137-2.606h3.23l1.177,2.638h.987l-3.4-7.668ZM125.3,14.06l1.35-3.159,1.421,3.159Z" transform="translate(-100.659 -9.435)" fill="#58427c"/>
        <g id="Group_268" data-name="Group 268" transform="translate(22.711 0.005)" clip-path="url(#clip-path-7)">
          <path id="Path_1051" data-name="Path 1051" d="M125.82,14.449h2.772L127.17,11.29Z" transform="translate(-123.885 -9.829)" fill="#58427c"/>
        </g>
        <path id="Path_1053" data-name="Path 1053" d="M144.6,17.329V9.543h-.529v6.136l-5.291-6.167-.1-.071h-.308v7.786h.537V11.075l5.346,6.254Z" transform="translate(-103.813 -9.435)" fill="#58427c"/>
        <rect id="Rectangle_559" data-name="Rectangle 559" width="0.948" height="7.684" transform="translate(46.513 0.108)" fill="#58427c"/>
        <path id="Path_1054" data-name="Path 1054" d="M167.624,15.679l-5.283-6.167-.1-.071h-.308v7.786h.529V11.075l5.354,6.254h.347V9.543h-.537Z" transform="translate(-108.768 -9.435)" fill="#58427c"/>
        <path id="Path_1055" data-name="Path 1055" d="M182.432,14.619a2.14,2.14,0,0,1-2.29,2.187c-1.753,0-2.756-1.248-2.756-3.427s1.05-3.419,2.811-3.419a2.567,2.567,0,0,1,2.527,1.627l.079.2.474-.213-.095-.19a3.032,3.032,0,0,0-3.009-1.943,3.838,3.838,0,0,0-3.814,3.948,3.775,3.775,0,0,0,3.759,3.948,2.8,2.8,0,0,0,2.424-1.256l.419,1.256h.4V13.561h-.956Z" transform="translate(-111.802 -9.433)" fill="#58427c"/>
        <path id="Path_1056" data-name="Path 1056" d="M196.913,10.1V9.57H192.12v7.684h.948V13.684h3.064v-.537h-3.064V10.1Z" transform="translate(-115.117 -9.462)" fill="#58427c"/>
        <path id="Path_1057" data-name="Path 1057" d="M204.33,9.57v4.691a2.9,2.9,0,0,0,3.206,3.1,2.859,2.859,0,0,0,2.953-3.088V9.57h-.537v4.675a2.251,2.251,0,0,1-2.416,2.488c-1.5,0-2.258-.877-2.258-2.606V9.57Z" transform="translate(-117.685 -9.462)" fill="#58427c"/>
        <path id="Path_1058" data-name="Path 1058" d="M220.2,9.57h-.948v7.684h4.9v-.537H220.2Z" transform="translate(-120.823 -9.462)" fill="#58427c"/>
      </g>
      <g id="Group_272" data-name="Group 272" transform="translate(23.746 79.494)">
        <path id="Path_1059" data-name="Path 1059" d="M246.305,15.137a1.9,1.9,0,0,0-1.382-1.879,1.872,1.872,0,0,0,1.1-1.682c0-1.279-1.011-2.006-2.772-2.006H240.88v7.684h2.7C245.271,17.254,246.305,16.464,246.305,15.137ZM241.764,10.1H243.2c1.24,0,1.816.474,1.816,1.477s-.561,1.493-1.808,1.493h-1.445Zm1.745,6.618h-1.745V13.558h1.453c1.887,0,2.1.9,2.1,1.579.016,1.129-.505,1.579-1.793,1.579Z" transform="translate(-240.88 -9.467)" fill="#58427c"/>
        <g id="Group_269" data-name="Group 269" transform="translate(0 0.103)" clip-path="url(#clip-path-8)">
          <path id="Path_1060" data-name="Path 1060" d="M245.269,11.717c0-1-.576-1.477-1.816-1.477H242v2.969h1.429C244.693,13.209,245.269,12.712,245.269,11.717Z" transform="translate(-241.116 -9.711)" fill="#58427c"/>
          <path id="Path_1061" data-name="Path 1061" d="M243.469,14.63H242v3.159h1.745c1.287,0,1.808-.45,1.808-1.579C245.569,15.53,245.356,14.63,243.469,14.63Z" transform="translate(-241.116 -10.634)" fill="#58427c"/>
        </g>
        <path id="Path_1063" data-name="Path 1063" d="M259.519,16.717h-4.162V13.582h3.064v-.537h-3.064V10.1h4.059V9.57H254.41v7.684h5.109Z" transform="translate(-243.726 -9.467)" fill="#58427c"/>
        <path id="Path_1064" data-name="Path 1064" d="M272.66,17.226h.987l-3.4-7.668-.095-.118h-.276l-3.34,7.786h.584l1.129-2.606h3.238Zm-4.185-3.159,1.358-3.159,1.414,3.159Z" transform="translate(-246.277 -9.44)" fill="#58427c"/>
        <g id="Group_270" data-name="Group 270" transform="translate(20.263 0)" clip-path="url(#clip-path-9)">
          <path id="Path_1065" data-name="Path 1065" d="M268.99,14.449h2.772l-1.414-3.159Z" transform="translate(-267.055 -9.829)" fill="#58427c"/>
        </g>
        <path id="Path_1067" data-name="Path 1067" d="M287.1,14.269V9.57h-.537v4.675a2.251,2.251,0,0,1-2.416,2.488c-1.5,0-2.259-.877-2.259-2.606V9.57h-.948v4.691a2.9,2.9,0,0,0,3.206,3.1,2.859,2.859,0,0,0,2.953-3.088Z" transform="translate(-249.305 -9.467)" fill="#58427c"/>
        <path id="Path_1068" data-name="Path 1068" d="M294.81,10.1h2.938v7.155h.94V10.1h2.953V9.57H294.81Z" transform="translate(-252.222 -9.467)" fill="#58427c"/>
        <path id="Path_1069" data-name="Path 1069" d="M312.442,13.5,309.97,9.57h-1.09l2.859,4.533v3.151h.948V14.1l2.843-4.533h-.616Z" transform="translate(-255.181 -9.467)" fill="#58427c"/>
        <path id="Path_1070" data-name="Path 1070" d="M319.117,11.913a1.177,1.177,0,1,1,1.177-1.177,1.161,1.161,0,0,1-1.177,1.177Zm0-2.211a1.034,1.034,0,1,0,1.027,1.034A1.019,1.019,0,0,0,319.117,9.7Zm-.205,1.666H318.6V10.081h.6c.261,0,.482.1.482.34s-.19.324-.4.332h0a.332.332,0,0,1,.316.229l.055.158a.852.852,0,0,0,.118.221h-.347a1.011,1.011,0,0,1-.087-.19l-.071-.213a.182.182,0,0,0-.205-.142h-.15Zm0-.695h.174c.182,0,.276-.071.276-.221s-.095-.221-.276-.221h-.174Z" transform="translate(-257.087 -9.465)" fill="#58427c"/>
      </g>
    </g>
  </g>
</svg>
