<svg xmlns="http://www.w3.org/2000/svg" xmlns:xlink="http://www.w3.org/1999/xlink" width="408" height="118" viewBox="0 0 408 118">
  <defs>
    <clipPath id="clip-ocean-x-featured-in-entrepreneur-logo">
      <rect width="408" height="118"/>
    </clipPath>
  </defs>
  <g id="ocean-x-featured-in-entrepreneur-logo" clip-path="url(#clip-ocean-x-featured-in-entrepreneur-logo)">
    <g id="Grupo_302" data-name="Grupo 302" transform="translate(-1244.141 -337.604)">
      <g id="Grupo_291" data-name="Grupo 291">
        <path id="Trazado_1201" data-name="Trazado 1201" d="M1273.963,421.491h8.3l.656,16.077h-38.111v-5.929l5.147-.949V362.264l-5.813-.9.411-5.827h37.555c-.288,5.176-.57,10.223-.856,15.365h-7.981l-.711-9.247h-10.308v31.016h4.049l1.218-4.642h5.61v15.758h-5.575l-1.213-4.938h-4.106v32.357h10.478Z" fill="#fff"/>
        <path id="Trazado_1202" data-name="Trazado 1202" d="M1424.2,434.607v15.282l4.239,1.1c-.132,1.682-.254,3.232-.381,4.855h-18.985v-4.889l3.989-1.029V390.522l-4.579-.786v-5.082l12.845-1.772c.526,1.4,1,2.677,1.54,4.109a13.68,13.68,0,0,1,7.751-4.038c5.351-.735,9.514,1.329,12.114,6.085a30.6,30.6,0,0,1,3.451,11.56c.838,7.833,1,15.676-1.408,23.286a22.833,22.833,0,0,1-3.57,6.98c-3.658,4.727-8.808,5.372-14.338,4.371C1426.1,435.1,1425.343,434.877,1424.2,434.607Zm-.14-6.42a56.729,56.729,0,0,0,6.08.433c3.623-.136,4.148-.657,4.67-4.254a94.367,94.367,0,0,0,.46-24.96,21.974,21.974,0,0,0-1.88-6.509c-1.2-2.576-3.205-3.166-6.227-2.409-2.177.545-3.1,1.942-3.1,4.786q-.01,15.024,0,30.048Z" fill="#fff"/>
        <path id="Trazado_1203" data-name="Trazado 1203" d="M1300.057,431.66l4.3.965-.356,5.062h-19.047v-5l3.982-1.022V390.6l-4.551-.606V384.76l12.552-1.788,1.308,3.264a18.407,18.407,0,0,0,1.792-1.038,14.419,14.419,0,0,1,10-2.587c5.573.412,9.313,3.845,10.123,9.364a27.527,27.527,0,0,1,.214,3.948q.024,16.368.009,32.737v2.91l4.434,1.129-.336,4.915h-14.907v-2.672q0-18.481,0-36.961c0-.616.043-1.236-.011-1.848-.44-4.984-3.362-6.022-7.522-4.883-.824.226-1.429,1.585-1.927,2.531-.255.483-.051,1.208-.051,1.824q0,16.633,0,33.265Z" fill="#fff"/>
        <path id="Trazado_1204" data-name="Trazado 1204" d="M1609.522,437.627c-.367-.905-.72-1.773-1.134-2.8a16.494,16.494,0,0,0-1.593.974c-3.472,2.712-7.45,2.983-11.552,2.259-5.5-.969-8.915-5.062-9.244-10.939-.112-2.018-.045-4.046-.045-6.07q0-14.388,0-28.775v-2.766l-4.663-.634v-4.673L1595.4,382.6a12.147,12.147,0,0,1,1.344,5.887q-.033,17.422-.011,34.847a19.512,19.512,0,0,0,.022,2.11c.472,4.33,2.976,6.189,7.253,5.417a3.785,3.785,0,0,0,3.277-3.823c.025-.527.005-1.056.005-1.584V389.573l-4.783-.723v-4.644l14.684-1.643a39.806,39.806,0,0,1,.948,5.983c.082,13.375.043,26.751.043,40.126v2.978l4.251.973c-.141,1.621-.282,3.238-.435,5Z" fill="#fff"/>
        <path id="Trazado_1205" data-name="Trazado 1205" d="M1521.287,382.936c.5,1.225.9,2.182,1.369,3.328.9-.555,1.7-1.027,2.482-1.528a14.382,14.382,0,0,1,11.672-1.707c4.967,1.227,7.83,5.29,7.941,11.115.084,4.4.021,8.8.021,13.2q0,10.825,0,21.651c0,.861,0,1.721,0,2.643l4.135.943v5.038H1534.09c-.046-.828-.133-1.668-.134-2.507q-.012-18.615-.005-37.23a16.458,16.458,0,0,0-.017-1.847c-.518-4.551-2.921-5.978-7.366-4.826-.861.223-1.543,1.492-2.1,2.407-.276.457-.084,1.2-.084,1.82q0,16.766,0,33.533v2.642l4.31,1.046c-.122,1.632-.243,3.244-.373,4.976h-19V432.7l4-1.074V390.59l-4.532-.577V384.8Z" fill="#fff"/>
        <path id="Trazado_1206" data-name="Trazado 1206" d="M1486.949,413.438a28.417,28.417,0,0,0,2.457,13.092c1.817,3.972,4.693,5.488,9,4.588a60.173,60.173,0,0,0,6.157-1.979.84.84,0,0,1,.387.32c1.931,3.557,1.739,4.028-1.691,6.2a18.545,18.545,0,0,1-10.791,2.882c-5.6-.2-9.537-3.211-12.347-7.845a32.033,32.033,0,0,1-4.279-13.73c-.872-8.981-.081-17.729,4.052-25.95,3.092-6.15,9.088-9.353,15.614-8.378,4.3.644,7.157,3.228,9.157,6.833,3.162,5.7,3.887,11.989,3.958,18.363a38.941,38.941,0,0,1-.758,5.606Zm11.9-6c-.246-2.926-.28-5.641-.75-8.279a51.029,51.029,0,0,0-2.15-7.825,3.114,3.114,0,0,0-3.279-2.172c-1.773.116-2.728.925-3.368,2.779a53.618,53.618,0,0,0-2.419,15.273c-.009.218.221.447.379.744Z" fill="#fff"/>
        <path id="Trazado_1207" data-name="Trazado 1207" d="M1387.134,413.482c-.071,5.087.6,9.748,2.988,13.995,1.875,3.328,4.388,4.459,8.25,3.682a59.689,59.689,0,0,0,6.338-2,.541.541,0,0,1,.285.192c2.151,3.928,2.035,4.085-1.858,6.484a18.542,18.542,0,0,1-10.326,2.708c-5.5-.111-9.475-2.995-12.3-7.505a32.547,32.547,0,0,1-4.582-15.268c-.618-8.737.16-17.237,4.369-25.138a14.6,14.6,0,0,1,15.326-8.011,12.06,12.06,0,0,1,9.067,6.57c3.582,6.425,4.285,13.528,4.149,20.718-.052,2.774-1.176,3.574-3.958,3.571C1399.09,413.478,1393.3,413.482,1387.134,413.482Zm11.925-6.055c-.28-2.951-.371-5.746-.855-8.471a50.238,50.238,0,0,0-2.063-7.579,3.052,3.052,0,0,0-3.255-2.2c-1.693.159-3.033.886-3.391,2.75-.728,3.783-1.51,7.556-2.149,11.354a41.545,41.545,0,0,0-.261,4.7Z" fill="#fff"/>
        <path id="Trazado_1208" data-name="Trazado 1208" d="M1580.431,413.5h-20.647c.222,5.728.646,11.156,4.4,15.71a5.191,5.191,0,0,0,4.888,2.08c2.814-.449,5.575-1.225,8.8-1.964-.441-.213-.324-.2-.289-.134,2.184,3.938,2.608,3.79-1.532,6.515a17.957,17.957,0,0,1-10.533,2.841c-5.494-.128-9.456-3.011-12.271-7.513a31.643,31.643,0,0,1-4.487-14.2c-.811-9.077-.1-17.915,4.246-26.158a14.626,14.626,0,0,1,15.272-8.07c4.413.628,7.346,3.237,9.351,6.96,3.4,6.306,4.013,13.217,3.938,20.212C1581.564,410.941,1580.885,412.091,1580.431,413.5Zm-20.691-5.507,11.958-.584a56.587,56.587,0,0,0-1.845-13.814,9.368,9.368,0,0,0-1.491-3.054,3.349,3.349,0,0,0-5.919.844C1560.44,396.619,1560.113,402.125,1559.74,407.994Z" fill="#fff"/>
        <path id="Trazado_1209" data-name="Trazado 1209" d="M1327.68,388.192l-4.658-.812v-6.043l5.5-.345,2.572-8.189h7.552v8.421h7.58l-.53,6.164-6.724.8a16.159,16.159,0,0,0-.209,1.815q-.018,18.61,0,37.222c0,3.341.864,4.176,4.224,4.231,1.046.017,2.092,0,3.418,0l.537,5.382a21.487,21.487,0,0,1-13.3.875,7.32,7.32,0,0,1-5.358-5.665,22.013,22.013,0,0,1-.572-4.954c-.046-11.967-.025-23.935-.025-35.9Z" fill="#fff"/>
        <path id="Trazado_1210" data-name="Trazado 1210" d="M1375.665,396.759h-7.474c-.317-2.064-.617-4.016-.917-5.962-3.585.435-3.63.48-3.63,3.789q0,17.163,0,34.327v2.724l4.305,1.2-.3,4.821h-19.232l.276-4.846,3.7-1.11V390.643l-4.344-.675v-5.2l12.938-1.8,1.189,3.307c.87-.394,1.721-.741,2.538-1.155a21.148,21.148,0,0,1,8.916-2.116,2.73,2.73,0,0,1,3.119,3.2C1376.447,389.7,1376.037,393.185,1375.665,396.759Z" fill="#fff"/>
        <path id="Trazado_1211" data-name="Trazado 1211" d="M1462.958,431.642l4.3,1.194c-.093,1.636-.182,3.184-.276,4.831h-19.265l.276-4.829,3.668-1.1V390.627l-4.323-.661v-5.2l12.975-1.8,1.18,3.311a19.64,19.64,0,0,1,3.068-1.367c2.791-.719,5.6-1.42,8.441-1.871a2.583,2.583,0,0,1,3.091,2.687c-.29,3.664-.733,7.316-1.117,11.007h-7.483c-.321-2.089-.621-4.042-.945-6.152-.691.162-1.176.293-1.668.389a2.148,2.148,0,0,0-1.951,2.589c.122,1.929.029,3.872.029,5.809v32.27Z" fill="#fff"/>
        <path id="Trazado_1212" data-name="Trazado 1212" d="M1643.08,390.42l-3.609,1.3v39.962l4.043,1.052v4.843h-19.028v-4.746l3.739-1.1V390.624l-4.265-.618v-5.249l12.755-1.777c.437,1.117.811,2.072,1.287,3.29.869-.395,1.721-.745,2.54-1.16a20.978,20.978,0,0,1,8.921-2.1,2.763,2.763,0,0,1,3.139,3.214c-.319,3.491-.745,6.973-1.127,10.465H1643.9C1643.63,394.6,1643.382,392.718,1643.08,390.42Z" fill="#fff"/>
      </g>
      <text id="FEATURED_IN" data-name="FEATURED IN" transform="translate(1448.086 357.604)" fill="#fff" font-size="29.256" font-family="ProximaNova-Regular, Proxima Nova" letter-spacing="0.02em"><tspan x="-91.602" y="0">FEATURED IN</tspan></text>
    </g>
  </g>
</svg>
