<svg xmlns="http://www.w3.org/2000/svg" xmlns:xlink="http://www.w3.org/1999/xlink" width="579" height="88" viewBox="0 0 579 88">
  <defs>
    <clipPath id="clip-ocean-x-wavemarker-logo">
      <rect width="579" height="88"/>
    </clipPath>
  </defs>
  <g id="ocean-x-wavemarker-logo" clip-path="url(#clip-ocean-x-wavemarker-logo)">
    <g id="Grupo_185" data-name="Grupo 185" transform="translate(-502.521 -1379.214)">
      <g id="Grupo_46" data-name="Grupo 46" transform="translate(503 1379.298)">
        <g id="Wavemaker" transform="translate(0 0)">
          <g id="Grupo_45" data-name="Grupo 45" transform="translate(0 0)">
            <g id="Grupo_43" data-name="Grupo 43" transform="translate(147.853 16.305)">
              <path id="Trazado_138" data-name="Trazado 138" d="M672.524,316.239h-6.387l-14.372-44.965h5.967l11.515,39.334,11.346-39.334h6.555l11.935,39.418,11.01-39.418h5.967l-13.868,44.965h-6.471l-11.935-39Z" transform="translate(-651.764 -253.036)" fill="#45454a"/>
              <path id="Trazado_139" data-name="Trazado 139" d="M828.289,309.134c-2.942,3.866-8.322,7.144-16.558,7.144-11.178,0-15.548-5.127-15.548-13.784,0-11.01,7.4-14.372,18.995-14.372a89.051,89.051,0,0,1,12.607.756c-.168-10.506-1.345-14.54-12.018-14.54-10.926,0-12.691,5.715-12.691,9.665h-5.127c0-5.379,1.765-14.372,17.566-14.372,18.406,0,17.817,9.665,17.817,23.449v10.927l.925,11.262h-5.127Zm-.505-7.648v-7.9a91.012,91.012,0,0,0-11.346-.673c-9.5,0-14.539,2.27-14.539,9.329,0,5.127,2.437,9.161,10.842,9.161C822.321,311.4,827.784,305.6,827.784,301.486Z" transform="translate(-729.643 -252.15)" fill="#45454a"/>
              <path id="Trazado_140" data-name="Trazado 140" d="M890.146,271.274l14.036,39.754,14.288-39.754H924.6l-17.482,44.965h-5.967l-17.23-44.965Z" transform="translate(-776.959 -253.036)" fill="#45454a"/>
              <path id="Trazado_141" data-name="Trazado 141" d="M994.718,316.081c-14.792,0-19.582-8.825-19.582-23.281s4.79-23.533,19.582-23.533c14.12,0,19.331,7.648,19.331,24.458h-33.2c.168,11.935,3.95,17.482,13.867,17.482,10.59,0,13.364-6.136,13.364-9.413h5.631C1013.713,306.332,1010.856,316.081,994.718,316.081Zm-13.784-27.315h27.231c-.924-10.506-5.211-14.708-13.448-14.708C985.642,274.058,981.691,279.016,980.935,288.766Z" transform="translate(-826.145 -251.953)" fill="#45454a"/>
              <path id="Trazado_142" data-name="Trazado 142" d="M1075.394,282.169l-.841-11.683h4.791l.924,7.228c2.1-3.194,6.808-7.9,15.885-7.9,6.556,0,10.842,2.438,12.859,8.657,1.765-3.11,6.556-8.657,16.557-8.657,9.582,0,14.457,5.043,14.457,18.995v26.643h-5.379v-26.9c0-8.825-2.605-13.531-10.674-13.531-7.564,0-11.935,5.3-13.867,8.657a47.5,47.5,0,0,1,.252,5.127v26.643h-5.127v-26.9c0-8.825-2.689-13.531-10.59-13.531-7.48,0-11.767,5.3-13.7,8.657v31.77h-5.547Z" transform="translate(-879.756 -252.248)" fill="#45454a"/>
              <path id="Trazado_143" data-name="Trazado 143" d="M1263.175,309.134c-2.942,3.866-8.321,7.144-16.558,7.144-11.178,0-15.548-5.127-15.548-13.784,0-11.01,7.395-14.372,18.995-14.372a89.052,89.052,0,0,1,12.606.756c-.168-10.506-1.345-14.54-12.019-14.54-10.926,0-12.691,5.715-12.691,9.665h-5.126c0-5.379,1.765-14.372,17.566-14.372,18.407,0,17.818,9.665,17.818,23.449v10.927l.925,11.262h-5.126Zm-.5-7.648v-7.9a91.018,91.018,0,0,0-11.346-.673c-9.5,0-14.539,2.27-14.539,9.329,0,5.127,2.437,9.161,10.842,9.161C1257.207,311.4,1262.67,305.6,1262.67,301.486Z" transform="translate(-964.159 -252.15)" fill="#45454a"/>
              <path id="Trazado_144" data-name="Trazado 144" d="M1333.77,231.689h5.379v43.2l20.843-24.962h6.388l-14.372,16.809,16.642,28.156h-6.3l-13.868-23.953-9.329,10.926v13.027h-5.379Z" transform="translate(-1019.541 -231.689)" fill="#45454a"/>
              <path id="Trazado_145" data-name="Trazado 145" d="M1433.069,316.081c-14.793,0-19.583-8.825-19.583-23.281s4.791-23.533,19.583-23.533c14.119,0,19.33,7.648,19.33,24.458h-33.2c.168,11.935,3.95,17.482,13.868,17.482,10.589,0,13.363-6.136,13.363-9.413h5.631C1452.063,306.332,1449.206,316.081,1433.069,316.081Zm-13.784-27.315h27.231c-.924-10.506-5.211-14.708-13.447-14.708C1423.992,274.058,1420.041,279.016,1419.285,288.766Z" transform="translate(-1062.529 -251.953)" fill="#45454a"/>
              <path id="Trazado_146" data-name="Trazado 146" d="M1517.392,282.982l-.841-12.691h4.791l1.008,8.825c1.345-3.193,5.463-9.665,16.305-9.665v5.211c-11.85,0-15.044,9.665-15.716,12.607v27.988h-5.547Z" transform="translate(-1118.108 -252.052)" fill="#45454a"/>
              <g id="Grupo_42" data-name="Grupo 42" transform="translate(420.547 10.075)">
                <path id="Trazado_147" data-name="Trazado 147" d="M1566.2,254.127h-1.669v-.572h3.972v.572h-1.669v4.761h-.634Zm2.767-.572h.9l1.685,4.776,1.746-4.776h.881l-.016,5.348h-.6l.046-4.622-1.731,4.622h-.649l-1.7-4.653.046,4.653h-.6Z" transform="translate(-1564.526 -253.555)" fill="#45454a"/>
              </g>
            </g>
            <g id="Grupo_44" data-name="Grupo 44" transform="translate(0 0)">
              <rect id="Rectángulo_48" data-name="Rectángulo 48" width="19.802" height="87.394" rx="9.901" transform="translate(0 8.352) rotate(-24.948)" fill="#178ccd"/>
              <rect id="Rectángulo_49" data-name="Rectángulo 49" width="19.802" height="87.394" rx="9.901" transform="translate(55.978 8.352) rotate(-24.948)" fill="#178ccd"/>
              <rect id="Rectángulo_50" data-name="Rectángulo 50" width="19.802" height="87.394" rx="9.901" transform="translate(83.967 8.352) rotate(-24.948)" fill="#37c3f2"/>
              <circle id="Elipse_4" data-name="Elipse 4" cx="9.952" cy="9.952" r="9.952" transform="translate(3.205 64.479)" fill="#37c3f2"/>
              <rect id="Rectángulo_51" data-name="Rectángulo 51" width="19.802" height="87.394" rx="9.901" transform="translate(27.989 8.352) rotate(-24.948)" fill="#37c3f2"/>
              <circle id="Elipse_5" data-name="Elipse 5" cx="9.952" cy="9.952" r="9.952" transform="translate(115.622 3.257)" fill="#178ccd"/>
            </g>
          </g>
        </g>
      </g>
      <g id="Grupo_139" data-name="Grupo 139" transform="translate(503.001 1379.298)">
        <g id="Wavemaker-2" data-name="Wavemaker" transform="translate(0 0)">
          <g id="Grupo_45-2" data-name="Grupo 45" transform="translate(0 0)">
            <g id="Grupo_43-2" data-name="Grupo 43" transform="translate(147.853 16.305)">
              <path id="Trazado_138-2" data-name="Trazado 138" d="M672.524,316.239h-6.387l-14.372-44.965h5.967l11.515,39.334,11.346-39.334h6.555l11.935,39.418,11.01-39.418h5.967l-13.868,44.965h-6.471l-11.935-39Z" transform="translate(-651.764 -253.036)" fill="#45454a"/>
              <path id="Trazado_139-2" data-name="Trazado 139" d="M828.289,309.134c-2.942,3.866-8.322,7.144-16.558,7.144-11.178,0-15.548-5.127-15.548-13.784,0-11.01,7.4-14.372,18.995-14.372a89.051,89.051,0,0,1,12.607.756c-.168-10.506-1.345-14.54-12.018-14.54-10.926,0-12.691,5.715-12.691,9.665h-5.127c0-5.379,1.765-14.372,17.566-14.372,18.406,0,17.817,9.665,17.817,23.449v10.927l.925,11.262h-5.127Zm-.505-7.648v-7.9a91.012,91.012,0,0,0-11.346-.673c-9.5,0-14.539,2.27-14.539,9.329,0,5.127,2.437,9.161,10.842,9.161C822.321,311.4,827.784,305.6,827.784,301.486Z" transform="translate(-729.643 -252.15)" fill="#45454a"/>
              <path id="Trazado_140-2" data-name="Trazado 140" d="M890.146,271.274l14.036,39.754,14.288-39.754H924.6l-17.482,44.965h-5.967l-17.23-44.965Z" transform="translate(-776.959 -253.036)" fill="#45454a"/>
              <path id="Trazado_141-2" data-name="Trazado 141" d="M994.718,316.081c-14.792,0-19.582-8.825-19.582-23.281s4.79-23.533,19.582-23.533c14.12,0,19.331,7.648,19.331,24.458h-33.2c.168,11.935,3.95,17.482,13.867,17.482,10.59,0,13.364-6.136,13.364-9.413h5.631C1013.713,306.332,1010.856,316.081,994.718,316.081Zm-13.784-27.315h27.231c-.924-10.506-5.211-14.708-13.448-14.708C985.642,274.058,981.691,279.016,980.935,288.766Z" transform="translate(-826.145 -251.953)" fill="#45454a"/>
              <path id="Trazado_142-2" data-name="Trazado 142" d="M1075.394,282.169l-.841-11.683h4.791l.924,7.228c2.1-3.194,6.808-7.9,15.885-7.9,6.556,0,10.842,2.438,12.859,8.657,1.765-3.11,6.556-8.657,16.557-8.657,9.582,0,14.457,5.043,14.457,18.995v26.643h-5.379v-26.9c0-8.825-2.605-13.531-10.674-13.531-7.564,0-11.935,5.3-13.867,8.657a47.5,47.5,0,0,1,.252,5.127v26.643h-5.127v-26.9c0-8.825-2.689-13.531-10.59-13.531-7.48,0-11.767,5.3-13.7,8.657v31.77h-5.547Z" transform="translate(-879.756 -252.248)" fill="#45454a"/>
              <path id="Trazado_143-2" data-name="Trazado 143" d="M1263.175,309.134c-2.942,3.866-8.321,7.144-16.558,7.144-11.178,0-15.548-5.127-15.548-13.784,0-11.01,7.395-14.372,18.995-14.372a89.052,89.052,0,0,1,12.606.756c-.168-10.506-1.345-14.54-12.019-14.54-10.926,0-12.691,5.715-12.691,9.665h-5.126c0-5.379,1.765-14.372,17.566-14.372,18.407,0,17.818,9.665,17.818,23.449v10.927l.925,11.262h-5.126Zm-.5-7.648v-7.9a91.018,91.018,0,0,0-11.346-.673c-9.5,0-14.539,2.27-14.539,9.329,0,5.127,2.437,9.161,10.842,9.161C1257.207,311.4,1262.67,305.6,1262.67,301.486Z" transform="translate(-964.159 -252.15)" fill="#45454a"/>
              <path id="Trazado_144-2" data-name="Trazado 144" d="M1333.77,231.689h5.379v43.2l20.843-24.962h6.388l-14.372,16.809,16.642,28.156h-6.3l-13.868-23.953-9.329,10.926v13.027h-5.379Z" transform="translate(-1019.541 -231.689)" fill="#45454a"/>
              <path id="Trazado_145-2" data-name="Trazado 145" d="M1433.069,316.081c-14.793,0-19.583-8.825-19.583-23.281s4.791-23.533,19.583-23.533c14.119,0,19.33,7.648,19.33,24.458h-33.2c.168,11.935,3.95,17.482,13.868,17.482,10.589,0,13.363-6.136,13.363-9.413h5.631C1452.063,306.332,1449.206,316.081,1433.069,316.081Zm-13.784-27.315h27.231c-.924-10.506-5.211-14.708-13.447-14.708C1423.992,274.058,1420.041,279.016,1419.285,288.766Z" transform="translate(-1062.529 -251.953)" fill="#45454a"/>
              <path id="Trazado_146-2" data-name="Trazado 146" d="M1517.392,282.982l-.841-12.691h4.791l1.008,8.825c1.345-3.193,5.463-9.665,16.305-9.665v5.211c-11.85,0-15.044,9.665-15.716,12.607v27.988h-5.547Z" transform="translate(-1118.108 -252.052)" fill="#45454a"/>
              <g id="Grupo_42-2" data-name="Grupo 42" transform="translate(420.547 10.075)">
                <path id="Trazado_147-2" data-name="Trazado 147" d="M1566.2,254.127h-1.669v-.572h3.972v.572h-1.669v4.761h-.634Zm2.767-.572h.9l1.685,4.776,1.746-4.776h.881l-.016,5.348h-.6l.046-4.622-1.731,4.622h-.649l-1.7-4.653.046,4.653h-.6Z" transform="translate(-1564.526 -253.555)" fill="#45454a"/>
              </g>
            </g>
            <g id="Grupo_44-2" data-name="Grupo 44" transform="translate(0 0)">
              <rect id="Rectángulo_48-2" data-name="Rectángulo 48" width="19.802" height="87.394" rx="9.901" transform="translate(0 8.352) rotate(-24.948)" fill="#178ccd"/>
              <rect id="Rectángulo_49-2" data-name="Rectángulo 49" width="19.802" height="87.394" rx="9.901" transform="translate(55.978 8.352) rotate(-24.948)" fill="#178ccd"/>
              <rect id="Rectángulo_50-2" data-name="Rectángulo 50" width="19.802" height="87.394" rx="9.901" transform="translate(83.967 8.352) rotate(-24.948)" fill="#37c3f2"/>
              <circle id="Elipse_4-2" data-name="Elipse 4" cx="9.952" cy="9.952" r="9.952" transform="translate(3.205 64.479)" fill="#37c3f2"/>
              <rect id="Rectángulo_51-2" data-name="Rectángulo 51" width="19.802" height="87.394" rx="9.901" transform="translate(27.989 8.352) rotate(-24.948)" fill="#37c3f2"/>
              <circle id="Elipse_5-2" data-name="Elipse 5" cx="9.952" cy="9.952" r="9.952" transform="translate(115.622 3.257)" fill="#178ccd"/>
            </g>
          </g>
        </g>
      </g>
    </g>
  </g>
</svg>
