<svg xmlns="http://www.w3.org/2000/svg" xmlns:xlink="http://www.w3.org/1999/xlink" width="50" height="50" viewBox="0 0 50 50"><defs><clipPath id="clip-oceanx-e-comerce-services"><rect width="50" height="50"></rect></clipPath></defs><g id="oceanx-e-comerce-services" clip-path="url(#clip-oceanx-e-comerce-services)"><path id="Trazado_776" data-name="Trazado 776" d="M1390.085,133.958a24.435,24.435,0,1,0,24.435,24.435A24.435,24.435,0,0,0,1390.085,133.958Zm0,4.5a2.489,2.489,0,1,1-2.489,2.489A2.489,2.489,0,0,1,1390.085,138.462Zm0,6.089a2.489,2.489,0,1,1-2.489,2.488A2.489,2.489,0,0,1,1390.085,144.552Zm8.9,27.9a2.489,2.489,0,1,1,2.489-2.489A2.489,2.489,0,0,1,1398.982,172.453Zm7.461-11.571-4.98,0v1.62a2.484,2.484,0,0,1-4.969,0V160.88h-3.923l-.006,13.855a2.485,2.485,0,0,1-4.969,0l.007-13.854h-3.931l0,8.338a2.484,2.484,0,0,1-4.969,0l0-8.337h-4.978a2.484,2.484,0,1,1,0-4.969l4.978,0,0-6.383a2.484,2.484,0,0,1,4.969,0l0,6.381h3.93V154.3a2.484,2.484,0,0,1,4.969,0v1.606h3.923l.005-11.836a2.484,2.484,0,0,1,4.969,0l-.006,11.836h4.98a2.484,2.484,0,0,1,0,4.969Z" transform="translate(-1365.65 -133.218)" fill="#3689a5"></path></g></svg>