<svg xmlns="http://www.w3.org/2000/svg" xmlns:xlink="http://www.w3.org/1999/xlink" width="279" height="276" viewBox="0 0 279 276">
  <defs>
    <clipPath id="clip-ocean-x-oracle-innovation-logo">
      <rect width="279" height="276"/>
    </clipPath>
  </defs>
  <g id="ocean-x-oracle-innovation-logo" clip-path="url(#clip-ocean-x-oracle-innovation-logo)">
    <g id="Grupo_303" data-name="Grupo 303" transform="translate(-2009.923 -536.155)">
      <path id="Trazado_1266" data-name="Trazado 1266" d="M2277.757,684.7c-.036-.007-.07-.016-.106-.022-.125-.02-.244-.007-.368-.021.044-.529.082-1.059.121-1.589.125.005.244.037.371.037.039,0,.077,0,.115-.005a9.337,9.337,0,0,0-.013-18.673c-.034,0-.068-.005-.1-.005-.127,0-.246.033-.371.038-.039-.531-.077-1.061-.121-1.59.124-.014.244,0,.368-.021.029,0,.059-.013.087-.019a9.34,9.34,0,0,0-3.01-18.436l-.006,0c-.115.019-.218.064-.332.087-.121-.517-.233-1.037-.359-1.551.106-.031.211-.037.316-.069l.012,0a9.342,9.342,0,1,0-5.773-17.77,1.64,1.64,0,0,0-.206.09,1.054,1.054,0,0,1-.1.045c-.2-.491-.379-.993-.584-1.48a.478.478,0,0,1,.049-.019c.08-.032.16-.053.238-.093a9.342,9.342,0,0,0-8.483-16.648c-.1.05-.177.122-.272.175-.276-.455-.572-.894-.852-1.345.1-.066.2-.1.3-.175a9.342,9.342,0,1,0-10.982-15.116c-.1.073-.174.166-.271.241-.343-.406-.7-.8-1.043-1.2.093-.085.2-.146.29-.237a9.342,9.342,0,0,0-13.212-13.211c-.089.09-.15.2-.236.288-.4-.347-.8-.7-1.2-1.043.075-.1.168-.169.24-.27a9.342,9.342,0,1,0-15.115-10.982c-.07.1-.111.2-.175.3-.451-.281-.891-.577-1.346-.852.053-.1.126-.174.175-.272a9.342,9.342,0,1,0-16.647-8.483c-.047.094-.068.192-.111.287-.489-.207-.991-.385-1.481-.585.04-.106.1-.2.135-.306a9.342,9.342,0,1,0-17.77-5.775c-.035.109-.04.22-.071.329-.515-.127-1.035-.238-1.551-.358.022-.116.07-.221.089-.339a9.343,9.343,0,0,0-18.456-2.922c-.018.125-.006.245-.021.368-.529-.045-1.059-.083-1.588-.121,0-.126.037-.244.037-.37a9.342,9.342,0,1,0-18.684,0c0,.127.033.245.038.37-.531.038-1.061.077-1.589.121-.016-.123,0-.244-.021-.368a9.342,9.342,0,0,0-18.455,2.922c.019.118.066.223.089.339-.516.12-1.037.232-1.551.358-.032-.109-.036-.22-.072-.329a9.342,9.342,0,0,0-17.77,5.775c.036.108.1.2.136.306-.491.2-.993.379-1.48.585-.044-.1-.064-.193-.112-.287a9.342,9.342,0,0,0-16.648,8.483c.051.1.123.176.176.272-.455.275-.894.571-1.345.852-.065-.1-.1-.2-.175-.3a9.342,9.342,0,1,0-15.116,10.982c.073.1.166.175.241.27-.406.343-.8.7-1.2,1.043-.085-.092-.146-.2-.235-.288a9.342,9.342,0,0,0-13.213,13.211c.091.091.2.152.289.237-.346.4-.7.8-1.042,1.2-.1-.075-.171-.168-.271-.241a9.342,9.342,0,1,0-10.982,15.116c.1.07.2.109.3.175-.281.451-.576.89-.851,1.345-.1-.052-.174-.125-.272-.175a9.342,9.342,0,0,0-8.483,16.648c.094.047.192.068.287.111-.206.487-.384.99-.584,1.48-.106-.038-.2-.1-.307-.134a9.342,9.342,0,0,0-5.774,17.77c.109.035.219.04.329.071-.127.515-.239,1.034-.358,1.551-.116-.023-.221-.071-.339-.09a9.342,9.342,0,0,0-2.922,18.455c.125.02.245.007.368.021q-.066.793-.121,1.59c-.126-.005-.244-.038-.37-.038a9.342,9.342,0,1,0,0,18.684c.127,0,.245-.032.37-.037q.057.8.121,1.589c-.124.014-.244,0-.368.021a9.342,9.342,0,1,0,2.922,18.454c.118-.018.223-.065.339-.088.119.517.231,1.037.358,1.551-.109.031-.22.036-.329.071a9.342,9.342,0,0,0,5.774,17.77c.109-.035.2-.1.307-.134.2.491.378.992.584,1.48-.095.044-.193.064-.287.112a9.342,9.342,0,0,0,8.483,16.648c.1-.05.177-.122.272-.175.275.453.57.894.851,1.345-.1.064-.2.1-.3.175A9.342,9.342,0,0,0,2050.346,757c.1-.073.174-.166.271-.241.342.405.695.8,1.042,1.2-.093.085-.2.146-.289.236a9.343,9.343,0,0,0,13.213,13.212c.089-.09.149-.2.235-.29.4.347.8.7,1.2,1.043-.075.1-.168.17-.241.271a9.342,9.342,0,1,0,15.116,10.982c.07-.1.109-.2.175-.3.451.281.891.577,1.345.852-.053.1-.125.174-.176.272a9.342,9.342,0,0,0,16.648,8.483c.047-.094.068-.193.112-.287.488.205.99.383,1.48.583-.04.107-.1.2-.136.307a9.342,9.342,0,1,0,17.77,5.773c.036-.108.041-.218.072-.328.515.127,1.035.238,1.551.358-.023.116-.071.22-.089.338a9.342,9.342,0,0,0,18.455,2.923c.02-.125.005-.245.021-.368q.792.065,1.589.12c-.005.127-.038.245-.038.371a9.342,9.342,0,1,0,18.684,0c0-.127-.033-.245-.037-.371q.795-.055,1.588-.12c.015.123,0,.244.021.368a9.343,9.343,0,0,0,18.456-2.923c-.019-.118-.067-.222-.089-.338.517-.12,1.037-.232,1.551-.358.031.109.036.22.071.328a9.342,9.342,0,1,0,17.77-5.773c-.035-.108-.1-.2-.135-.307.49-.2.993-.378,1.481-.583.043.094.064.193.111.287a9.342,9.342,0,1,0,16.647-8.483c-.049-.1-.122-.177-.175-.272.455-.275.895-.571,1.346-.852.064.1.1.2.175.3a9.342,9.342,0,1,0,15.115-10.982c-.072-.1-.165-.175-.24-.271.405-.343.8-.7,1.2-1.043.086.093.147.2.236.29a9.343,9.343,0,1,0,13.212-13.212c-.09-.09-.2-.151-.29-.236.348-.4.7-.8,1.043-1.2.1.075.17.168.271.241a9.342,9.342,0,1,0,10.982-15.116c-.1-.07-.2-.11-.3-.175.28-.451.576-.891.852-1.345.095.052.174.125.272.175a9.342,9.342,0,0,0,8.483-16.648,1.227,1.227,0,0,0-.162-.063c-.042-.014-.084-.029-.125-.048.207-.488.383-.99.584-1.48a1.6,1.6,0,0,1,.174.076,1.038,1.038,0,0,0,.132.058,9.341,9.341,0,0,0,5.809-17.757c-.012,0-.023-.009-.035-.013-.108-.035-.218-.04-.328-.071.126-.515.238-1.034.359-1.551.116.023.221.07.338.088.014,0,.028,0,.042.005a9.339,9.339,0,0,0,2.987-18.437ZM2149.02,800.525A126.766,126.766,0,1,1,2275.786,673.76,126.909,126.909,0,0,1,2149.02,800.525Z" fill="#fff"/>
      <path id="Trazado_1267" data-name="Trazado 1267" d="M2147.784,549.035a123.488,123.488,0,1,0,123.488,123.489A123.63,123.63,0,0,0,2147.784,549.035Zm0,243.38a119.891,119.891,0,1,1,119.891-119.891A120.027,120.027,0,0,1,2147.784,792.415Z" transform="translate(1.236 1.236)" fill="#fff"/>
      <g id="Grupo_300" data-name="Grupo 300" transform="translate(2030.221 554.961)">
        <path id="Trazado_1270" data-name="Trazado 1270" d="M2073.173,688.077l-2.877,7.341h5.771Z" transform="translate(-2024.732 -540.87)" fill="#fff"/>
        <path id="Trazado_1271" data-name="Trazado 1271" d="M2163.676,624.441c1.8,0,3.144-.7,3.144-1.746,0-1.162-1.921-1.774-3.144-1.921-1.252.146-3.142.758-3.142,1.921C2160.534,623.743,2161.813,624.441,2163.676,624.441Z" transform="translate(-2016.389 -547.092)" fill="#fff"/>
        <path id="Trazado_1272" data-name="Trazado 1272" d="M2060.168,653.631c2.415.046,4.833.009,7.25.009v0c2.452,0,4.907.072,7.355-.018a8.208,8.208,0,0,0,6.035-13.447,8.155,8.155,0,0,0-6.665-3q-6.707-.01-13.415.006a11.522,11.522,0,0,0-1.827.168,8.2,8.2,0,0,0-6.514,10.1A8.107,8.107,0,0,0,2060.168,653.631Z" transform="translate(-2026.412 -545.576)" fill="#fff"/>
        <path id="Trazado_1273" data-name="Trazado 1273" d="M2131.49,625.079c2.329,0,3.259-2.182,3.259-5.615s-.93-5.587-3.259-5.587-3.259,2.153-3.259,5.587S2129.161,625.079,2131.49,625.079Z" transform="translate(-2019.375 -547.73)" fill="#fff"/>
        <path id="Trazado_1274" data-name="Trazado 1274" d="M2057.231,705.28h-2.223v7.483h2.2a3.61,3.61,0,0,0,3.773-3.752A3.482,3.482,0,0,0,2057.231,705.28Z" transform="translate(-2026.145 -539.279)" fill="#fff"/>
        <path id="Trazado_1275" data-name="Trazado 1275" d="M2067.823,710.771h3.446l-1.711-5.118Z" transform="translate(-2024.961 -539.245)" fill="#fff"/>
        <path id="Trazado_1276" data-name="Trazado 1276" d="M2098.037,695.418h5.771l-2.9-7.341Z" transform="translate(-2022.167 -540.87)" fill="#fff"/>
        <path id="Trazado_1277" data-name="Trazado 1277" d="M2088.009,710.771h3.446l-1.712-5.118Z" transform="translate(-2023.094 -539.245)" fill="#fff"/>
        <path id="Trazado_1278" data-name="Trazado 1278" d="M2203.948,687.871h-3.568v5.2h3.568a2.56,2.56,0,0,0,2.732-2.61A2.534,2.534,0,0,0,2203.948,687.871Z" transform="translate(-2012.705 -540.889)" fill="#fff"/>
        <path id="Trazado_1279" data-name="Trazado 1279" d="M2195.749,666.243c-3.841,0-6.354,2.932-6.354,6.739,0,3.77,2.514,6.739,6.354,6.739s6.322-2.969,6.322-6.739C2202.07,669.175,2199.59,666.243,2195.749,666.243Z" transform="translate(-2013.721 -542.888)" fill="#fff"/>
        <path id="Trazado_1280" data-name="Trazado 1280" d="M2148.2,675.935h5.9l-2.934-8.766Z" transform="translate(-2017.529 -542.803)" fill="#fff"/>
        <path id="Trazado_1281" data-name="Trazado 1281" d="M2163.649,617.194c1.194-.174,2.794-.727,2.794-1.716,0-1.019-1.106-1.6-2.794-1.6s-2.821.581-2.821,1.6C2160.828,616.467,2162.457,617.02,2163.649,617.194Z" transform="translate(-2016.362 -547.73)" fill="#fff"/>
        <path id="Trazado_1282" data-name="Trazado 1282" d="M2119.909,710.771h3.446l-1.711-5.118Z" transform="translate(-2020.145 -539.245)" fill="#fff"/>
        <path id="Trazado_1283" data-name="Trazado 1283" d="M2113.752,687.871h-3.569v5.2h3.569a2.561,2.561,0,0,0,2.732-2.61A2.534,2.534,0,0,0,2113.752,687.871Z" transform="translate(-2021.044 -540.889)" fill="#fff"/>
        <path id="Trazado_1284" data-name="Trazado 1284" d="M2130.093,693.174a4.974,4.974,0,0,0-5.219-5.3h-2.958v10.584h2.958A5,5,0,0,0,2130.093,693.174Z" transform="translate(-2019.959 -540.889)" fill="#fff"/>
        <path id="Trazado_1285" data-name="Trazado 1285" d="M2147.387,553.328a118.8,118.8,0,1,0,118.8,118.8A118.934,118.934,0,0,0,2147.387,553.328Zm42.428,87.179h4.8V661.37c1.338.117,2.588.043,3.833.056,1.262.013,2.527,0,3.79,0h15.142a9.637,9.637,0,0,1-1.3,2.268c-.444.74-.928,1.454-1.429,2.234H2193a8.769,8.769,0,0,1-.974-.025,2.407,2.407,0,0,1-2.2-2.284c-.016-.251-.012-.5-.012-.757V640.507Zm34.625,71.9h-2L2219,707h-2.733v5.4h-1.694V698.8h5.464a3.98,3.98,0,0,1,4.285,4.1,3.773,3.773,0,0,1-3.549,3.955Zm-13.824-16.933c-7.125,0-12.467-4.959-12.467-12.048s5.342-12.047,12.467-12.047,12.431,4.958,12.431,12.047S2217.739,695.47,2210.616,695.47Zm.72,9.225v1.51h-7.074v4.69h7.218V712.4h-8.913V698.8h8.913v1.509h-7.218v4.384Zm-14.276-32.935V695.05h-6.005V671.759Zm-29.106,23.291L2166.8,691.7h-9.184l-1.151,3.353h-6.81l8.766-23.291H2166l8.762,23.291Zm1.355,3.751v13.6h-1.694V698.8ZM2125.9,712.4h-2l-3.446-5.4h-2.733v5.4h-1.694V698.8h5.466a3.98,3.98,0,0,1,4.284,4.1,3.773,3.773,0,0,1-3.548,3.955Zm-7.526-16.933c-7.125,0-12.467-4.959-12.467-12.048s5.342-12.047,12.467-12.047,12.431,4.958,12.431,12.047S2125.5,695.47,2118.378,695.47Zm22.533-49.607q-6.342,10.06-12.629,20.033h-5.661c.162-.31.268-.557.411-.782q7.291-11.445,14.589-22.885a3.679,3.679,0,0,1,4.207-1.893,3.843,3.843,0,0,1,2.408,1.865c1.831,2.894,3.68,5.775,5.524,8.66q4.452,6.973,8.9,13.944c.211.33.4.671.649,1.079h-5.741q-1.322-2.178-2.679-4.409h-13.207l-2.866-4.449a18.318,18.318,0,0,1,3.235-.1c1.047-.026,2.093-.005,3.139-.005h6.388C2147.361,656.047,2142.706,648.36,2140.911,645.862ZM2128.85,698.8h4.652a6.8,6.8,0,1,1,0,13.6h-4.652Zm8.681-3.751-8.766-23.291h6.809l5.76,16.8,5.727-16.8h6.81l-8.764,23.291Zm27.81,3.751-3.892,13.6h-1.837l-3-10.97-3,10.97h-1.836l-3.875-13.6h1.876l3.021,11.337,3.119-11.337h1.407l3.119,11.337,3-11.337Zm7.552,0h1.734l7.831,10.624V698.8h1.691v13.6h-1.629l-7.932-10.848V712.4h-1.695ZM2183.608,677V695.05H2177.6V677h-6.53v-5.237h19.03V677Zm3.52-36.48c-.983,1.531-1.892,2.943-2.834,4.408h-1.183q-6.443,0-12.888,0a8.137,8.137,0,0,0-6.379,2.691,7.831,7.831,0,0,0-1.548,8.654,7.617,7.617,0,0,0,7.26,5.085c5.521.112,11.047.037,16.571.042h1.377c-.535.85-.994,1.588-1.462,2.321s-.938,1.448-1.4,2.158c-.195.014-.338.034-.48.034-4.91,0-9.821.064-14.729-.023a12.2,12.2,0,0,1-10.633-6.018,12.682,12.682,0,0,1,7.9-19.067,13.133,13.133,0,0,1,2.892-.34c5.523-.032,11.047-.016,16.57-.013C2186.434,640.452,2186.706,640.487,2187.128,640.516Zm-3.338-20.285c0,2.329-1.54,3.725-3.637,4.511,2.27.873,3.958,2.678,3.958,4.889,0,3.782-4.045,5.471-8.236,5.471s-8.235-1.659-8.235-5.471c0-2.211,1.689-4.016,3.929-4.889-2.067-.785-3.607-2.182-3.607-4.511,0-3.753,4.131-5.179,7.913-5.179S2183.79,616.478,2183.79,620.231Zm-19.495-41.158,4.351,2.513,3.734-3.363-1.044,4.915,4.351,2.513-5,.526-1.044,4.915L2167.6,586.5l-5,.526,3.735-3.363Zm-1.2,36.27v19.41h-5.007V621.744l-3.259,3.288-2.851-3,6.781-6.693Zm-17.925-37.1,2.234-6.875,2.234,6.875h7.229l-5.849,4.249,2.234,6.875-5.848-4.248-5.848,4.248,2.234-6.875-5.848-4.249Zm-4.466,36.813c5.675,0,8.322,4.888,8.322,10.01s-2.647,10.04-8.322,10.04-8.323-4.919-8.323-10.04S2135.028,615.052,2140.7,615.052Zm-18.277-36.829,3.734,3.363,4.351-2.513-2.043,4.591,3.734,3.363-5-.526-2.043,4.591-1.045-4.915-5-.526,4.351-2.513Zm-2.016,36.829c4.57,0,7.859,2.561,7.859,6.43,0,3-2.124,5.529-6.954,8.906h7.1v4.364H2113.2v-3.9c8.41-6.082,9.982-7.419,9.982-9.37,0-1.309-1.251-2.007-2.678-2.007a7.254,7.254,0,0,0-5.18,2.124l-2.764-3.317A10.7,10.7,0,0,1,2120.411,615.052Zm-28.046,25.421c.266-.027.508-.073.75-.073q10.074,0,20.146,0a8.834,8.834,0,0,1,6.559,2.58,8.513,8.513,0,0,1,1.854,9.308,8.409,8.409,0,0,1-7.815,5.381c-.712.038-1.43.005-2.4.005,3.325,2.791,6.462,5.427,9.727,8.169h-7.107c-4.7-4.112-9.5-8.312-14.5-12.7h1.158q6.064,0,12.131-.005a6.306,6.306,0,0,0,1.5-.131,4.088,4.088,0,0,0,3.109-4.364,4.182,4.182,0,0,0-3.877-3.729c-.251-.017-.5-.01-.757-.01q-7.258,0-14.514,0c-.35,0-.7.03-1.126.048v20.892h-4.83ZM2075.989,698.8h2.1l5.468,13.6h-1.939l-1.2-3.038h-6.769l-1.2,3.038H2070.5Zm-10.748-17.23V695.05h-6V671.759h6.181l9.428,12.815V671.759h6.039V695.05h-5.794Zm18.222,17.23h1.877l3.019,11.337,3.119-11.337h1.407L2096,710.139l3-11.337h1.9l-3.892,13.6h-1.836l-3-10.97-3,10.97h-1.837Zm15.559-3.751-9.85-13.479V695.05h-6V671.759h6.181l9.429,12.815V671.759h6.039V695.05Zm-39.788-54.231a13.445,13.445,0,0,1,3-.354q7.366-.052,14.733-.009a12.714,12.714,0,0,1,3.374,24.979,15.237,15.237,0,0,1-3.416.457c-2.454.068-4.909.021-7.366.021-2.419,0-4.839.014-7.257,0a12.719,12.719,0,0,1-3.065-25.091Zm-8.277,30.939h6.005V695.05h-6.005Zm8.718,58.112h-5.732v-13.6h5.709c4.285,0,7.361,2.568,7.361,6.79S2063.935,729.871,2059.674,729.871Zm16.855,0-.671-1.957h-5.365l-.671,1.957h-3.978l5.117-13.6h4.428l5.117,13.6Zm9.434,0h-3.506V719.329h-3.814v-3.058h11.113v3.058h-3.793Zm12.618,0-.671-1.957h-5.365l-.671,1.957H2087.9l5.119-13.6h4.427l5.117,13.6Zm4.166-17.468h-1.936l5.484-13.6h2.1l5.468,13.6h-1.939l-1.2-3.038h-6.77Zm11.342,17.468-3.446-8.993v8.993h-3.509v-13.6h4.873l2.855,7.5,2.834-7.5h4.874v13.6h-3.507v-8.993l-3.425,8.993Zm12.9,34.147-1.044,4.915-2.044-4.59-5,.525,3.735-3.363-2.044-4.591,4.351,2.513,3.734-3.363-1.045,4.915,4.352,2.513Zm6.439-34.147-.674-1.957h-5.363l-.671,1.957h-3.977l5.118-13.6h4.427l5.118,13.6Zm4.15-13.6h3.612l5.5,7.483v-7.483h3.528v13.6h-3.385L2141.09,722v7.871h-3.509Zm15.67,56.4-5.848-4.25-5.848,4.25,2.234-6.875-5.848-4.248h7.228l2.234-6.875,2.234,6.875h7.229l-5.849,4.248Zm7.165-44.752h-5.365l-.671,1.957H2150.4l5.118-13.6h4.427l5.118,13.6h-3.978Zm10.487,36.428-2.043,4.59-1.046-4.915-5-.525,4.351-2.513-1.044-4.915,3.734,3.363,4.352-2.513-2.043,4.591,3.734,3.363Zm6.368-36.878a7.82,7.82,0,0,1-6.014,2.651c-4.06,0-7.365-2.713-7.365-7.034s3.3-7.035,7.365-7.035a6.339,6.339,0,0,1,5.808,3.3l-2.934,1.528a3.375,3.375,0,0,0-2.874-1.733,3.938,3.938,0,0,0,0,7.871,4.308,4.308,0,0,0,2.508-.816v-1.06h-3.06v-3.08h6.566Zm11.205-8.135h-6.463v2.12h6.32v3.06h-6.32v2.3h6.463v3.059H2178.5v-13.6h9.972Zm.946-6.926h-1.694V698.8h1.735l7.83,10.624V698.8h1.692v13.6h-1.629l-7.934-10.848Zm15.706,17.468h-3.506v-8.993l-3.426,8.993h-1.549l-3.447-8.993v8.993h-3.508v-13.6h4.872l2.855,7.5,2.835-7.5h4.874Zm11.6-10.542h-6.463v2.12h6.321v3.06h-6.321v2.3h6.463v3.059h-9.972v-13.6h9.972Zm13.861,10.542H2227.2L2221.449,722v7.871h-3.508v-13.6h3.61l5.505,7.483v-7.483h3.528Zm11.961-10.542h-3.793v10.542h-3.506V719.329h-3.812v-3.058h11.111Zm3.277-24.279h-5.794l-9.848-13.479V695.05h-6.005V671.759h6.181l9.428,12.815V671.759h6.039Zm-1.592-29.214a3.383,3.383,0,0,1-.436.058c-4.982,0-9.966.084-14.946-.031a12.234,12.234,0,0,1-10.607-6.075,12.68,12.68,0,0,1,7.785-18.974,13.719,13.719,0,0,1,3.1-.394c5.632-.039,11.264-.022,16.9-.021.167,0,.334.029.628.057l-2.831,4.45h-1.136c-4.405,0-8.81-.038-13.214.014a8.033,8.033,0,0,0-7.2,4.22,16.487,16.487,0,0,0-.78,1.8h23.829l-2.924,4.541h-20.812a9.984,9.984,0,0,0,.389,1.1,7.955,7.955,0,0,0,7.481,4.8c5.559.03,11.12,0,16.678,0h.933C2246.072,662.94,2245.155,664.382,2244.232,665.836Zm7.362-19.794a2.861,2.861,0,1,1,0-5.72,2.861,2.861,0,1,1,0,5.72Z" transform="translate(-2028.588 -553.328)" fill="#fff"/>
        <path id="Trazado_1286" data-name="Trazado 1286" d="M2111.317,666.243c-3.842,0-6.355,2.932-6.355,6.739,0,3.77,2.513,6.739,6.355,6.739s6.321-2.969,6.321-6.739C2117.637,669.175,2115.158,666.243,2111.317,666.243Z" transform="translate(-2021.527 -542.888)" fill="#fff"/>
        <path id="Trazado_1287" data-name="Trazado 1287" d="M2232.689,634.673a1.556,1.556,0,0,0-.364.035v.814h.311c.364,0,.658-.121.658-.415C2233.295,634.847,2233.1,634.673,2232.689,634.673Z" transform="translate(-2009.751 -545.807)" fill="#fff"/>
        <path id="Trazado_1288" data-name="Trazado 1288" d="M2145.225,710.771h3.446l-1.712-5.118Z" transform="translate(-2017.804 -539.245)" fill="#fff"/>
        <path id="Trazado_1289" data-name="Trazado 1289" d="M2232.907,633.483a2.272,2.272,0,0,0,.018,4.542,2.177,2.177,0,0,0,2.166-2.254A2.2,2.2,0,0,0,2232.907,633.483Zm.677,3.761a2.376,2.376,0,0,1-.225-.694c-.053-.311-.226-.45-.59-.45h-.312v1.144h-.658V634.4a5.706,5.706,0,0,1,1.092-.086,1.778,1.778,0,0,1,.989.208.791.791,0,0,1,.277.624.728.728,0,0,1-.589.659v.035a.838.838,0,0,1,.521.693,2.172,2.172,0,0,0,.207.711Z" transform="translate(-2009.901 -545.917)" fill="#fff"/>
      </g>
    </g>
  </g>
</svg>
