<svg xmlns="http://www.w3.org/2000/svg" xmlns:xlink="http://www.w3.org/1999/xlink" width="489" height="110" viewBox="0 0 489 110">
  <defs>
    <clipPath id="clip-ocean-x-featured-intechweek-logo">
      <rect width="489" height="110"/>
    </clipPath>
  </defs>
  <g id="ocean-x-featured-intechweek-logo" clip-path="url(#clip-ocean-x-featured-intechweek-logo)">
    <g id="Grupo_304" data-name="Grupo 304" transform="translate(-1738.281 -334.604)">
      <g id="Grupo_294" data-name="Grupo 294">
        <path id="Trazado_1213" data-name="Trazado 1213" d="M1976.921,420.58c.831-2.734,1.674-5.465,2.489-8.2,1.389-4.673,2.786-9.344,4.128-14.03.579-2.023,1.014-4.087,1.55-6.123a14.518,14.518,0,0,1,.82-2.456,3.336,3.336,0,0,1,3.154-2.134c3.467-.011,6.934-.022,10.4-.012a3.655,3.655,0,0,1,3.792,2.928c1.205,4.252,2.369,8.516,3.573,12.768,1.044,3.684,2.117,7.36,3.183,11.038.6,2.071,1.215,4.139,1.932,6.577.666-.626,1.357-.965,1.511-1.468,1.618-5.292,3.125-10.619,4.715-15.92,1.209-4.029,2.537-8.022,3.73-12.055.774-2.619,2.38-4.124,5.517-3.916,3.069.2,6.162.01,9.244.057,2.672.041,3.331.823,2.61,3.347-.866,3.035-1.919,6.017-2.906,9.017-1.344,4.084-2.668,8.174-4.063,12.24-1.231,3.592-2.571,7.147-3.821,10.733-.908,2.6-1.726,5.242-2.621,7.853-1.106,3.228-2.207,6.46-3.4,9.658a3.4,3.4,0,0,1-3.424,2.187c-3.746-.023-7.492-.2-11.238-.308-2.874-.081-3.539-.687-4.205-3.6-.318-1.392-.811-2.743-1.222-4.114-1.676-5.583-3.385-11.157-5.006-16.757-.556-1.922-.885-3.91-1.33-5.865a2.6,2.6,0,0,0-.361-1.08c-.343-.406-.835-.962-1.255-.954a1.8,1.8,0,0,0-1.257.968,12.51,12.51,0,0,0-1.178,3.53c-.418,3.531-1.868,6.779-2.624,10.215-.425,1.932-1.287,3.764-1.863,5.668-.524,1.73-.916,3.5-1.387,5.245-.273,1.01-.538,2.026-.89,3.01-1.331,3.726-1.344,3.688-5.325,3.745-3.264.046-6.527.173-9.79.291a4.083,4.083,0,0,1-3.9-2.456c-.8-2.047-1.488-4.135-2.217-6.208-1.39-3.947-2.832-7.877-4.145-11.849-1.323-4-2.438-8.073-3.788-12.066-1.564-4.627-3.318-9.191-4.923-13.805a44.165,44.165,0,0,1-1.675-5.8c-.412-2.06.295-2.807,2.461-2.839,3.467-.052,6.935,0,10.4-.023a4.118,4.118,0,0,1,4.332,3.1q1.35,4.249,2.6,8.529c.866,2.945,1.646,5.914,2.523,8.856q1.6,5.369,3.318,10.7a10.386,10.386,0,0,0,1.064,1.877Z" fill="#fff"/>
        <path id="Trazado_1214" data-name="Trazado 1214" d="M1894.425,404.793q0-16.47,0-32.938a15.413,15.413,0,0,1,.017-1.733,2.88,2.88,0,0,1,3-2.853c3.658-.072,7.32-.079,10.977,0,1.831.042,2.305.533,2.683,2.4a14.882,14.882,0,0,1,.215,2.865c.019,5.393.01,10.787.012,16.18,0,.674-.04,1.354.027,2.021.152,1.509.989,1.991,2.388,1.336a9.2,9.2,0,0,0,1.664-1.129c8.681-6.739,20.776-5.592,28.136-.7a13.581,13.581,0,0,1,4.339,5.251,17.663,17.663,0,0,1,1.93,5.636c1.2,7.369.707,14.779.9,22.168.13,5,.043,10.016.019,15.024-.013,2.875-1.5,4.4-4.413,4.476-2.7.07-5.4.1-8.089,0-3.742-.135-4.705-1.794-4.668-4.786q.164-13.143.14-26.287a34.608,34.608,0,0,0-.495-5.731,8.872,8.872,0,0,0-7.826-7.653c-5.114-.823-10.381,1.567-12.537,6.243a18.346,18.346,0,0,0-1.448,7.244c-.121,8.374.055,16.753.08,25.13a20.43,20.43,0,0,1-.345,3.117,3.105,3.105,0,0,1-3.246,2.683c-3.364.143-6.744.15-10.108,0-2.194-.1-3.42-1.72-3.42-4.165,0-8.571.042-17.142.064-25.713C1894.431,410.186,1894.425,407.489,1894.425,404.793Z" fill="#fff"/>
        <path id="Trazado_1215" data-name="Trazado 1215" d="M2202.022,403.886c-.664,2.723-.665,22.228-.034,24.9.87.05,1.8.145,2.741.15,2.985.017,5.97-.035,8.955.008,1.717.025,2.137.376,2.169,1.982.069,3.465.02,6.932.032,10.4,0,1.091-.542,1.568-1.6,1.568-3.755,0-7.51.017-11.266,0-.761,0-1.521-.111-2.577-.194-.364-4.125.063-8.235-.263-12.6-8.781-.1-17.38-.026-26.214-.054-.293,2.951-.124,5.623-.149,8.285a4.457,4.457,0,0,1-.667,2.716,3.551,3.551,0,0,1-3.331,1.8c-2.886-.088-5.778.018-8.665-.042-2.828-.059-4.056-1.279-4.059-4.054q-.019-25.854.017-51.708c.012-5.386.175-10.771.259-16.157.045-2.933.792-3.76,3.748-3.831,2.791-.067,5.585-.054,8.377,0,3.279.059,4.164,1.016,4.177,4.43q.072,19.929.125,39.859c0,1.419,0,2.838,0,4.435,1.157.092,1.992.208,2.828.217,2.407.026,4.815.039,7.222,0,2.266-.037,2.5-.268,2.533-2.466.035-2.407,0-4.814,0-7.222,0-.859,0-1.717,0-2.656,2.347-.916,4.666-.374,6.924-.468,2.19-.092,4.386-.02,6.75-.02.1-.982.233-1.715.238-2.448.024-3.081-.029-6.164.023-9.244.029-1.708.335-2.049,2.047-2.078,3.851-.065,7.7-.055,11.555-.008,1.662.021,1.91.249,1.934,1.81.055,3.562.061,7.126,0,10.688-.028,1.587-.451,1.953-2.17,1.991-2.7.058-5.392.016-8.088.017Z" fill="#fff"/>
        <path id="Trazado_1216" data-name="Trazado 1216" d="M2072.409,419.113c-5.391,0-10.787.149-16.171-.052-3.72-.138-4.749,1.1-3.532,5.116a11.316,11.316,0,0,0,10.419,7.812c3.046.1,6.146.514,9.076-.939a13.248,13.248,0,0,0,4.4-3.143,7.476,7.476,0,0,1,6.562-2.9c1.914.147,3.85-.014,5.774.039,2.961.082,3.788,1.267,2.869,4.079a18.079,18.079,0,0,1-4.627,6.839c-3.644,3.75-8.189,5.68-13.191,7.094-4.794,1.355-9.579,1.066-14.308.715a25.725,25.725,0,0,1-11.028-3.8c-4.161-2.476-7.88-5.52-10.127-9.948a23.885,23.885,0,0,1-2.4-6.088c-.559-2.9-1.562-5.717-1.406-8.779.391-7.66,2.868-14.423,8.3-19.914a29.659,29.659,0,0,1,21.136-8.975,31.54,31.54,0,0,1,15.581,3.338,27.405,27.405,0,0,1,13.039,14.8,28.179,28.179,0,0,1,1.527,11.847,2.023,2.023,0,0,1-1.505,2.149,14.863,14.863,0,0,1-3.632.673c-5.583.071-11.167.031-16.751.031Zm-7.437-9.868v-.2c.769,0,1.538-.016,2.306,0,2.208.056,4.415.187,6.622.172,2.278-.016,3.122-1.028,2.868-3.286a4.44,4.44,0,0,0-.436-1.659c-1.613-2.845-3.8-5.163-7.028-6.014a25.671,25.671,0,0,0-5.433-.453c-4.583-.185-7.889,2.165-10.415,5.663-2.5,3.464-1.421,5.485,2.876,5.75.671.042,1.345.022,2.018.023Q2061.659,409.247,2064.972,409.245Z" fill="#fff"/>
        <path id="Trazado_1217" data-name="Trazado 1217" d="M1810.595,419.03c-5.4,0-10.79-.019-16.185.007-3.236.015-4.3,1.6-3.191,4.64a11.909,11.909,0,0,0,11.808,8.366c2.763.02,5.636.462,8.164-1.125a27.519,27.519,0,0,0,4.657-3.326,7.709,7.709,0,0,1,5.907-2.47c2.117.07,4.242-.046,6.356.069,2.471.133,3.013.947,2.49,3.291-.839,3.757-3.281,6.478-6.024,8.882-3.451,3.025-7.656,4.538-12.067,5.764a35.324,35.324,0,0,1-14.327.607,29.474,29.474,0,0,1-16.1-7.652c-3.468-3.182-5.416-7.1-6.835-11.463-1.527-4.7-1.514-9.508-1.077-14.294a23.334,23.334,0,0,1,3.615-9.924,29.891,29.891,0,0,1,23.26-14.032,37.393,37.393,0,0,1,11.178.835q15.52,4.187,19.919,19.589a41.85,41.85,0,0,1,1.033,7.415,9.287,9.287,0,0,1-.42,2.538,2.139,2.139,0,0,1-1.971,1.825,39.948,39.948,0,0,1-4.581.438C1821,419.063,1815.8,419.03,1810.595,419.03Zm-7.129-9.986c3.265,0,6.531.051,9.8-.017,2.229-.046,3.423-1.528,2.593-3.352a13.2,13.2,0,0,0-5.266-6.292c-3.663-2.13-7.6-1.993-11.465-1.127-2.755.618-4.856,2.646-6.6,4.853a6.835,6.835,0,0,0-1.133,2.612c-.535,2.236.276,3.274,2.57,3.31C1797.126,409.081,1800.3,409.044,1803.466,409.044Z" fill="#fff"/>
        <path id="Trazado_1218" data-name="Trazado 1218" d="M2133.947,419.113c-5.68,0-11.36-.013-17.04.005-2.717.008-3.438.782-3.124,3.463.456,3.9,2.953,6.343,6.146,8.187a9.643,9.643,0,0,0,5.5,1.3c2.109-.131,4.284.108,6.321-.324a11.635,11.635,0,0,0,6.492-4.022,7.016,7.016,0,0,1,6.328-2.715c1.722.138,3.464.022,5.2.03a10.816,10.816,0,0,1,1.729.068c1.83.311,2.507,1.572,1.854,3.338-2.419,6.549-7.187,10.668-13.5,13.3a35.761,35.761,0,0,1-18.966,2.005,28.9,28.9,0,0,1-16.7-8.179,26.786,26.786,0,0,1-6.948-12.955,35.406,35.406,0,0,1-.519-12.884,23.1,23.1,0,0,1,5.869-12.567,30.99,30.99,0,0,1,11.707-8.592,29.4,29.4,0,0,1,9.489-2.232,34.953,34.953,0,0,1,16.044,2.632,25.211,25.211,0,0,1,12.351,11.1,31.043,31.043,0,0,1,3.779,14.291c.128,3.283-1.307,4.679-4.684,4.714-5.776.06-11.552.017-17.329.017Zm-7.908-9.875c2.791,0,5.582.017,8.372-.012a7.369,7.369,0,0,0,2.271-.259c1.817-.619,2.439-1.993,1.467-3.633-1.513-2.551-3.214-4.9-6.017-6.38-2.228-1.18-4.473-.878-6.743-.989-4.966-.243-8.368,2.341-10.9,6.272-1.639,2.543-.371,4.856,2.6,5,.48.023.963,0,1.444,0Z" fill="#fff"/>
        <path id="Trazado_1219" data-name="Trazado 1219" d="M1864.347,443.976c-7.4.428-14.035-2.035-19.947-6.432a22.617,22.617,0,0,1-8.586-13.25,40.52,40.52,0,0,1-1.082-10.848c.316-11.481,5.681-19.563,16.133-24.385,7.132-3.289,14.493-3.278,22.017-2.089a28.9,28.9,0,0,1,8.93,3.086c5.028,2.63,8.18,6.852,10.186,12.021a7.225,7.225,0,0,1,.373,2.551,2.066,2.066,0,0,1-2.018,2.364c-3.846.113-7.7.142-11.543-.008-.772-.03-1.587-.911-2.234-1.55a7.18,7.18,0,0,1-.99-1.749c-2.34-4.292-6.15-5.883-10.812-5.752-6.159.173-10.765,3.99-12.543,9.935a25.548,25.548,0,0,0-.064,13.631,14.091,14.091,0,0,0,3.689,6.969,10.719,10.719,0,0,0,7.9,3.533c2.108-.011,4.156.061,6.2-.872a12.32,12.32,0,0,0,6.434-6.642c1.006-2.387,2.478-3.469,5.033-3.376,2.6.1,5.2-.027,7.8.036,2.559.062,3.29.853,3.162,3.351a16.19,16.19,0,0,1-3.774,9.116,26.1,26.1,0,0,1-15.318,9.484A43.232,43.232,0,0,1,1864.347,443.976Z" fill="#fff"/>
        <path id="Trazado_1220" data-name="Trazado 1220" d="M1748.2,416.012c0-4.623.015-9.246-.005-13.868-.014-3.074-1.022-4.13-4.095-4.328-.96-.062-1.932.037-2.887-.057-1.934-.19-2.742-.994-2.866-2.944a31.414,31.414,0,0,1,.018-4.329c.149-1.995.821-2.688,2.843-2.99,1.137-.17,2.3-.164,3.453-.231,2.49-.145,3.476-1.088,3.524-3.563.054-2.792-.012-5.586.019-8.378.034-3.113.79-3.838,3.982-3.857,2.985-.019,5.972-.047,8.956.016,2.514.053,3.447,1,3.5,3.539.06,2.6-.019,5.2.023,7.8.057,3.545.945,4.4,4.481,4.448,1.444.02,2.9-.066,4.329.077,2.238.223,3.007,1.1,3.114,3.373.063,1.346.067,2.7,0,4.044-.11,2.116-.9,2.891-3.054,3.019-1.152.068-2.311-.006-3.466.023a14.4,14.4,0,0,0-2.3.177c-2.138.4-2.73,1.048-3.047,3.222a10.027,10.027,0,0,0-.062,1.441q0,11.123.005,22.247c0,1.749.151,3.467,1.61,4.748a4.229,4.229,0,0,0,3.1,1.289c1.441-.07,2.89-.05,4.333,0,2.166.076,2.935.8,3.033,2.98.086,1.922.092,3.854,0,5.776a3.031,3.031,0,0,1-3.3,3.2c-4.718.046-9.462.3-14.149-.089-4.443-.372-8.472-2.141-10.179-6.752a19.8,19.8,0,0,1-1.017-6.176c-.145-4.616-.045-9.239-.045-13.86Z" fill="#fff"/>
        <g id="Grupo_293" data-name="Grupo 293">
          <path id="Trazado_1221" data-name="Trazado 1221" d="M2226.908,394.224a3.449,3.449,0,1,1-3.438-3.356A3.372,3.372,0,0,1,2226.908,394.224Zm-6.036,0a2.6,2.6,0,0,0,2.619,2.681,2.57,2.57,0,0,0,2.558-2.66,2.59,2.59,0,1,0-5.177-.021Zm2.066,1.76h-.777v-3.356a6.822,6.822,0,0,1,1.289-.1,2.091,2.091,0,0,1,1.166.245.934.934,0,0,1,.328.737.861.861,0,0,1-.7.778v.041a.991.991,0,0,1,.614.818,2.567,2.567,0,0,0,.245.839h-.839a2.911,2.911,0,0,1-.266-.819c-.061-.368-.266-.532-.7-.532h-.369Zm.021-1.9h.368c.43,0,.778-.143.778-.491,0-.307-.226-.512-.717-.512a1.88,1.88,0,0,0-.429.041Z" fill="#fff"/>
        </g>
      </g>
      <text id="FEATURED_IN" data-name="FEATURED IN" transform="translate(1982.3 357.604)" fill="#fff" font-size="29.256" font-family="ProximaNova-Regular, Proxima Nova" letter-spacing="0.02em"><tspan x="-91.602" y="0">FEATURED IN</tspan></text>
    </g>
  </g>
</svg>
