<svg xmlns="http://www.w3.org/2000/svg" xmlns:xlink="http://www.w3.org/1999/xlink" width="49" height="49" viewBox="0 0 49 49"><defs><clipPath id="clip-oceanx-brand-focused-full"><rect width="49" height="49"></rect></clipPath></defs><g id="oceanx-brand-focused-full" clip-path="url(#clip-oceanx-brand-focused-full)"><path id="Trazado_778" data-name="Trazado 778" d="M1390.085,505.87a24.435,24.435,0,1,0,24.435,24.435A24.435,24.435,0,0,0,1390.085,505.87Zm13.019,11.895a2.491,2.491,0,0,1-.331,3.5L1389.7,532.073a2.484,2.484,0,0,1-3.167-3.829l13.068-10.811A2.492,2.492,0,0,1,1403.1,517.765Zm-24.775,7.972,13.068-10.811a2.484,2.484,0,0,1,3.167,3.829L1381.5,529.566a2.492,2.492,0,0,1-3.5-.331h0A2.492,2.492,0,0,1,1378.328,525.737Zm18.014,9.32-13.068,10.81a2.491,2.491,0,0,1-3.5-.331h0a2.491,2.491,0,0,1,.33-3.5l13.069-10.81a2.484,2.484,0,1,1,3.167,3.829Zm6.909-1.483a2.913,2.913,0,1,1,2.913-2.913A2.913,2.913,0,0,1,1403.251,533.574Z" transform="translate(-1365.65 -505.688)" fill="#37c3f2"></path></g></svg>