<svg width="345" height="129" viewBox="0 0 345 129" fill="none" xmlns="http://www.w3.org/2000/svg">
<path fill-rule="evenodd" clip-rule="evenodd" d="M224.662 49.601C223.685 43.471 220.132 40.361 213.375 40.361H193.905C187.155 40.361 183.6 43.471 182.62 49.601C182.516 50.3368 182.457 51.0781 182.442 51.8209V88.3459H194.62V56.0209C194.62 53.5284 195.495 52.5335 197.87 52.5335H209.43C211.56 52.5335 212.665 53.5284 212.665 56.0209V88.3459H224.842V51.8209C224.842 51.111 224.75 50.316 224.662 49.601V49.601ZM164.937 88.3459H177.11V40.361H164.935V88.3459H164.937ZM142.605 23.0135H130.427V88.3809H142.602V52.571H154.27V40.396H142.602V23.016L142.605 23.0135ZM113.015 88.3459H125.19V22.9785H113.015V88.3459ZM30.3899 55.9984C30.3899 53.4259 29.0324 52.536 27.1899 52.536H15.64C13.32 52.536 12.17 53.5809 12.17 55.9109V76.1534H27.1449C29.2749 76.1534 30.3924 74.8134 30.3924 72.6859V55.9984H30.3899ZM42.3899 50.311C42.4799 50.936 42.5699 51.646 42.5699 52.266V76.2609C42.5699 78.8409 42.0349 80.8809 40.9699 82.6609C38.6549 86.7484 35.9024 88.3459 31.4599 88.3459L0.0249999 88.3609L0 22.9785H12.17V40.361H31.6374C32.4374 40.361 33.2374 40.451 33.9474 40.626C38.5674 41.606 41.7649 45.1585 42.3899 50.311V50.311ZM78.1223 72.6859C78.1223 75.1809 77.2473 76.1734 74.8723 76.1734H63.3149C61.1849 76.1734 60.0799 75.1809 60.0799 72.6859V40.361H47.8999V76.8859C47.8999 77.5959 47.9949 78.3909 48.0824 79.1059C49.0574 85.2359 52.6124 88.3459 59.3674 88.3459H78.8398C85.5898 88.3459 89.1423 85.2359 90.1248 79.1059C90.2271 78.37 90.2855 77.6287 90.2998 76.8859V40.361H78.1248V72.6859H78.1223ZM95.6323 88.4284H107.807V40.441H95.6323V88.4284Z" fill="white"/>
<mask id="mask0" mask-type="alpha" maskUnits="userSpaceOnUse" x="199" y="0" width="146" height="129">
<path fill-rule="evenodd" clip-rule="evenodd" d="M199.537 0V22.975H207.702V8.16498H335.922V120.75H207.702V105.715H199.537V128.912H344.084V0H199.534H199.537ZM279.999 40.4224L270.884 88.5348H278.972L280.479 79.0098H288.087L289.664 88.5348H298.027L288.909 40.4224H279.999V40.4224ZM284.317 55.6374L286.854 71.4698H281.714L284.317 55.6374ZM247.989 40.5599V88.5348H265.192V80.5848H256.349V40.5599H247.989V40.5599Z" fill="white"/>
</mask>
<g mask="url(#mask0)">
<path fill-rule="evenodd" clip-rule="evenodd" d="M199.537 0V22.975H207.702V8.16498H335.922V120.75H207.702V105.715H199.537V128.912H344.084V0H199.534H199.537ZM279.999 40.4224L270.884 88.5348H278.972L280.479 79.0098H288.087L289.664 88.5348H298.027L288.909 40.4224H279.999V40.4224ZM284.317 55.6374L286.854 71.4698H281.714L284.317 55.6374ZM247.989 40.5599V88.5348H265.192V80.5848H256.349V40.5599H247.989V40.5599Z" fill="white"/>
</g>
</svg>
