<svg xmlns="http://www.w3.org/2000/svg" xmlns:xlink="http://www.w3.org/1999/xlink" width="49" height="49" viewBox="0 0 49 49"><defs><clipPath id="clip-oceanx-customer-care"><rect width="49" height="49"></rect></clipPath></defs><g id="oceanx-customer-care" clip-path="url(#clip-oceanx-customer-care)"><path id="Trazado_779" data-name="Trazado 779" d="M1390.085,691.825a24.435,24.435,0,1,0,24.435,24.436A24.435,24.435,0,0,0,1390.085,691.825Zm-7.989,38.2a2.492,2.492,0,0,1-2.509-2.459l-.169-15.637a2.484,2.484,0,0,1,4.968-.049l.169,15.637A2.491,2.491,0,0,1,1382.1,730.027Zm-.259-21.659a2.937,2.937,0,1,1,2.937-2.937A2.937,2.937,0,0,1,1381.838,708.368Zm8.507,19.332a2.492,2.492,0,0,1-2.509-2.459l-.169-15.637a2.484,2.484,0,1,1,4.968-.049l.169,15.637A2.491,2.491,0,0,1,1390.344,727.7Zm-.259-21.659a2.937,2.937,0,1,1,2.938-2.937A2.937,2.937,0,0,1,1390.085,706.042Zm8.507,23.986a2.491,2.491,0,0,1-2.509-2.459l-.169-15.637a2.484,2.484,0,0,1,4.968-.049l.169,15.637A2.491,2.491,0,0,1,1398.592,730.027Zm-.259-21.659a2.937,2.937,0,1,1,2.938-2.937A2.937,2.937,0,0,1,1398.333,708.368Z" transform="translate(-1365.65 -691.502)" fill="#1e91cf"></path></g></svg>