<svg xmlns="http://www.w3.org/2000/svg" xmlns:xlink="http://www.w3.org/1999/xlink" width="50" height="49" viewBox="0 0 50 49"><defs><clipPath><rect width="50" height="49"></rect></clipPath></defs><g><path id="Trazado_777" data-name="Trazado 777" d="M1390.085,319.914a24.435,24.435,0,1,0,24.435,24.435A24.435,24.435,0,0,0,1390.085,319.914Zm-8.479,21.946,16.96.009a2.484,2.484,0,1,1,0,4.969l-16.96-.009a2.484,2.484,0,0,1,0-4.969Zm9.295,11.609-16.96-.009a2.484,2.484,0,0,1,0-4.969l16.96.009a2.484,2.484,0,0,1,0,4.969Zm8.039,4.68a2.49,2.49,0,1,1,2.49-2.49A2.49,2.49,0,0,1,1398.941,358.149Zm7.267-18-16.961-.009a2.484,2.484,0,0,1,0-4.969l16.961.009a2.484,2.484,0,0,1,0,4.969Z" transform="translate(-1365.073 -319.558)" fill="#bf1866"></path></g></svg>