<svg xmlns="http://www.w3.org/2000/svg" xmlns:xlink="http://www.w3.org/1999/xlink" width="49" height="49" viewBox="0 0 49 49"><defs><clipPath id="clip-oceanx-business-intelligence"><rect width="49" height="49"></rect></clipPath></defs><g id="oceanx-business-intelligence" clip-path="url(#clip-oceanx-business-intelligence)"><path id="Trazado_780" data-name="Trazado 780" d="M1390.085,877.781a24.436,24.436,0,1,0,24.435,24.436A24.436,24.436,0,0,0,1390.085,877.781Zm-.258,5.479h0a2.491,2.491,0,0,1,2.509,2.459l.169,23.766a2.485,2.485,0,0,1-4.969.049l-.169-23.765A2.492,2.492,0,0,1,1389.827,883.259Zm-5.79,28.987a2.492,2.492,0,0,1-3.2-1.453l-5.508-14.636a2.484,2.484,0,0,1,4.652-1.746l5.509,14.636A2.492,2.492,0,0,1,1384.037,912.246Zm6.048,8.022a2.938,2.938,0,1,1,2.938-2.937A2.938,2.938,0,0,1,1390.085,920.268Zm14.756-24.11-5.508,14.636a2.484,2.484,0,1,1-4.652-1.746l5.508-14.636a2.484,2.484,0,0,1,4.652,1.746Z" transform="translate(-1365.65 -877.287)" fill="#f27660"></path></g></svg>