<svg xmlns="http://www.w3.org/2000/svg" xmlns:xlink="http://www.w3.org/1999/xlink" width="1403" height="1289" viewBox="0 0 1403 1289">
  <defs>
    <clipPath id="clip-our-solutions">
      <rect width="1403" height="1289"/>
    </clipPath>
  </defs>
  <g id="our-solutions" clip-path="url(#clip-our-solutions)">
    <g id="Group_231" data-name="Group 231" transform="translate(-259 -2214)">
      <g id="Group_200" data-name="Group 200" transform="translate(0 202)">
        <g id="Ellipse_86" data-name="Ellipse 86" transform="translate(369 2058)" fill="none" stroke="#5a6468" stroke-width="1.3" stroke-dasharray="1 2" opacity="0.8">
          <circle cx="591" cy="591" r="591" stroke="none"/>
          <circle cx="591" cy="591" r="590.35" fill="none"/>
        </g>
        <g id="Ellipse_90" data-name="Ellipse 90" transform="translate(668 2358)" fill="none" stroke="#5a6468" stroke-width="2.2" stroke-dasharray="1 3" opacity="0.8">
          <ellipse cx="292.5" cy="291" rx="292.5" ry="291" stroke="none"/>
          <ellipse cx="292.5" cy="291" rx="291.4" ry="289.9" fill="none"/>
        </g>
        <g id="Ellipse_88" data-name="Ellipse 88" transform="translate(469 2158)" fill="none" stroke="#5a6468" stroke-width="1.3" stroke-dasharray="1 2" opacity="0.8">
          <circle cx="491" cy="491" r="491" stroke="none"/>
          <circle cx="491" cy="491" r="490.35" fill="none"/>
        </g>
        <g id="Ellipse_89" data-name="Ellipse 89" transform="translate(569 2258)" fill="none" stroke="#5a6468" stroke-width="2.2" stroke-dasharray="1 3" opacity="0.8">
          <circle cx="391" cy="391" r="391" stroke="none"/>
          <circle cx="391" cy="391" r="389.9" fill="none"/>
        </g>
      </g>
      <g id="Group_46" data-name="Group 46" transform="translate(716 2777)">
        <g id="Wavemaker" transform="translate(21 24)">
          <g id="Group_45" data-name="Group 45" transform="translate(0 0)">
            <g id="Group_43" data-name="Group 43" transform="translate(111.94 12.344)">
              <path id="Path_138" data-name="Path 138" d="M667.481,305.317h-4.836l-10.881-34.043h4.518L665,301.054l8.59-29.78h4.963l9.036,29.843,8.336-29.843h4.518l-10.5,34.043h-4.9l-9.036-29.526Z" transform="translate(-651.764 -257.465)" fill="#45454a"/>
              <path id="Path_139" data-name="Path 139" d="M820.491,299.539c-2.228,2.927-6.3,5.409-12.536,5.409-8.463,0-11.772-3.881-11.772-10.436,0-8.336,5.6-10.881,14.381-10.881a67.426,67.426,0,0,1,9.545.572c-.127-7.954-1.018-11.008-9.1-11.008-8.272,0-9.608,4.327-9.608,7.317h-3.882c0-4.072,1.337-10.881,13.3-10.881,13.935,0,13.489,7.318,13.489,17.753v8.272l.7,8.526h-3.882Zm-.382-5.791v-5.981a68.9,68.9,0,0,0-8.591-.509c-7.19,0-11.008,1.718-11.008,7.063,0,3.882,1.845,6.936,8.208,6.936C815.972,301.257,820.109,296.866,820.109,293.749Z" transform="translate(-745.806 -256.396)" fill="#45454a"/>
              <path id="Path_140" data-name="Path 140" d="M888.635,271.274l10.627,30.1,10.817-30.1h4.645l-13.236,34.043h-4.518l-13.045-34.043Z" transform="translate(-802.941 -257.465)" fill="#45454a"/>
              <path id="Path_141" data-name="Path 141" d="M989.962,304.71c-11.2,0-14.826-6.681-14.826-17.626s3.627-17.817,14.826-17.817c10.69,0,14.636,5.791,14.636,18.517H979.463c.128,9.036,2.991,13.236,10.5,13.236,8.018,0,10.118-4.645,10.118-7.127h4.263C1004.343,297.329,1002.18,304.71,989.962,304.71Zm-10.436-20.68h20.617c-.7-7.954-3.945-11.136-10.181-11.136C983.09,272.894,980.1,276.648,979.526,284.03Z" transform="translate(-862.334 -256.159)" fill="#45454a"/>
              <path id="Path_142" data-name="Path 142" d="M1075.189,279.168l-.637-8.845h3.628l.7,5.472c1.591-2.418,5.154-5.982,12.027-5.982,4.964,0,8.208,1.846,9.736,6.554,1.336-2.354,4.963-6.554,12.535-6.554,7.254,0,10.945,3.818,10.945,14.381v20.172h-4.073V284c0-6.681-1.972-10.245-8.081-10.245-5.727,0-9.036,4.009-10.5,6.554a35.965,35.965,0,0,1,.191,3.881v20.172h-3.882V284c0-6.681-2.036-10.245-8.017-10.245-5.663,0-8.908,4.009-10.372,6.554v24.053h-4.2Z" transform="translate(-927.072 -256.515)" fill="#45454a"/>
              <path id="Path_143" data-name="Path 143" d="M1255.376,299.539c-2.227,2.927-6.3,5.409-12.536,5.409-8.463,0-11.771-3.881-11.771-10.436,0-8.336,5.6-10.881,14.381-10.881a67.418,67.418,0,0,1,9.544.572c-.127-7.954-1.018-11.008-9.1-11.008-8.272,0-9.608,4.327-9.608,7.317H1232.4c0-4.072,1.336-10.881,13.3-10.881,13.936,0,13.49,7.318,13.49,17.753v8.272l.7,8.526h-3.881Zm-.382-5.791v-5.981a68.9,68.9,0,0,0-8.59-.509c-7.19,0-11.008,1.718-11.008,7.063,0,3.882,1.845,6.936,8.208,6.936C1250.858,301.257,1254.994,296.866,1254.994,293.749Z" transform="translate(-1028.991 -256.396)" fill="#45454a"/>
              <path id="Path_144" data-name="Path 144" d="M1333.77,231.689h4.072V264.4l15.781-18.9h4.836l-10.881,12.726,12.6,21.317H1355.4l-10.5-18.135-7.063,8.272v9.863h-4.072Z" transform="translate(-1095.867 -231.689)" fill="#45454a"/>
              <path id="Path_145" data-name="Path 145" d="M1428.312,304.71c-11.2,0-14.826-6.681-14.826-17.626s3.627-17.817,14.826-17.817c10.689,0,14.635,5.791,14.635,18.517h-25.135c.127,9.036,2.99,13.236,10.5,13.236,8.017,0,10.117-4.645,10.117-7.127h4.263C1442.692,297.329,1440.529,304.71,1428.312,304.71Zm-10.436-20.68h20.617c-.7-7.954-3.945-11.136-10.181-11.136C1421.44,272.894,1418.448,276.648,1417.876,284.03Z" transform="translate(-1147.775 -256.159)" fill="#45454a"/>
              <path id="Path_146" data-name="Path 146" d="M1517.187,279.695l-.636-9.609h3.627l.763,6.681c1.019-2.418,4.136-7.317,12.345-7.317V273.4c-8.972,0-11.39,7.317-11.9,9.545v21.19h-4.2Z" transform="translate(-1214.888 -256.278)" fill="#45454a"/>
              <g id="Group_42" data-name="Group 42" transform="translate(318.398 7.627)">
                <path id="Path_147" data-name="Path 147" d="M1565.79,253.988h-1.264v-.433h3.007v.433h-1.264v3.6h-.48Zm2.095-.433h.679l1.276,3.616,1.321-3.616h.668l-.012,4.049h-.457l.035-3.5-1.311,3.5h-.491l-1.287-3.523.035,3.523h-.457Z" transform="translate(-1564.526 -253.555)" fill="#45454a"/>
              </g>
            </g>
            <g id="Group_44" data-name="Group 44" transform="translate(0 0)">
              <rect id="Rectangle_48" data-name="Rectangle 48" width="14.992" height="66.166" rx="7.496" transform="translate(0 6.324) rotate(-24.948)" fill="#178ccd"/>
              <rect id="Rectangle_49" data-name="Rectangle 49" width="14.992" height="66.166" rx="7.496" transform="translate(42.381 6.324) rotate(-24.948)" fill="#178ccd"/>
              <rect id="Rectangle_50" data-name="Rectangle 50" width="14.992" height="66.166" rx="7.496" transform="translate(63.572 6.324) rotate(-24.948)" fill="#37c3f2"/>
              <circle id="Ellipse_4" data-name="Ellipse 4" cx="7.535" cy="7.535" r="7.535" transform="translate(2.426 48.817)" fill="#37c3f2"/>
              <rect id="Rectangle_51" data-name="Rectangle 51" width="14.992" height="66.166" rx="7.496" transform="translate(21.191 6.324) rotate(-24.948)" fill="#37c3f2"/>
              <circle id="Ellipse_5" data-name="Ellipse 5" cx="7.535" cy="7.535" r="7.535" transform="translate(87.538 2.466)" fill="#178ccd"/>
            </g>
          </g>
        </g>
      </g>
      <g id="Group_214" data-name="Group 214" transform="translate(482 -623)">
        <rect id="Rectangle_513" data-name="Rectangle 513" width="328" height="328" rx="164" transform="translate(314 2837)" fill="#3689a5"/>
        <g id="Group_207" data-name="Group 207" transform="translate(0 29.26)">
          <path id="Path_799" data-name="Path 799" d="M-84.612-14.112v3.168h6.1v3.888h-6.1v3.168h7.1V0H-89.076V-18h11.568v3.888ZM-74.58-7.8h8.4v3.12h-8.4ZM-54.06.24A9.07,9.07,0,0,1-58.7-1a9.147,9.147,0,0,1-3.36-3.36A9.07,9.07,0,0,1-63.3-9a9.07,9.07,0,0,1,1.236-4.644A9.147,9.147,0,0,1-58.7-17,9.07,9.07,0,0,1-54.06-18.24a9.117,9.117,0,0,1,4.176.984,8.957,8.957,0,0,1,3.216,2.712l-3.456,2.592a4.574,4.574,0,0,0-1.68-1.4,4.973,4.973,0,0,0-2.256-.516,4.928,4.928,0,0,0-2.484.636A4.607,4.607,0,0,0-58.3-11.484,4.928,4.928,0,0,0-58.932-9,4.928,4.928,0,0,0-58.3-6.516a4.607,4.607,0,0,0,1.752,1.752,4.928,4.928,0,0,0,2.484.636A4.973,4.973,0,0,0-51.8-4.644a4.574,4.574,0,0,0,1.68-1.4l3.456,2.592A8.956,8.956,0,0,1-49.884-.744,9.117,9.117,0,0,1-54.06.24Zm17.424,0A9.07,9.07,0,0,1-41.28-1a9.147,9.147,0,0,1-3.36-3.36A9.07,9.07,0,0,1-45.876-9a9.07,9.07,0,0,1,1.236-4.644A9.147,9.147,0,0,1-41.28-17a9.07,9.07,0,0,1,4.644-1.236A9.07,9.07,0,0,1-31.992-17a9.147,9.147,0,0,1,3.36,3.36A9.07,9.07,0,0,1-27.4-9a9.07,9.07,0,0,1-1.236,4.644A9.147,9.147,0,0,1-31.992-1,9.07,9.07,0,0,1-36.636.24Zm0-4.368a4.928,4.928,0,0,0,2.484-.636A4.607,4.607,0,0,0-32.4-6.516,4.928,4.928,0,0,0-31.764-9a4.928,4.928,0,0,0-.636-2.484,4.607,4.607,0,0,0-1.752-1.752,4.928,4.928,0,0,0-2.484-.636,4.928,4.928,0,0,0-2.484.636,4.607,4.607,0,0,0-1.752,1.752A4.928,4.928,0,0,0-41.508-9a4.928,4.928,0,0,0,.636,2.484A4.607,4.607,0,0,0-39.12-4.764,4.928,4.928,0,0,0-36.636-4.128ZM-4.236-18V0H-8.7V-11.04L-14.484-.96-20.22-11.04V0h-4.464V-18h4.848l5.376,9.216L-9.06-18Zm23.808,0V0H15.108V-11.04L9.324-.96,3.588-11.04V0H-.876V-18H3.972L9.348-8.784,14.748-18Zm7.968,3.888v3.168h6.1v3.888h-6.1v3.168h7.1V0H23.076V-18H34.644v3.888ZM52.284,0H47.172L42.948-6.672h-1.08V0H37.4V-18h7.944a5.313,5.313,0,0,1,2.808.756,5.359,5.359,0,0,1,1.956,2.052,5.811,5.811,0,0,1,.708,2.832,5.532,5.532,0,0,1-.972,3.228A4.94,4.94,0,0,1,47.292-7.2ZM44.628-10.272a1.847,1.847,0,0,0,1.38-.552,1.879,1.879,0,0,0,.54-1.368,1.869,1.869,0,0,0-.54-1.38,1.869,1.869,0,0,0-1.38-.54h-2.76v3.84ZM62.316.24A9.07,9.07,0,0,1,57.672-1a9.147,9.147,0,0,1-3.36-3.36A9.07,9.07,0,0,1,53.076-9a9.07,9.07,0,0,1,1.236-4.644A9.147,9.147,0,0,1,57.672-17a9.07,9.07,0,0,1,4.644-1.236,9.117,9.117,0,0,1,4.176.984,8.956,8.956,0,0,1,3.216,2.712l-3.456,2.592a4.574,4.574,0,0,0-1.68-1.4,4.973,4.973,0,0,0-2.256-.516,4.928,4.928,0,0,0-2.484.636,4.607,4.607,0,0,0-1.752,1.752A4.928,4.928,0,0,0,57.444-9a4.928,4.928,0,0,0,.636,2.484,4.607,4.607,0,0,0,1.752,1.752,4.928,4.928,0,0,0,2.484.636,4.973,4.973,0,0,0,2.256-.516,4.574,4.574,0,0,0,1.68-1.4l3.456,2.592A8.956,8.956,0,0,1,66.492-.744,9.117,9.117,0,0,1,62.316.24Zm14.16-14.352v3.168h6.1v3.888h-6.1v3.168h7.1V0H72.012V-18H83.58v3.888ZM-51.984,28.24A7.914,7.914,0,0,1-56.2,27.088a7.364,7.364,0,0,1-2.8-2.928l3.552-2.232a3.826,3.826,0,0,0,1.392,1.656,3.755,3.755,0,0,0,2.112.6,2.393,2.393,0,0,0,1.452-.384,1.221,1.221,0,0,0,.516-1.032,1.274,1.274,0,0,0-.384-.936,3.091,3.091,0,0,0-.96-.636q-.576-.252-1.632-.612a18.9,18.9,0,0,1-2.664-1.068,5.151,5.151,0,0,1-1.824-1.6,4.583,4.583,0,0,1-.768-2.76,5.122,5.122,0,0,1,.852-3,5.143,5.143,0,0,1,2.2-1.812A6.99,6.99,0,0,1-52.32,9.76a7.228,7.228,0,0,1,3.144.708,7.827,7.827,0,0,1,2.544,1.908l-2.832,2.736a4.167,4.167,0,0,0-2.9-1.56,1.656,1.656,0,0,0-1.068.336,1.185,1.185,0,0,0-.42.984,1.3,1.3,0,0,0,.672,1.176,11.7,11.7,0,0,0,2.16.912,18.969,18.969,0,0,1,2.736,1.116,5.111,5.111,0,0,1,1.86,1.716,5.347,5.347,0,0,1,.78,3.048,4.826,4.826,0,0,1-.864,2.856,5.627,5.627,0,0,1-2.3,1.884A7.513,7.513,0,0,1-51.984,28.24Zm13.272-14.352v3.168h6.1v3.888h-6.1v3.168h7.1V28H-43.176V10h11.568v3.888ZM-13.968,28H-19.08L-23.3,21.328h-1.08V28h-4.464V10H-20.9a5.313,5.313,0,0,1,2.808.756,5.359,5.359,0,0,1,1.956,2.052,5.811,5.811,0,0,1,.708,2.832,5.532,5.532,0,0,1-.972,3.228A4.94,4.94,0,0,1-18.96,20.8Zm-7.656-10.272a1.847,1.847,0,0,0,1.38-.552,1.879,1.879,0,0,0,.54-1.368,1.869,1.869,0,0,0-.54-1.38,1.869,1.869,0,0,0-1.38-.54h-2.76v3.84ZM4.776,10-2.448,28H-7.464l-7.224-18h5.016l4.728,13.248L-.24,10ZM6.12,10h4.464V28H6.12ZM22.656,28.24A9.2,9.2,0,0,1,13.416,19a9.2,9.2,0,0,1,9.24-9.24,9.117,9.117,0,0,1,4.176.984,8.956,8.956,0,0,1,3.216,2.712l-3.456,2.592a4.574,4.574,0,0,0-1.68-1.4,5.179,5.179,0,0,0-4.74.12,4.607,4.607,0,0,0-1.752,1.752,5.169,5.169,0,0,0,0,4.968,4.607,4.607,0,0,0,1.752,1.752,5.179,5.179,0,0,0,4.74.12,4.574,4.574,0,0,0,1.68-1.4l3.456,2.592a8.956,8.956,0,0,1-3.216,2.712A9.117,9.117,0,0,1,22.656,28.24Zm14.16-14.352v3.168h6.1v3.888h-6.1v3.168h7.1V28H32.352V10H43.92v3.888ZM52.44,28.24a7.914,7.914,0,0,1-4.212-1.152,7.364,7.364,0,0,1-2.8-2.928l3.552-2.232a3.826,3.826,0,0,0,1.392,1.656,3.755,3.755,0,0,0,2.112.6A2.393,2.393,0,0,0,53.94,23.8a1.221,1.221,0,0,0,.516-1.032,1.274,1.274,0,0,0-.384-.936,3.091,3.091,0,0,0-.96-.636q-.576-.252-1.632-.612a18.9,18.9,0,0,1-2.664-1.068,5.151,5.151,0,0,1-1.824-1.6,4.583,4.583,0,0,1-.768-2.76,5.013,5.013,0,0,1,3.048-4.812A6.99,6.99,0,0,1,52.1,9.76a7.228,7.228,0,0,1,3.144.708,7.827,7.827,0,0,1,2.544,1.908L54.96,15.112a4.167,4.167,0,0,0-2.9-1.56,1.656,1.656,0,0,0-1.068.336,1.185,1.185,0,0,0-.42.984,1.3,1.3,0,0,0,.672,1.176,11.7,11.7,0,0,0,2.16.912,18.969,18.969,0,0,1,2.736,1.116A5.111,5.111,0,0,1,58,19.792a5.347,5.347,0,0,1,.78,3.048,4.826,4.826,0,0,1-.864,2.856,5.627,5.627,0,0,1-2.3,1.884A7.513,7.513,0,0,1,52.44,28.24Z" transform="translate(478 3018)" fill="#fff"/>
          <path id="Path_754" data-name="Path 754" d="M1405.941,133.958a40.291,40.291,0,1,0,40.291,40.291A40.291,40.291,0,0,0,1405.941,133.958Zm0,7.427a4.1,4.1,0,1,1-4.1,4.1A4.1,4.1,0,0,1,1405.941,141.385Zm0,10.041a4.1,4.1,0,1,1-4.1,4.1A4.1,4.1,0,0,1,1405.941,151.426Zm14.67,46.007a4.1,4.1,0,1,1,4.1-4.1A4.1,4.1,0,0,1,1420.611,197.433Zm12.3-19.08-8.211,0,0,2.672a4.1,4.1,0,0,1-8.193,0l0-2.669-6.468,0-.01,22.846a4.1,4.1,0,0,1-8.194,0l.011-22.844-6.481,0-.006,13.749a4.1,4.1,0,0,1-8.193-.005l.006-13.746-8.208,0a4.1,4.1,0,1,1,0-8.193l8.208,0,0-10.524a4.1,4.1,0,0,1,8.193,0l-.006,10.521,6.481,0V167.5a4.1,4.1,0,0,1,8.193,0v2.648l6.469,0,.009-19.517a4.1,4.1,0,0,1,8.193,0l-.01,19.516,8.212,0a4.1,4.1,0,0,1,0,8.193Z" transform="translate(-927.506 2756.782)" fill="#fff"/>
        </g>
      </g>
      <g id="Group_221" data-name="Group 221" transform="translate(0 54)">
        <g id="Group_219" data-name="Group 219" transform="translate(-267 382)">
          <rect id="Rectangle_507" data-name="Rectangle 507" width="328" height="328" rx="164" transform="translate(526 2248)" fill="#108bcc"/>
          <g id="Group_205" data-name="Group 205" transform="translate(0 43.677)">
            <path id="Path_798" data-name="Path 798" d="M-96.324.24A9.07,9.07,0,0,1-100.968-1a9.147,9.147,0,0,1-3.36-3.36A9.07,9.07,0,0,1-105.564-9a9.07,9.07,0,0,1,1.236-4.644,9.147,9.147,0,0,1,3.36-3.36,9.07,9.07,0,0,1,4.644-1.236,9.117,9.117,0,0,1,4.176.984,8.956,8.956,0,0,1,3.216,2.712l-3.456,2.592a4.574,4.574,0,0,0-1.68-1.4,4.973,4.973,0,0,0-2.256-.516,4.928,4.928,0,0,0-2.484.636,4.607,4.607,0,0,0-1.752,1.752A4.928,4.928,0,0,0-101.2-9a4.928,4.928,0,0,0,.636,2.484,4.607,4.607,0,0,0,1.752,1.752,4.928,4.928,0,0,0,2.484.636,4.973,4.973,0,0,0,2.256-.516,4.574,4.574,0,0,0,1.68-1.4l3.456,2.592A8.956,8.956,0,0,1-92.148-.744,9.117,9.117,0,0,1-96.324.24Zm17.112,0a9.272,9.272,0,0,1-3.864-.792,6.935,6.935,0,0,1-2.772-2.16,4.943,4.943,0,0,1-1.02-3.024V-18H-82.4V-6.576a2.655,2.655,0,0,0,.432,1.464,3.122,3.122,0,0,0,1.164,1.068,3.3,3.3,0,0,0,1.6.4,3.349,3.349,0,0,0,1.62-.4,3.122,3.122,0,0,0,1.164-1.068A2.655,2.655,0,0,0-76-6.576V-18h4.464V-5.736a4.943,4.943,0,0,1-1.02,3.024,6.935,6.935,0,0,1-2.772,2.16A9.331,9.331,0,0,1-79.212.24Zm16.7,0A7.914,7.914,0,0,1-66.72-.912a7.364,7.364,0,0,1-2.8-2.928l3.552-2.232a3.826,3.826,0,0,0,1.392,1.656,3.755,3.755,0,0,0,2.112.6A2.393,2.393,0,0,0-61.008-4.2a1.221,1.221,0,0,0,.516-1.032,1.274,1.274,0,0,0-.384-.936,3.091,3.091,0,0,0-.96-.636q-.576-.252-1.632-.612a18.9,18.9,0,0,1-2.664-1.068,5.151,5.151,0,0,1-1.824-1.6,4.583,4.583,0,0,1-.768-2.76,5.122,5.122,0,0,1,.852-3,5.143,5.143,0,0,1,2.2-1.812,6.99,6.99,0,0,1,2.832-.588,7.228,7.228,0,0,1,3.144.708,7.827,7.827,0,0,1,2.544,1.908l-2.832,2.736a4.167,4.167,0,0,0-2.9-1.56,1.656,1.656,0,0,0-1.068.336,1.185,1.185,0,0,0-.42.984,1.3,1.3,0,0,0,.672,1.176,11.7,11.7,0,0,0,2.16.912,18.969,18.969,0,0,1,2.736,1.116,5.111,5.111,0,0,1,1.86,1.716,5.347,5.347,0,0,1,.78,3.048A4.826,4.826,0,0,1-57.036-2.3,5.627,5.627,0,0,1-59.34-.42,7.513,7.513,0,0,1-62.508.24Zm20.04-14.352h-4.416V0h-4.44V-14.112h-4.44V-18h13.3ZM-32.436.24A9.07,9.07,0,0,1-37.08-1a9.147,9.147,0,0,1-3.36-3.36A9.07,9.07,0,0,1-41.676-9a9.07,9.07,0,0,1,1.236-4.644A9.147,9.147,0,0,1-37.08-17a9.07,9.07,0,0,1,4.644-1.236A9.07,9.07,0,0,1-27.792-17a9.147,9.147,0,0,1,3.36,3.36A9.07,9.07,0,0,1-23.2-9a9.07,9.07,0,0,1-1.236,4.644A9.147,9.147,0,0,1-27.792-1,9.07,9.07,0,0,1-32.436.24Zm0-4.368a4.928,4.928,0,0,0,2.484-.636A4.607,4.607,0,0,0-28.2-6.516,4.928,4.928,0,0,0-27.564-9a4.928,4.928,0,0,0-.636-2.484,4.607,4.607,0,0,0-1.752-1.752,4.928,4.928,0,0,0-2.484-.636,4.928,4.928,0,0,0-2.484.636,4.607,4.607,0,0,0-1.752,1.752A4.928,4.928,0,0,0-37.308-9a4.928,4.928,0,0,0,.636,2.484A4.607,4.607,0,0,0-34.92-4.764,4.928,4.928,0,0,0-32.436-4.128ZM-.036-18V0H-4.5V-11.04L-10.284-.96-16.02-11.04V0h-4.464V-18h4.848l5.376,9.216L-4.86-18Zm7.968,3.888v3.168h6.1v3.888h-6.1v3.168h7.1V0H3.468V-18H15.036v3.888ZM32.676,0H27.564L23.34-6.672H22.26V0H17.8V-18H25.74a5.313,5.313,0,0,1,2.808.756A5.359,5.359,0,0,1,30.5-15.192a5.811,5.811,0,0,1,.708,2.832,5.532,5.532,0,0,1-.972,3.228A4.94,4.94,0,0,1,27.684-7.2ZM25.02-10.272a1.847,1.847,0,0,0,1.38-.552,1.879,1.879,0,0,0,.54-1.368,1.869,1.869,0,0,0-.54-1.38,1.869,1.869,0,0,0-1.38-.54H22.26v3.84ZM48.948.24A9.07,9.07,0,0,1,44.3-1a9.147,9.147,0,0,1-3.36-3.36A9.07,9.07,0,0,1,39.708-9a9.07,9.07,0,0,1,1.236-4.644A9.147,9.147,0,0,1,44.3-17a9.07,9.07,0,0,1,4.644-1.236,9.117,9.117,0,0,1,4.176.984,8.957,8.957,0,0,1,3.216,2.712l-3.456,2.592a4.574,4.574,0,0,0-1.68-1.4,4.973,4.973,0,0,0-2.256-.516,4.928,4.928,0,0,0-2.484.636,4.607,4.607,0,0,0-1.752,1.752A4.928,4.928,0,0,0,44.076-9a4.928,4.928,0,0,0,.636,2.484,4.607,4.607,0,0,0,1.752,1.752,4.928,4.928,0,0,0,2.484.636A4.973,4.973,0,0,0,51.2-4.644a4.574,4.574,0,0,0,1.68-1.4L56.34-3.456A8.956,8.956,0,0,1,53.124-.744,9.117,9.117,0,0,1,48.948.24Zm21.12-3.432H62.556L61.4,0H56.58L63.8-18H68.82L76.044,0H71.22ZM68.748-6.84l-2.424-6.648L63.9-6.84ZM92.364,0H87.252L83.028-6.672h-1.08V0H77.484V-18h7.944a5.313,5.313,0,0,1,2.808.756,5.359,5.359,0,0,1,1.956,2.052A5.811,5.811,0,0,1,90.9-12.36a5.532,5.532,0,0,1-.972,3.228A4.94,4.94,0,0,1,87.372-7.2ZM84.708-10.272a1.847,1.847,0,0,0,1.38-.552,1.879,1.879,0,0,0,.54-1.368,1.869,1.869,0,0,0-.54-1.38,1.869,1.869,0,0,0-1.38-.54h-2.76v3.84Zm13.7-3.84v3.168h6.1v3.888h-6.1v3.168h7.1V0H93.948V-18h11.568v3.888Z" transform="translate(690 2429)" fill="#fff"/>
            <path id="Path_782" data-name="Path 782" d="M1405.649,691.825a40,40,0,1,0,40,40A40,40,0,0,0,1405.649,691.825Zm-13.078,62.535a4.079,4.079,0,0,1-4.108-4.026l-.277-25.6a4.067,4.067,0,0,1,8.133-.081l.277,25.6A4.077,4.077,0,0,1,1392.572,754.361Zm-.423-35.455a4.808,4.808,0,1,1,4.808-4.808A4.808,4.808,0,0,1,1392.148,718.905Zm13.925,31.646a4.08,4.08,0,0,1-4.108-4.026l-.276-25.6a4.067,4.067,0,1,1,8.133-.081l.276,25.6A4.079,4.079,0,0,1,1406.073,750.552Zm-.424-35.455a4.808,4.808,0,1,1,4.809-4.808A4.808,4.808,0,0,1,1405.649,715.1Zm13.925,39.263a4.078,4.078,0,0,1-4.107-4.026l-.277-25.6a4.067,4.067,0,0,1,8.133-.081l.277,25.6A4.079,4.079,0,0,1,1419.575,754.361Zm-.424-35.455a4.808,4.808,0,1,1,4.809-4.808A4.807,4.807,0,0,1,1419.151,718.905Z" transform="translate(-715.65 1610.498)" fill="#fff"/>
          </g>
        </g>
        <g id="Group_217" data-name="Group 217" transform="translate(267 382)">
          <rect id="Rectangle_517" data-name="Rectangle 517" width="328" height="328" rx="164" transform="translate(1066 2248)" fill="#bf1866"/>
          <g id="Group_206" data-name="Group 206" transform="translate(0 14.75)">
            <path id="Path_800" data-name="Path 800" d="M98.06,23.24A9.2,9.2,0,0,1,88.82,14a9.24,9.24,0,1,1,18.48,0,9.2,9.2,0,0,1-9.24,9.24Zm0-4.368a4.928,4.928,0,0,0,2.484-.636,4.607,4.607,0,0,0,1.752-1.752,5.169,5.169,0,0,0,0-4.968,4.607,4.607,0,0,0-1.752-1.752,5.169,5.169,0,0,0-4.968,0,4.607,4.607,0,0,0-1.752,1.752,5.169,5.169,0,0,0,0,4.968,4.607,4.607,0,0,0,1.752,1.752A4.928,4.928,0,0,0,98.06,18.872ZM124.892,23H119.78l-4.224-6.672h-1.08V23h-4.464V5h7.944a5.322,5.322,0,0,1,4.764,2.808,5.811,5.811,0,0,1,.708,2.832,5.532,5.532,0,0,1-.972,3.228A4.94,4.94,0,0,1,119.9,15.8Zm-7.656-10.272a1.847,1.847,0,0,0,1.38-.552,1.879,1.879,0,0,0,.54-1.368,1.849,1.849,0,0,0-1.92-1.92h-2.76v3.84ZM126.332,5H132.5a10.09,10.09,0,0,1,5.064,1.188A7.7,7.7,0,0,1,140.7,9.416,9.915,9.915,0,0,1,141.74,14a9.915,9.915,0,0,1-1.044,4.584,7.7,7.7,0,0,1-3.132,3.228A10.09,10.09,0,0,1,132.5,23h-6.168Zm5.928,14.112a4.462,4.462,0,0,0,3.588-1.416A5.485,5.485,0,0,0,137.06,14a5.485,5.485,0,0,0-1.212-3.7,4.462,4.462,0,0,0-3.588-1.416H130.8V19.112Zm16.8-10.224v3.168h6.1v3.888h-6.1v3.168h7.1V23H144.6V5h11.568V8.888ZM173.8,23h-5.112l-4.224-6.672h-1.08V23h-4.464V5h7.944a5.322,5.322,0,0,1,4.764,2.808,5.811,5.811,0,0,1,.708,2.832,5.532,5.532,0,0,1-.972,3.228,4.94,4.94,0,0,1-2.556,1.932Zm-7.656-10.272a1.847,1.847,0,0,0,1.38-.552,1.879,1.879,0,0,0,.54-1.368,1.849,1.849,0,0,0-1.92-1.92h-2.76v3.84Zm26.4,10.7-2.064-2.064-.288.288a5.381,5.381,0,0,1-1.8,1.2,5.455,5.455,0,0,1-2.064.408,5.515,5.515,0,0,1-2.088-.408,5.515,5.515,0,0,1-3-3,5.515,5.515,0,0,1-.408-2.088,5.32,5.32,0,0,1,.42-2.064,5.453,5.453,0,0,1,1.188-1.776l.288-.288-.024-.024a5.071,5.071,0,0,1-1.116-1.692,5.205,5.205,0,0,1-.4-1.98,4.951,4.951,0,0,1,.7-2.568A5.218,5.218,0,0,1,183.776,5.5a5.219,5.219,0,0,1,5.208,0,5.218,5.218,0,0,1,1.884,1.872,4.951,4.951,0,0,1,.7,2.568,5.159,5.159,0,0,1-.66,2.568,4.392,4.392,0,0,1-1.788,1.776l-.552.288,1.92,1.92,1.92-1.92L194.852,17l-1.92,1.92L195,20.96ZM186.4,8.264a1.743,1.743,0,0,0-1.752,1.68,1.712,1.712,0,0,0,.528,1.212,1.687,1.687,0,0,0,1.224.492,1.612,1.612,0,0,0,1.176-.5,1.639,1.639,0,0,0,.5-1.2,1.68,1.68,0,0,0-1.68-1.68Zm1.632,10.68L185.2,16.112l-.288.288a2.042,2.042,0,0,0-.444.66,1.939,1.939,0,0,0-.156.756,1.91,1.91,0,0,0,.6,1.392,2.072,2.072,0,0,0,1.44.6,2.045,2.045,0,0,0,1.416-.6ZM56.648,51.24a7.914,7.914,0,0,1-4.212-1.152,7.364,7.364,0,0,1-2.8-2.928l3.552-2.232a3.826,3.826,0,0,0,1.392,1.656,3.755,3.755,0,0,0,2.112.6,2.393,2.393,0,0,0,1.452-.384,1.221,1.221,0,0,0,.516-1.032,1.274,1.274,0,0,0-.384-.936,3.091,3.091,0,0,0-.96-.636q-.576-.252-1.632-.612a18.9,18.9,0,0,1-2.664-1.068,5.151,5.151,0,0,1-1.824-1.6,4.583,4.583,0,0,1-.768-2.76,5.013,5.013,0,0,1,3.048-4.812,6.99,6.99,0,0,1,2.832-.588,7.228,7.228,0,0,1,3.144.708A7.827,7.827,0,0,1,62,35.376l-2.832,2.736a4.167,4.167,0,0,0-2.9-1.56,1.656,1.656,0,0,0-1.068.336,1.185,1.185,0,0,0-.42.984,1.3,1.3,0,0,0,.672,1.176,11.7,11.7,0,0,0,2.16.912,18.969,18.969,0,0,1,2.736,1.116,5.111,5.111,0,0,1,1.86,1.716,5.347,5.347,0,0,1,.78,3.048A4.826,4.826,0,0,1,62.12,48.7a5.627,5.627,0,0,1-2.3,1.884A7.513,7.513,0,0,1,56.648,51.24Zm16.224,0a9.272,9.272,0,0,1-3.864-.792,6.935,6.935,0,0,1-2.772-2.16,4.943,4.943,0,0,1-1.02-3.024V33H69.68V44.424a2.655,2.655,0,0,0,.432,1.464,3.122,3.122,0,0,0,1.164,1.068,3.3,3.3,0,0,0,1.6.4,3.349,3.349,0,0,0,1.62-.4,3.122,3.122,0,0,0,1.164-1.068,2.655,2.655,0,0,0,.432-1.464V33h4.464V45.264a4.943,4.943,0,0,1-1.02,3.024,6.935,6.935,0,0,1-2.772,2.16A9.331,9.331,0,0,1,72.872,51.24ZM95,41.808a4.131,4.131,0,0,1,2.856,4.224,4.937,4.937,0,0,1-.708,2.7A4.5,4.5,0,0,1,95.2,50.424a6.544,6.544,0,0,1-2.8.576H83.816V33h7.656a6.477,6.477,0,0,1,2.82.6,4.653,4.653,0,0,1,1.98,1.74,5,5,0,0,1,.72,2.724A4.026,4.026,0,0,1,95,41.808Zm-2.472-3.264a1.632,1.632,0,0,0-.468-1.164,1.514,1.514,0,0,0-1.14-.492H88.28V40.2h2.64a1.509,1.509,0,0,0,1.128-.5A1.624,1.624,0,0,0,92.528,38.544Zm-.792,8.568a1.58,1.58,0,0,0,1.176-.492,1.651,1.651,0,0,0,0-2.328,1.58,1.58,0,0,0-1.176-.492H88.28v3.312Zm14.28,4.128a7.914,7.914,0,0,1-4.212-1.152,7.364,7.364,0,0,1-2.8-2.928l3.552-2.232a3.826,3.826,0,0,0,1.392,1.656,3.755,3.755,0,0,0,2.112.6,2.393,2.393,0,0,0,1.452-.384,1.221,1.221,0,0,0,.516-1.032,1.274,1.274,0,0,0-.384-.936,3.091,3.091,0,0,0-.96-.636q-.576-.252-1.632-.612a18.9,18.9,0,0,1-2.664-1.068,5.151,5.151,0,0,1-1.824-1.6,4.583,4.583,0,0,1-.768-2.76,5.013,5.013,0,0,1,3.048-4.812,6.99,6.99,0,0,1,2.832-.588,7.228,7.228,0,0,1,3.144.708,7.827,7.827,0,0,1,2.544,1.908l-2.832,2.736a4.167,4.167,0,0,0-2.9-1.56,1.656,1.656,0,0,0-1.068.336,1.185,1.185,0,0,0-.42.984,1.3,1.3,0,0,0,.672,1.176,11.7,11.7,0,0,0,2.16.912,18.969,18.969,0,0,1,2.736,1.116,5.111,5.111,0,0,1,1.86,1.716,5.347,5.347,0,0,1,.78,3.048,4.826,4.826,0,0,1-.864,2.856,5.627,5.627,0,0,1-2.3,1.884A7.513,7.513,0,0,1,106.016,51.24Zm17.256,0a9.24,9.24,0,1,1,4.176-17.5,8.956,8.956,0,0,1,3.216,2.712l-3.456,2.592a4.574,4.574,0,0,0-1.68-1.4,5.179,5.179,0,0,0-4.74.12,4.607,4.607,0,0,0-1.752,1.752,5.169,5.169,0,0,0,0,4.968,4.607,4.607,0,0,0,1.752,1.752,5.179,5.179,0,0,0,4.74.12,4.574,4.574,0,0,0,1.68-1.4l3.456,2.592a8.956,8.956,0,0,1-3.216,2.712A9.117,9.117,0,0,1,123.272,51.24ZM147.7,51h-5.112l-4.224-6.672h-1.08V51h-4.464V33h7.944a5.322,5.322,0,0,1,4.764,2.808,5.811,5.811,0,0,1,.708,2.832,5.532,5.532,0,0,1-.972,3.228,4.94,4.94,0,0,1-2.556,1.932Zm-7.656-10.272a1.847,1.847,0,0,0,1.38-.552,1.915,1.915,0,0,0-1.38-3.288h-2.76v3.84ZM149.288,33h4.464V51h-4.464Zm15.888,0a5.352,5.352,0,0,1,2.772.744,5.407,5.407,0,0,1,1.98,2,5.489,5.489,0,0,1,.72,2.772,5.359,5.359,0,0,1-.72,2.748A5.13,5.13,0,0,1,167.96,43.2a5.618,5.618,0,0,1-2.784.7H161.7V51h-4.464V33Zm-.744,7.272a2.045,2.045,0,0,0,1.392-.48,1.55,1.55,0,0,0,.552-1.224,1.515,1.515,0,0,0-.552-1.212,2.078,2.078,0,0,0-1.392-.468H161.7v3.384Zm19.752-3.384h-4.416V51h-4.44V36.888h-4.44V33h13.3ZM186.248,33h4.464V51h-4.464Zm16.536,18.24A9.2,9.2,0,1,1,207.428,50,9.07,9.07,0,0,1,202.784,51.24Zm0-4.368a4.928,4.928,0,0,0,2.484-.636,4.607,4.607,0,0,0,1.752-1.752,5.169,5.169,0,0,0,0-4.968,4.607,4.607,0,0,0-1.752-1.752,5.169,5.169,0,0,0-4.968,0,4.607,4.607,0,0,0-1.752,1.752,5.169,5.169,0,0,0,0,4.968,4.607,4.607,0,0,0,1.752,1.752A4.928,4.928,0,0,0,202.784,46.872ZM232.112,33V51h-4.68L219.2,39.528V51h-4.464V33h4.656l8.256,11.424V33ZM69.188,61V79H64.724V67.96L58.94,78.04,53.2,67.96V79H48.74V61h4.848l5.376,9.216L64.364,61ZM84.116,75.808H76.6L75.452,79H70.628l7.224-18h5.016l7.224,18H85.268ZM82.8,72.16l-2.424-6.648L77.948,72.16ZM108.908,61V79h-4.68L96,67.528V79H91.532V61h4.656l8.256,11.424V61Zm14.928,14.808h-7.512L115.172,79h-4.824l7.224-18h5.016l7.224,18h-4.824Zm-1.32-3.648-2.424-6.648-2.424,6.648Zm24.96-3.6V79h-3.192l-.432-1.344a6.12,6.12,0,0,1-4.488,1.584,9.24,9.24,0,1,1,4.176-17.5,8.956,8.956,0,0,1,3.216,2.712L143.3,67.048a4.574,4.574,0,0,0-1.68-1.4,5.179,5.179,0,0,0-4.74.12,4.607,4.607,0,0,0-1.752,1.752,5.169,5.169,0,0,0,0,4.968,4.607,4.607,0,0,0,1.752,1.752,4.928,4.928,0,0,0,2.484.636,5.075,5.075,0,0,0,2.112-.444,4.423,4.423,0,0,0,1.632-1.236v-.744h-3V68.56Zm7.488-3.672v3.168h6.1v3.888h-6.1v3.168h7.1V79H150.5V61h11.568v3.888ZM185.276,61V79h-4.464V67.96l-5.784,10.08-5.736-10.08V79h-4.464V61h4.848l5.376,9.216,5.4-9.216Zm7.968,3.888v3.168h6.1v3.888h-6.1v3.168h7.1V79H188.78V61h11.568v3.888ZM220.484,61V79H215.8l-8.232-11.472V79h-4.464V61h4.656l8.256,11.424V61ZM235.7,64.888h-4.416V79h-4.44V64.888H222.4V61h13.3Z" transform="translate(1089 2406)" fill="#fff"/>
            <path id="Path_718" data-name="Path 718" d="M1406.638,319.914a40.988,40.988,0,1,0,40.988,40.988A40.988,40.988,0,0,0,1406.638,319.914Zm-14.222,36.813,28.449.015a4.167,4.167,0,1,1,0,8.335l-28.449-.015a4.167,4.167,0,0,1,0-8.335Zm15.591,19.473-28.449-.015a4.167,4.167,0,0,1,0-8.335l28.449.015a4.168,4.168,0,0,1,0,8.335Zm13.486,7.85a4.177,4.177,0,1,1,4.177-4.177A4.177,4.177,0,0,1,1421.493,384.05Zm12.189-30.191-28.45-.015a4.167,4.167,0,0,1,0-8.335l28.45.015a4.167,4.167,0,0,1,0,8.335Z" transform="translate(-176.626 1980.336)" fill="#fff"/>
          </g>
        </g>
      </g>
      <g id="Group_220" data-name="Group 220" transform="translate(10.5 54)">
        <g id="Group_218" data-name="Group 218" transform="translate(-242 263)">
          <rect id="Rectangle_519" data-name="Rectangle 519" width="328" height="328" rx="164" transform="translate(1308 2837)" fill="#f1634b"/>
          <g id="Group_208" data-name="Group 208" transform="translate(0 28.045)">
            <path id="Path_802" data-name="Path 802" d="M85.608,13.808a4.131,4.131,0,0,1,2.856,4.224,4.937,4.937,0,0,1-.708,2.7,4.5,4.5,0,0,1-1.944,1.692,6.543,6.543,0,0,1-2.8.576H74.424V5H82.08a6.477,6.477,0,0,1,2.82.6,4.653,4.653,0,0,1,1.98,1.74,5,5,0,0,1,.72,2.724A4.025,4.025,0,0,1,85.608,13.808Zm-2.472-3.264a1.632,1.632,0,0,0-.468-1.164,1.514,1.514,0,0,0-1.14-.492h-2.64V12.2h2.64a1.509,1.509,0,0,0,1.128-.5A1.624,1.624,0,0,0,83.136,10.544Zm-.792,8.568a1.58,1.58,0,0,0,1.176-.492,1.651,1.651,0,0,0,0-2.328,1.58,1.58,0,0,0-1.176-.492H78.888v3.312Zm16.08,4.128a9.272,9.272,0,0,1-3.864-.792,6.935,6.935,0,0,1-2.772-2.16,4.943,4.943,0,0,1-1.02-3.024V5h4.464V16.424a2.655,2.655,0,0,0,.432,1.464,3.122,3.122,0,0,0,1.164,1.068,3.3,3.3,0,0,0,1.6.4,3.349,3.349,0,0,0,1.62-.4,3.122,3.122,0,0,0,1.164-1.068,2.655,2.655,0,0,0,.432-1.464V5H106.1V17.264a4.943,4.943,0,0,1-1.02,3.024,6.935,6.935,0,0,1-2.772,2.16A9.331,9.331,0,0,1,98.424,23.24Zm16.7,0a7.914,7.914,0,0,1-4.212-1.152,7.364,7.364,0,0,1-2.8-2.928l3.552-2.232a3.826,3.826,0,0,0,1.392,1.656,3.755,3.755,0,0,0,2.112.6,2.393,2.393,0,0,0,1.452-.384,1.221,1.221,0,0,0,.516-1.032,1.274,1.274,0,0,0-.384-.936,3.091,3.091,0,0,0-.96-.636q-.576-.252-1.632-.612a18.9,18.9,0,0,1-2.664-1.068,5.151,5.151,0,0,1-1.824-1.6,4.583,4.583,0,0,1-.768-2.76,5.013,5.013,0,0,1,3.048-4.812,6.99,6.99,0,0,1,2.832-.588,7.228,7.228,0,0,1,3.144.708,7.827,7.827,0,0,1,2.544,1.908l-2.832,2.736a4.167,4.167,0,0,0-2.9-1.56,1.656,1.656,0,0,0-1.068.336,1.185,1.185,0,0,0-.42.984,1.3,1.3,0,0,0,.672,1.176,11.7,11.7,0,0,0,2.16.912,18.969,18.969,0,0,1,2.736,1.116,5.111,5.111,0,0,1,1.86,1.716,5.347,5.347,0,0,1,.78,3.048A4.826,4.826,0,0,1,120.6,20.7a5.627,5.627,0,0,1-2.3,1.884A7.513,7.513,0,0,1,115.128,23.24ZM123.936,5H128.4V23h-4.464Zm25.32,0V23h-4.68l-8.232-11.472V23H131.88V5h4.656l8.256,11.424V5Zm7.968,3.888v3.168h6.1v3.888h-6.1v3.168h7.1V23H152.76V5h11.568V8.888ZM172.848,23.24a7.914,7.914,0,0,1-4.212-1.152,7.364,7.364,0,0,1-2.8-2.928l3.552-2.232a3.826,3.826,0,0,0,1.392,1.656,3.755,3.755,0,0,0,2.112.6,2.393,2.393,0,0,0,1.452-.384,1.221,1.221,0,0,0,.516-1.032,1.274,1.274,0,0,0-.384-.936,3.091,3.091,0,0,0-.96-.636q-.576-.252-1.632-.612a18.9,18.9,0,0,1-2.664-1.068,5.151,5.151,0,0,1-1.824-1.6,4.583,4.583,0,0,1-.768-2.76,5.013,5.013,0,0,1,3.048-4.812,6.99,6.99,0,0,1,2.832-.588,7.228,7.228,0,0,1,3.144.708A7.826,7.826,0,0,1,178.2,7.376l-2.832,2.736a4.167,4.167,0,0,0-2.9-1.56,1.656,1.656,0,0,0-1.068.336,1.185,1.185,0,0,0-.42.984,1.3,1.3,0,0,0,.672,1.176,11.7,11.7,0,0,0,2.16.912,18.969,18.969,0,0,1,2.736,1.116,5.111,5.111,0,0,1,1.86,1.716,5.347,5.347,0,0,1,.78,3.048,4.826,4.826,0,0,1-.864,2.856,5.627,5.627,0,0,1-2.3,1.884A7.513,7.513,0,0,1,172.848,23.24Zm14.424,0a7.914,7.914,0,0,1-4.212-1.152,7.364,7.364,0,0,1-2.8-2.928l3.552-2.232a3.826,3.826,0,0,0,1.392,1.656,3.755,3.755,0,0,0,2.112.6,2.393,2.393,0,0,0,1.452-.384,1.221,1.221,0,0,0,.516-1.032,1.274,1.274,0,0,0-.384-.936,3.091,3.091,0,0,0-.96-.636q-.576-.252-1.632-.612a18.9,18.9,0,0,1-2.664-1.068,5.151,5.151,0,0,1-1.824-1.6,4.583,4.583,0,0,1-.768-2.76A5.013,5.013,0,0,1,184.1,5.348a6.99,6.99,0,0,1,2.832-.588,7.228,7.228,0,0,1,3.144.708,7.827,7.827,0,0,1,2.544,1.908l-2.832,2.736a4.167,4.167,0,0,0-2.9-1.56,1.656,1.656,0,0,0-1.068.336,1.185,1.185,0,0,0-.42.984,1.3,1.3,0,0,0,.672,1.176,11.7,11.7,0,0,0,2.16.912,18.969,18.969,0,0,1,2.736,1.116,5.111,5.111,0,0,1,1.86,1.716,5.347,5.347,0,0,1,.78,3.048,4.826,4.826,0,0,1-.864,2.856,5.627,5.627,0,0,1-2.3,1.884A7.513,7.513,0,0,1,187.272,23.24ZM47.112,33h4.464V51H47.112Zm25.32,0V51h-4.68L59.52,39.528V51H55.056V33h4.656l8.256,11.424V33Zm15.216,3.888H83.232V51h-4.44V36.888h-4.44V33h13.3Zm6.528,0v3.168h6.1v3.888h-6.1v3.168h7.1V51H89.712V33H101.28v3.888Zm20.112,10.224V51H104.04V33H108.5V47.112Zm11.928,0V51H115.968V33h4.464V47.112ZM128.04,33H132.5V51H128.04Zm24.648,7.56V51H149.5l-.432-1.344a6.12,6.12,0,0,1-4.488,1.584,9.24,9.24,0,1,1,4.176-17.5,8.956,8.956,0,0,1,3.216,2.712l-3.456,2.592a4.574,4.574,0,0,0-1.68-1.4,5.179,5.179,0,0,0-4.74.12,4.607,4.607,0,0,0-1.752,1.752,5.169,5.169,0,0,0,0,4.968,4.607,4.607,0,0,0,1.752,1.752,4.928,4.928,0,0,0,2.484.636,5.075,5.075,0,0,0,2.112-.444,4.423,4.423,0,0,0,1.632-1.236v-.744h-3V40.56Zm7.488-3.672v3.168h6.1v3.888h-6.1v3.168h7.1V51H155.712V33H167.28v3.888ZM187.416,33V51h-4.68L174.5,39.528V51H170.04V33H174.7l8.256,11.424V33Zm11.952,18.24a9.24,9.24,0,1,1,4.176-17.5,8.956,8.956,0,0,1,3.216,2.712L203.3,39.048a4.574,4.574,0,0,0-1.68-1.4,5.179,5.179,0,0,0-4.74.12,4.607,4.607,0,0,0-1.752,1.752,5.169,5.169,0,0,0,0,4.968,4.607,4.607,0,0,0,1.752,1.752,5.179,5.179,0,0,0,4.74.12,4.574,4.574,0,0,0,1.68-1.4l3.456,2.592a8.956,8.956,0,0,1-3.216,2.712A9.117,9.117,0,0,1,199.368,51.24Zm14.16-14.352v3.168h6.1v3.888h-6.1v3.168h7.1V51H209.064V33h11.568v3.888Z" transform="translate(1339 2995)" fill="#fff"/>
            <path id="Path_721" data-name="Path 721" d="M1405.355,877.781a39.705,39.705,0,1,0,39.7,39.706A39.705,39.705,0,0,0,1405.355,877.781Zm-.419,8.9h0a4.047,4.047,0,0,1,4.077,4l.275,38.617a4.037,4.037,0,0,1-8.074.08l-.274-38.615A4.049,4.049,0,0,1,1404.935,886.683Zm-9.409,47.1a4.049,4.049,0,0,1-5.2-2.361l-8.95-23.782a4.037,4.037,0,0,1,7.559-2.837l8.951,23.781A4.049,4.049,0,0,1,1395.527,933.784Zm9.828,13.034a4.773,4.773,0,1,1,4.773-4.773A4.774,4.774,0,0,1,1405.355,946.818Zm23.977-39.177-8.95,23.782a4.037,4.037,0,0,1-7.559-2.838l8.95-23.781a4.037,4.037,0,0,1,7.558,2.837Z" transform="translate(67.08 2014.174)" fill="#fff"/>
          </g>
        </g>
        <g id="Group_216" data-name="Group 216" transform="translate(-290 828)">
          <g id="Group_210" data-name="Group 210" transform="translate(-4 -770)">
            <rect id="Rectangle_515" data-name="Rectangle 515" width="328" height="328" rx="164" transform="translate(800 3042)" fill="#37c3f2"/>
            <g id="Group_209" data-name="Group 209" transform="translate(0.5 25.819)">
              <path id="Path_801" data-name="Path 801" d="M-98.244-9.192a4.131,4.131,0,0,1,2.856,4.224,4.937,4.937,0,0,1-.708,2.7A4.5,4.5,0,0,1-98.04-.576a6.543,6.543,0,0,1-2.8.576h-8.592V-18h7.656a6.477,6.477,0,0,1,2.82.6,4.653,4.653,0,0,1,1.98,1.74,5,5,0,0,1,.72,2.724A4.026,4.026,0,0,1-98.244-9.192Zm-2.472-3.264a1.632,1.632,0,0,0-.468-1.164,1.514,1.514,0,0,0-1.14-.492h-2.64V-10.8h2.64a1.509,1.509,0,0,0,1.128-.5A1.624,1.624,0,0,0-100.716-12.456Zm-.792,8.568a1.58,1.58,0,0,0,1.176-.492,1.611,1.611,0,0,0,.48-1.164,1.611,1.611,0,0,0-.48-1.164,1.58,1.58,0,0,0-1.176-.492h-3.456v3.312ZM-78.108,0H-83.22l-4.224-6.672h-1.08V0h-4.464V-18h7.944a5.313,5.313,0,0,1,2.808.756,5.359,5.359,0,0,1,1.956,2.052,5.811,5.811,0,0,1,.708,2.832,5.532,5.532,0,0,1-.972,3.228A4.94,4.94,0,0,1-83.1-7.2Zm-7.656-10.272a1.847,1.847,0,0,0,1.38-.552,1.879,1.879,0,0,0,.54-1.368,1.869,1.869,0,0,0-.54-1.38,1.869,1.869,0,0,0-1.38-.54h-2.76v3.84Zm22.1,7.08h-7.512L-72.324,0h-4.824l7.224-18h5.016l7.224,18h-4.824ZM-64.98-6.84-67.4-13.488-69.828-6.84ZM-38.868-18V0h-4.68L-51.78-11.472V0h-4.464V-18h4.656l8.256,11.424V-18Zm3.36,0h6.168a10.09,10.09,0,0,1,5.064,1.188,7.7,7.7,0,0,1,3.132,3.228A9.915,9.915,0,0,1-20.1-9a9.915,9.915,0,0,1-1.044,4.584,7.7,7.7,0,0,1-3.132,3.228A10.09,10.09,0,0,1-29.34,0h-6.168ZM-29.58-3.888A4.462,4.462,0,0,0-25.992-5.3,5.485,5.485,0,0,0-24.78-9a5.485,5.485,0,0,0-1.212-3.7,4.462,4.462,0,0,0-3.588-1.416h-1.464V-3.888ZM-17.22-7.8h8.4v3.12h-8.4ZM-.684-14.112v3.168h6.1v3.888h-6.1V0H-5.148V-18H6.42v3.888ZM17.172.24A9.07,9.07,0,0,1,12.528-1a9.147,9.147,0,0,1-3.36-3.36A9.07,9.07,0,0,1,7.932-9a9.07,9.07,0,0,1,1.236-4.644A9.147,9.147,0,0,1,12.528-17a9.07,9.07,0,0,1,4.644-1.236A9.07,9.07,0,0,1,21.816-17a9.147,9.147,0,0,1,3.36,3.36A9.07,9.07,0,0,1,26.412-9a9.07,9.07,0,0,1-1.236,4.644A9.147,9.147,0,0,1,21.816-1,9.07,9.07,0,0,1,17.172.24Zm0-4.368a4.928,4.928,0,0,0,2.484-.636,4.607,4.607,0,0,0,1.752-1.752A4.928,4.928,0,0,0,22.044-9a4.928,4.928,0,0,0-.636-2.484,4.607,4.607,0,0,0-1.752-1.752,4.928,4.928,0,0,0-2.484-.636,4.928,4.928,0,0,0-2.484.636,4.607,4.607,0,0,0-1.752,1.752A4.928,4.928,0,0,0,12.3-9a4.928,4.928,0,0,0,.636,2.484,4.607,4.607,0,0,0,1.752,1.752A4.928,4.928,0,0,0,17.172-4.128ZM37.716.24A9.07,9.07,0,0,1,33.072-1a9.147,9.147,0,0,1-3.36-3.36A9.07,9.07,0,0,1,28.476-9a9.07,9.07,0,0,1,1.236-4.644A9.147,9.147,0,0,1,33.072-17a9.07,9.07,0,0,1,4.644-1.236,9.117,9.117,0,0,1,4.176.984,8.957,8.957,0,0,1,3.216,2.712l-3.456,2.592a4.574,4.574,0,0,0-1.68-1.4,4.973,4.973,0,0,0-2.256-.516,4.928,4.928,0,0,0-2.484.636,4.607,4.607,0,0,0-1.752,1.752A4.928,4.928,0,0,0,32.844-9a4.928,4.928,0,0,0,.636,2.484,4.607,4.607,0,0,0,1.752,1.752,4.928,4.928,0,0,0,2.484.636,4.973,4.973,0,0,0,2.256-.516,4.574,4.574,0,0,0,1.68-1.4l3.456,2.592A8.956,8.956,0,0,1,41.892-.744,9.117,9.117,0,0,1,37.716.24Zm17.112,0a9.272,9.272,0,0,1-3.864-.792,6.935,6.935,0,0,1-2.772-2.16,4.943,4.943,0,0,1-1.02-3.024V-18h4.464V-6.576a2.655,2.655,0,0,0,.432,1.464,3.122,3.122,0,0,0,1.164,1.068,3.3,3.3,0,0,0,1.6.4,3.349,3.349,0,0,0,1.62-.4,3.122,3.122,0,0,0,1.164-1.068,2.655,2.655,0,0,0,.432-1.464V-18h4.464V-5.736a4.943,4.943,0,0,1-1.02,3.024,6.935,6.935,0,0,1-2.772,2.16A9.331,9.331,0,0,1,54.828.24Zm16.7,0A7.914,7.914,0,0,1,67.32-.912a7.364,7.364,0,0,1-2.8-2.928l3.552-2.232a3.826,3.826,0,0,0,1.392,1.656,3.755,3.755,0,0,0,2.112.6A2.393,2.393,0,0,0,73.032-4.2a1.221,1.221,0,0,0,.516-1.032,1.274,1.274,0,0,0-.384-.936A3.091,3.091,0,0,0,72.2-6.8q-.576-.252-1.632-.612a18.9,18.9,0,0,1-2.664-1.068,5.151,5.151,0,0,1-1.824-1.6,4.583,4.583,0,0,1-.768-2.76,5.122,5.122,0,0,1,.852-3,5.143,5.143,0,0,1,2.2-1.812A6.99,6.99,0,0,1,71.2-18.24a7.228,7.228,0,0,1,3.144.708,7.827,7.827,0,0,1,2.544,1.908l-2.832,2.736a4.167,4.167,0,0,0-2.9-1.56,1.656,1.656,0,0,0-1.068.336,1.185,1.185,0,0,0-.42.984,1.3,1.3,0,0,0,.672,1.176,11.7,11.7,0,0,0,2.16.912,18.969,18.969,0,0,1,2.736,1.116,5.111,5.111,0,0,1,1.86,1.716,5.347,5.347,0,0,1,.78,3.048A4.826,4.826,0,0,1,77-2.3,5.627,5.627,0,0,1,74.7-.42,7.513,7.513,0,0,1,71.532.24ZM84.8-14.112v3.168h6.1v3.888H84.8v3.168h7.1V0H80.34V-18H91.908v3.888ZM94.668-18h6.168a10.09,10.09,0,0,1,5.064,1.188,7.7,7.7,0,0,1,3.132,3.228A9.915,9.915,0,0,1,110.076-9a9.915,9.915,0,0,1-1.044,4.584A7.7,7.7,0,0,1,105.9-1.188,10.09,10.09,0,0,1,100.836,0H94.668ZM100.6-3.888A4.462,4.462,0,0,0,104.184-5.3,5.485,5.485,0,0,0,105.4-9a5.485,5.485,0,0,0-1.212-3.7,4.462,4.462,0,0,0-3.588-1.416H99.132V-3.888ZM-75.168,13.888v3.168h6.1v3.888h-6.1V28h-4.464V10h11.568v3.888ZM-58.344,28.24a9.272,9.272,0,0,1-3.864-.792,6.935,6.935,0,0,1-2.772-2.16A4.943,4.943,0,0,1-66,22.264V10h4.464V21.424a2.655,2.655,0,0,0,.432,1.464,3.122,3.122,0,0,0,1.164,1.068,3.3,3.3,0,0,0,1.6.4,3.349,3.349,0,0,0,1.62-.4,3.122,3.122,0,0,0,1.164-1.068,2.655,2.655,0,0,0,.432-1.464V10h4.464V22.264a4.943,4.943,0,0,1-1.02,3.024,6.935,6.935,0,0,1-2.772,2.16A9.331,9.331,0,0,1-58.344,28.24Zm21.192-4.128V28H-47.4V10h4.464V24.112Zm6.288-10.224v3.168h6.1v3.888h-6.1V28h-4.464V10H-23.76v3.888ZM-21.456,10h4.464V28h-4.464ZM-3.264,24.112V28H-13.512V10h4.464V24.112Zm11.928,0V28H-1.584V10H2.88V24.112ZM30.792,10V28H26.328V16.96L20.544,27.04,14.808,16.96V28H10.344V10h4.848l5.376,9.216L25.968,10Zm7.968,3.888v3.168h6.1v3.888h-6.1v3.168h7.1V28H34.3V10H45.864v3.888ZM66,10V28H61.32L53.088,16.528V28H48.624V10H53.28l8.256,11.424V10Zm15.216,3.888H76.8V28H72.36V13.888H67.92V10h13.3Z" transform="translate(963.5 3223)" fill="#fff"/>
              <path id="Path_784" data-name="Path 784" d="M1405.72,505.87a40.071,40.071,0,1,0,40.071,40.071A40.07,40.07,0,0,0,1405.72,505.87Zm21.349,19.506a4.084,4.084,0,0,1-.542,5.736L1405.1,548.839a4.074,4.074,0,1,1-5.193-6.279l21.43-17.728A4.087,4.087,0,0,1,1427.069,525.376Zm-40.628,13.074,21.43-17.728a4.074,4.074,0,0,1,5.194,6.278l-21.431,17.728a4.087,4.087,0,0,1-5.737-.542h0A4.087,4.087,0,0,1,1386.441,538.449Zm29.54,15.284-21.43,17.727a4.086,4.086,0,0,1-5.736-.542h0a4.086,4.086,0,0,1,.542-5.736l21.431-17.727a4.074,4.074,0,1,1,5.193,6.278Zm11.331-2.431a4.778,4.778,0,1,1,4.776-4.778A4.777,4.777,0,0,1,1427.311,551.3Z" transform="translate(-442.151 2590.312)" fill="#fff"/>
            </g>
          </g>
          <rect id="Rectangle_516" data-name="Rectangle 516" width="329" height="66" rx="33" transform="translate(795.5 2556)" fill="#f2dc4f"/>
          <path id="Path_803" data-name="Path 803" d="M14.7,18.28a6.247,6.247,0,0,0,3.35.92,6.087,6.087,0,0,0,2.56-.53,4.367,4.367,0,0,0,1.84-1.53,4.06,4.06,0,0,0,.68-2.34A4.085,4.085,0,0,0,21,10.97,17.077,17.077,0,0,0,18.75,10q-.9-.32-1.41-.56a2.578,2.578,0,0,1-.84-.61,1.291,1.291,0,0,1-.33-.89,1.264,1.264,0,0,1,.46-1.06,1.858,1.858,0,0,1,1.18-.36,3.29,3.29,0,0,1,2.48,1.3L22.35,5.9a6.036,6.036,0,0,0-2.01-1.53,5.783,5.783,0,0,0-2.53-.57,5.434,5.434,0,0,0-2.29.49,4.113,4.113,0,0,0-1.73,1.47,4.161,4.161,0,0,0-.66,2.38,3.714,3.714,0,0,0,.61,2.2,4.189,4.189,0,0,0,1.46,1.31,18.94,18.94,0,0,0,2.19.95q.94.34,1.47.59a2.847,2.847,0,0,1,.89.64,1.35,1.35,0,0,1,.36.95,1.332,1.332,0,0,1-.55,1.13,2.439,2.439,0,0,1-1.49.41,3.211,3.211,0,0,1-1.84-.54,3.314,3.314,0,0,1-1.2-1.46L12.49,15.9A5.775,5.775,0,0,0,14.7,18.28ZM34.25,6.78V4H23.51V6.78h3.82V19h3.1V6.78ZM44.99,16.1,46.07,19h3.38L43.43,4h-3.5L33.91,19h3.38l1.08-2.9Zm-.96-2.62H39.35L41.69,7.2ZM64.69,4h-3.1V14.32L54.03,4h-3.2V19h3.12V8.64L61.49,19h3.2Zm3.04,0V19h4.84a8.032,8.032,0,0,0,4.09-1,6.762,6.762,0,0,0,2.64-2.7,7.923,7.923,0,0,0,.91-3.8,7.923,7.923,0,0,0-.91-3.8A6.762,6.762,0,0,0,76.66,5a8.032,8.032,0,0,0-4.09-1Zm4.7,12.22h-1.6V6.78h1.6a4.668,4.668,0,0,1,2.44.61,4.036,4.036,0,0,1,1.56,1.68,5.319,5.319,0,0,1,.54,2.43,5.319,5.319,0,0,1-.54,2.43,4.036,4.036,0,0,1-1.56,1.68A4.668,4.668,0,0,1,72.43,16.22Zm19.3-.12L92.81,19h3.38L90.17,4h-3.5L80.65,19h3.38l1.08-2.9Zm-.96-2.62H86.09L88.43,7.2Zm14.96,2.74h-5.04V4H97.57V19h8.16Zm4.55,1.95a7.694,7.694,0,0,0,11.57-6.67,7.7,7.7,0,1,0-15.4,0,7.669,7.669,0,0,0,3.83,6.67Zm6.23-2.64a4.87,4.87,0,0,1-4.72,0,4.462,4.462,0,0,1-1.67-1.67,4.646,4.646,0,0,1-.61-2.36,4.646,4.646,0,0,1,.61-2.36,4.462,4.462,0,0,1,1.67-1.67,4.87,4.87,0,0,1,4.72,0,4.463,4.463,0,0,1,1.67,1.67,4.646,4.646,0,0,1,.61,2.36,4.646,4.646,0,0,1-.61,2.36A4.462,4.462,0,0,1,116.51,15.53ZM138.21,4h-3.1V14.32L127.55,4h-3.2V19h3.12V8.64L135.01,19h3.2Zm6.28,2.76h6.1V4h-9.22V19h9.22V16.24h-6.1V12.88h5.26V10.12h-5.26Zm14.99,11.52a6.247,6.247,0,0,0,3.35.92,6.088,6.088,0,0,0,2.56-.53,4.367,4.367,0,0,0,1.84-1.53,4.06,4.06,0,0,0,.68-2.34,4.085,4.085,0,0,0-2.13-3.83,17.077,17.077,0,0,0-2.25-.97q-.9-.32-1.41-.56a2.578,2.578,0,0,1-.84-.61,1.291,1.291,0,0,1-.33-.89,1.264,1.264,0,0,1,.46-1.06,1.858,1.858,0,0,1,1.18-.36,3.29,3.29,0,0,1,2.48,1.3l2.06-1.92a6.036,6.036,0,0,0-2.01-1.53,5.783,5.783,0,0,0-2.53-.57,5.434,5.434,0,0,0-2.29.49,4.113,4.113,0,0,0-1.73,1.47,4.162,4.162,0,0,0-.66,2.38,3.714,3.714,0,0,0,.61,2.2,4.189,4.189,0,0,0,1.46,1.31,18.941,18.941,0,0,0,2.19.95q.94.34,1.47.59a2.847,2.847,0,0,1,.89.64,1.35,1.35,0,0,1,.36.95,1.332,1.332,0,0,1-.55,1.13,2.439,2.439,0,0,1-1.49.41,3.211,3.211,0,0,1-1.84-.54,3.313,3.313,0,0,1-1.2-1.46l-2.54,1.58A5.775,5.775,0,0,0,159.48,18.28ZM173.25,6.76h6.1V4h-9.22V19h9.22V16.24h-6.1V12.88h5.26V10.12h-5.26ZM193.63,19l-4.24-6.24a4.123,4.123,0,0,0,2.23-1.53,4.3,4.3,0,0,0,.87-2.67,4.579,4.579,0,0,0-.59-2.3,4.446,4.446,0,0,0-1.61-1.65A4.32,4.32,0,0,0,188.03,4h-6.26V19h3.12V13.08h1.42L190.03,19Zm-4.68-9.03a1.862,1.862,0,0,1-1.36.53h-2.7V6.78h2.7a1.862,1.862,0,0,1,1.36.53,1.786,1.786,0,0,1,.54,1.33A1.786,1.786,0,0,1,188.95,9.97ZM208.89,4h-3.5l-4.26,11.68L196.85,4h-3.5l6.02,15h3.5Zm1.36,0V19h3.12V4Zm9.63,14.17a7.681,7.681,0,0,0,9.81-1.81l-2.38-1.86a4.371,4.371,0,0,1-1.56,1.2,4.822,4.822,0,0,1-4.36-.17,4.462,4.462,0,0,1-1.67-1.67,4.646,4.646,0,0,1-.61-2.36,4.646,4.646,0,0,1,.61-2.36,4.462,4.462,0,0,1,1.67-1.67,4.646,4.646,0,0,1,2.36-.61,4.731,4.731,0,0,1,2.01.43,4.2,4.2,0,0,1,1.55,1.21l2.38-1.86a7.344,7.344,0,0,0-2.61-2.08,7.735,7.735,0,0,0-7.2.27,7.669,7.669,0,0,0-3.83,6.67,7.669,7.669,0,0,0,3.83,6.67ZM234.97,6.76h6.1V4h-9.22V19h9.22V16.24h-6.1V12.88h5.26V10.12h-5.26Z" transform="translate(833.5 2577)" fill="#45454a"/>
        </g>
      </g>
    </g>
  </g>
</svg>
