<svg xmlns="http://www.w3.org/2000/svg" xmlns:xlink="http://www.w3.org/1999/xlink" width="233" height="59" viewBox="0 0 233 59">
  <defs>
    <clipPath id="clip-path">
      <rect id="Rectangle_569" data-name="Rectangle 569" width="232.956" height="59"/>
    </clipPath>
    <clipPath id="clip-proactive-logo">
      <rect width="233" height="59"/>
    </clipPath>
  </defs>
  <g id="proactive-logo" clip-path="url(#clip-proactive-logo)">
    <g id="Logo:_Proactiv" transform="translate(0 -0.3)">
      <g id="Group_285" data-name="Group 285" transform="translate(0 0.3)">
        <g id="Group_284" data-name="Group 284" clip-path="url(#clip-path)">
          <g id="Group_275" data-name="Group 275" clip-path="url(#clip-path)">
            <path id="Path_1071" data-name="Path 1071" d="M17.091,8.8a14.905,14.905,0,0,0-11,4.8V9.5H0V57.849H5.97V38.417a15.3,15.3,0,0,0,11.472,4.8,15.6,15.6,0,0,0,12.175-5.151,17.4,17.4,0,0,0,4.8-12.058A16.971,16.971,0,0,0,17.091,8.8m-.234,28.8C11,37.6,5.736,32.564,5.736,25.774c0-6.087,5.268-11.355,11-11.355,6.2,0,11.355,4.917,11.355,11.823A11.266,11.266,0,0,1,16.857,37.6" transform="translate(0 1.15)" fill="#555759"/>
          </g>
          <g id="Group_276" data-name="Group 276" clip-path="url(#clip-path)">
            <path id="Path_1072" data-name="Path 1072" d="M63.54,8.5A16.59,16.59,0,0,0,51.483,14,17.294,17.294,0,0,0,46.8,26.059a17.688,17.688,0,0,0,4.917,12.175,16.6,16.6,0,0,0,24.466-.468,18.03,18.03,0,0,0,4.565-12.175,17.227,17.227,0,0,0-5.034-12.058A16.7,16.7,0,0,0,63.54,8.5m.351,29.032C57.687,37.532,53,32.615,53,26.059c0-6.79,4.917-11.589,10.887-11.589,6.087,0,10.887,4.683,10.887,11.472-.117,6.79-4.917,11.589-10.887,11.589" transform="translate(7.986 1.099)" fill="#555759"/>
          </g>
          <g id="Group_277" data-name="Group 277" clip-path="url(#clip-path)">
            <path id="Path_1073" data-name="Path 1073" d="M96.157,8.7a16.254,16.254,0,0,0-12.175,5.034A17.294,17.294,0,0,0,79.3,25.791c0,9.833,7.258,17.325,17.208,17.325a14.905,14.905,0,0,0,11-4.8v4.1h5.97V9.519h-5.97V13.5A14.7,14.7,0,0,0,96.157,8.7m.7,28.915c-6.2,0-11.355-4.917-11.355-11.823A11.266,11.266,0,0,1,96.742,14.436c5.853,0,11.121,5.034,11.121,11.823,0,6.087-5.268,11.355-11,11.355" transform="translate(13.531 1.133)" fill="#555759"/>
          </g>
          <g id="Group_278" data-name="Group 278" clip-path="url(#clip-path)">
            <path id="Path_1074" data-name="Path 1074" d="M130.108,8.6a16.776,16.776,0,0,0-12.526,5.5,17.217,17.217,0,0,0-4.683,11.94,17.688,17.688,0,0,0,4.917,12.175,16,16,0,0,0,12.058,5.034c7.843,0,13.345-4.214,16.038-12.057h-6.556a10.3,10.3,0,0,1-9.6,6.2c-6.087,0-10.887-4.917-10.887-11.472,0-6.673,4.8-11.472,10.536-11.472a10.307,10.307,0,0,1,9.833,5.97h6.556C143.453,12.814,137.6,8.6,130.108,8.6" transform="translate(19.264 1.116)" fill="#555759"/>
          </g>
          <g id="Group_279" data-name="Group 279" clip-path="url(#clip-path)">
            <path id="Path_1075" data-name="Path 1075" d="M168.353.3H162.5V6.738h5.853Zm0,10.653H162.5V43.847h5.853Z" transform="translate(27.728 -0.3)" fill="#555759"/>
          </g>
          <g id="Group_280" data-name="Group 280" clip-path="url(#clip-path)">
            <path id="Path_1076" data-name="Path 1076" d="M201.3,9.4h-6.2l-8.9,24-8.663-24H171.1l12.526,32.895h4.565Z" transform="translate(29.195 1.253)" fill="#555759"/>
          </g>
          <g id="Group_281" data-name="Group 281" clip-path="url(#clip-path)">
            <path id="Path_1077" data-name="Path 1077" d="M49.086,8.8a14.622,14.622,0,0,0-9.716,4.8V9.5H33.4V42.4h5.97V26.242c0-7.024,4.331-11.121,9.716-11.706Z" transform="translate(5.699 1.15)" fill="#555759"/>
          </g>
          <g id="Group_282" data-name="Group 282" clip-path="url(#clip-path)">
            <path id="Path_1078" data-name="Path 1078" d="M153.65.3h-5.736V10.836H143.7V16.1h3.98V32.258c0,10.067,7.375,11.472,11.472,11.589V38.58c-2.341-.234-5.5-1.639-5.5-6.907V16.1h5.5V10.836h-5.5Z" transform="translate(24.52 -0.3)" fill="#555759"/>
          </g>
          <g id="Group_283" data-name="Group 283" clip-path="url(#clip-path)">
            <path id="Path_1079" data-name="Path 1079" d="M199.836,35.91a2.773,2.773,0,0,1-2.81,2.81,2.812,2.812,0,1,1,0-5.619,2.93,2.93,0,0,1,2.81,2.81m-5.034,0a2.152,2.152,0,0,0,2.224,2.224,2.227,2.227,0,0,0,0-4.448A2.223,2.223,0,0,0,194.8,35.91m1.756,1.522h-.7v-2.81c.234,0,.585-.117,1.054-.117.585,0,.819.117.937.234a.894.894,0,0,1,.234.585.742.742,0,0,1-.585.7h0a.79.79,0,0,1,.468.7c.117.468.117.585.234.7h-.7c-.117-.117-.117-.351-.234-.7,0-.351-.234-.468-.585-.468h-.351v1.171Zm0-1.639h.351c.351,0,.7-.117.7-.351a.536.536,0,0,0-.585-.468h-.351v.819Z" transform="translate(33.119 5.297)" fill="#555759"/>
          </g>
        </g>
      </g>
    </g>
  </g>
</svg>
