<svg xmlns="http://www.w3.org/2000/svg" xmlns:xlink="http://www.w3.org/1999/xlink" width="532" height="214" viewBox="0 0 532 214">
  <defs>
    <clipPath id="clip-wave-logo-header">
      <rect width="532" height="214"/>
    </clipPath>
  </defs>
  <g id="wave-logo-header" clip-path="url(#clip-wave-logo-header)">
    <g id="Grupo_185" data-name="Grupo 185" transform="translate(27.074 12.019)">
      <path id="Trazado_557" data-name="Trazado 557" d="M246.215,1329.218H230.8l-16.958-136.431h14.067l12.717,123.33,54.147-123.33h15.032L321.371,1316.5l55.3-123.716h14.454l-64.361,136.431H311.538l-11.365-121.977Z" transform="translate(-213.844 -1192.787)" fill="#108bcc"/>
      <path id="Trazado_558" data-name="Trazado 558" d="M338.559,1192.787h13.872l29.1,136.431H367.463l-6.939-35.457H295.006l-19.27,35.457H261.286Zm19.653,88.641-14.838-76.115-41.622,76.115Z" transform="translate(-121.202 -1192.787)" fill="#108bcc"/>
      <path id="Trazado_559" data-name="Trazado 559" d="M317.443,1192.787l21.39,125.255,65.323-125.255h14.454l-74,136.431H329.195l-26.014-136.431Z" transform="translate(-39.393 -1192.787)" fill="#108bcc"/>
      <path id="Trazado_560" data-name="Trazado 560" d="M362.378,1192.787H448.32l-2.117,12.139H373.362l-8.477,47.406h63.2l-1.925,11.755h-63.4l-9.251,52.993h73.8l-2.312,12.139H338.29Z" transform="translate(29.166 -1192.787)" fill="#108bcc"/>
    </g>
    <path id="Trazado_799" data-name="Trazado 799" d="M204.727,1247.107c13.893,0,21.511,7.967,29.132,15.933,6.555,6.853,13.107,13.7,24,13.7s17.448-6.85,24-13.7c7.618-7.966,15.239-15.933,29.132-15.933s21.511,7.967,29.132,15.933c6.552,6.853,13.107,13.7,24,13.7s17.448-6.85,24-13.7c7.621-7.966,15.242-15.933,29.135-15.933s21.511,7.967,29.132,15.933c6.552,6.853,13.107,13.7,24,13.7s17.448-6.85,24-13.7c7.621-7.966,15.242-15.933,29.132-15.933s21.514,7.967,29.135,15.933c6.552,6.853,13.107,13.7,24,13.7s17.448-6.85,24-13.7c7.621-7.966,15.242-15.933,29.132-15.933s21.513,7.967,29.132,15.933c6.555,6.853,13.107,13.7,24,13.7s17.448-6.85,24-13.7c7.621-7.966,15.239-15.933,29.132-15.933v7.14c-10.893,0-17.448,6.85-24,13.7-7.621,7.966-15.242,15.932-29.135,15.932s-21.511-7.967-29.132-15.932c-6.552-6.854-13.107-13.7-24-13.7s-17.448,6.85-24,13.7c-7.621,7.966-15.242,15.932-29.132,15.932s-21.514-7.967-29.132-15.932c-6.555-6.854-13.107-13.7-24-13.7s-17.445,6.85-24,13.7c-7.621,7.966-15.239,15.932-29.132,15.932s-21.511-7.967-29.132-15.932c-6.555-6.854-13.107-13.7-24-13.7s-17.448,6.85-24,13.7c-7.618,7.966-15.239,15.932-29.132,15.932s-21.511-7.967-29.132-15.932c-6.552-6.854-13.107-13.7-24-13.7s-17.448,6.85-24,13.7c-7.621,7.966-15.242,15.932-29.135,15.932s-21.511-7.967-29.132-15.932c-6.552-6.854-13.107-13.7-24-13.7v-7.14Z" transform="translate(-204.573 -1074.696)" fill="#108bcc"/>
  </g>
</svg>
