<svg width="330" height="48" viewBox="0 0 330 48" fill="none" xmlns="http://www.w3.org/2000/svg">
<path d="M91.5889 43.1882H88.1196L80.3129 18.7637H83.5541L89.8089 40.1295L95.9719 18.7637H99.5325L106.015 40.1751L111.996 18.7637H115.237L107.704 43.1882H104.189L97.7063 22.0038L91.5889 43.1882Z" fill="#45454A"/>
<path d="M133.896 39.8101C132.298 41.9101 129.375 43.6907 124.902 43.6907C118.83 43.6907 116.456 40.9057 116.456 36.2033C116.456 30.2228 120.476 28.3966 126.774 28.3966C129.063 28.3713 131.352 28.5085 133.622 28.8073C133.531 23.1005 132.891 20.9093 127.094 20.9093C121.159 20.9093 120.2 24.0136 120.2 26.1592H117.415C117.415 23.2374 118.374 18.3525 126.957 18.3525C136.955 18.3525 136.635 23.6024 136.635 31.0898V37.0252L137.137 43.1426H134.353L133.896 39.8101ZM133.621 35.6558V31.3646C131.577 31.1145 129.518 30.9924 127.458 30.9991C122.298 30.9991 119.561 32.2321 119.561 36.0665C119.561 38.8514 120.885 41.0426 125.45 41.0426C130.654 41.041 133.621 37.8905 133.621 35.6558Z" fill="#45454A"/>
<path d="M141.794 18.7637L149.419 40.3576L157.18 18.7637H160.509L151.013 43.1882H147.772L138.413 18.7637H141.794Z" fill="#45454A"/>
<path d="M171.88 43.6906C163.845 43.6906 161.243 38.8969 161.243 31.0446C161.243 23.1922 163.845 18.2617 171.88 18.2617C179.549 18.2617 182.38 22.416 182.38 31.547H164.346C164.437 38.03 166.492 41.0431 171.878 41.0431C177.631 41.0431 179.138 37.7101 179.138 35.93H182.196C182.197 38.395 180.646 43.6906 171.88 43.6906ZM164.392 28.8534H179.184C178.682 23.1466 176.353 20.8641 171.879 20.8641C166.95 20.8641 164.803 23.5573 164.393 28.8534H164.392Z" fill="#45454A"/>
<path d="M186.581 25.1095L186.124 18.7635H188.726L189.228 22.6896C190.369 20.9547 192.926 18.3984 197.857 18.3984C201.418 18.3984 203.746 19.7227 204.842 23.1008C205.8 21.4115 208.403 18.3984 213.835 18.3984C219.04 18.3984 221.688 21.1377 221.688 28.7163V43.1885H218.766V28.5767C218.766 23.7831 217.351 21.2268 212.968 21.2268C208.86 21.2268 206.485 24.1057 205.436 25.9292C205.532 26.8544 205.577 27.784 205.573 28.7141V43.1863H202.788V28.5745C202.788 23.7809 201.327 21.2247 197.035 21.2247C192.972 21.2247 190.644 24.1036 189.594 25.927V43.1841H186.581V25.1095Z" fill="#45454A"/>
<path d="M242.734 39.8101C241.136 41.9101 238.214 43.6907 233.74 43.6907C227.668 43.6907 225.295 40.9057 225.295 36.2033C225.295 30.2228 229.312 28.3966 235.613 28.3966C237.902 28.3713 240.19 28.5085 242.46 28.8073C242.369 23.1005 241.729 20.9093 235.931 20.9093C229.997 20.9093 229.038 24.0136 229.038 26.1592H226.253C226.253 23.2374 227.212 18.3525 235.795 18.3525C245.794 18.3525 245.474 23.6024 245.474 31.0898V37.0252L245.976 43.1426H243.192L242.734 39.8101ZM242.463 35.6558V31.3646C240.418 31.1145 238.36 30.9924 236.3 30.9991C231.139 30.9991 228.402 32.2321 228.402 36.0665C228.402 38.8514 229.726 41.0426 234.292 41.0426C239.493 41.041 242.46 37.8905 242.46 35.6558H242.463Z" fill="#45454A"/>
<path d="M250.998 8.85693H253.92V32.3227L265.241 18.7636H268.711L260.905 27.8941L269.944 43.1881H266.522L258.989 30.1771L253.922 36.112V43.1881H251L250.998 8.85693Z" fill="#45454A"/>
<path d="M281.586 43.6906C273.55 43.6906 270.948 38.8969 270.948 31.0446C270.948 23.1922 273.551 18.2617 281.586 18.2617C289.255 18.2617 292.086 22.416 292.086 31.547H274.052C274.143 38.03 276.197 41.0431 281.585 41.0431C287.336 41.0431 288.843 37.7101 288.843 35.93H291.902C291.903 38.395 290.351 43.6906 281.586 43.6906ZM274.098 28.8534H288.89C288.388 23.1466 286.059 20.8641 281.586 20.8641C276.655 20.8641 274.509 23.5573 274.098 28.8534V28.8534Z" fill="#45454A"/>
<path d="M297.199 25.658L296.742 18.7644H299.344L299.892 23.558C300.622 21.8236 302.859 18.3081 308.749 18.3081V21.1387C302.312 21.1387 300.577 26.3886 300.212 27.9867V43.1894H297.199V25.658Z" fill="#45454A"/>
<path d="M12.021 4.87647C10.7682 2.18337 7.56938 1.01581 4.87629 2.26865C2.18319 3.52148 1.01563 6.7203 2.26846 9.4134L17.7548 42.7028C19.0076 45.3959 22.2064 46.5634 24.8995 45.3106C27.5926 44.0577 28.7602 40.8589 27.5074 38.1658L12.021 4.87647Z" fill="#178CCD"/>
<path d="M42.4278 4.87647C41.1749 2.18337 37.9761 1.01581 35.283 2.26865C32.5899 3.52148 31.4224 6.7203 32.6752 9.4134L48.1615 42.7028C49.4144 45.3959 52.6132 46.5634 55.3063 45.3106C57.9994 44.0577 59.1669 40.8589 57.9141 38.1658L42.4278 4.87647Z" fill="#178CCD"/>
<path d="M57.631 4.87647C56.3782 2.18337 53.1794 1.01581 50.4863 2.26865C47.7932 3.52148 46.6256 6.7203 47.8784 9.4134L63.3648 42.7028C64.6176 45.3959 67.8164 46.5634 70.5095 45.3106C73.2026 44.0577 74.3702 40.8589 73.1173 38.1658L57.631 4.87647Z" fill="#37C3F2"/>
<path d="M7.14666 45.836C10.1322 45.836 12.5525 43.4158 12.5525 40.4302C12.5525 37.4447 10.1322 35.0244 7.14666 35.0244C4.16111 35.0244 1.74084 37.4447 1.74084 40.4302C1.74084 43.4158 4.16111 45.836 7.14666 45.836Z" fill="#37C3F2"/>
<path d="M27.2243 4.87647C25.9714 2.18337 22.7726 1.01581 20.0795 2.26865C17.3864 3.52148 16.2189 6.7203 17.4717 9.4134L32.958 42.7028C34.2109 45.3959 37.4097 46.5634 40.1028 45.3106C42.7959 44.0577 43.9634 40.8589 42.7106 38.1658L27.2243 4.87647Z" fill="#37C3F2"/>
<path d="M68.2107 12.5812C71.1963 12.5812 73.6166 10.1609 73.6166 7.17535C73.6166 4.1898 71.1963 1.76953 68.2107 1.76953C65.2252 1.76953 62.8049 4.1898 62.8049 7.17535C62.8049 10.1609 65.2252 12.5812 68.2107 12.5812Z" fill="#178CCD"/>
<path d="M314.287 8.06957H311V7H318.822V8.06957H315.535V16.9719H314.287V8.06957ZM319.736 7H321.508L324.827 15.9304L328.265 7H330L329.969 17H328.787L328.878 8.35754L325.469 17H324.191L320.843 8.29956L320.933 17H319.752L319.736 7Z" fill="#45454A"/>
</svg>
