<svg xmlns="http://www.w3.org/2000/svg" xmlns:xlink="http://www.w3.org/1999/xlink" width="298" height="152" viewBox="0 0 298 152">
  <defs>
    <clipPath id="clip-wave-logo">
      <rect width="298" height="152"/>
    </clipPath>
  </defs>
  <g id="wave-logo" clip-path="url(#clip-wave-logo)">
    <g id="Group_251" data-name="Group 251" transform="translate(-204.359 -1193.139)">
      <g id="Group_85" data-name="Group 85" transform="translate(219.837 1192.787)">
        <path id="Path_557" data-name="Path 557" d="M232.014,1269.365h-8.651l-9.518-76.578h7.9l7.138,69.224,30.393-69.224h8.438l6.49,69.441,31.041-69.441h8.113l-36.125,76.578h-8.547L262.3,1200.9Z" transform="translate(-213.844 -1192.787)" fill="#fff"/>
        <path id="Path_558" data-name="Path 558" d="M304.659,1192.787h7.786l16.333,76.578h-7.9l-3.895-19.9H280.213l-10.816,19.9h-8.111Zm11.031,49.754-8.328-42.723L284,1242.541Z" transform="translate(-182.658 -1192.787)" fill="#fff"/>
        <path id="Path_559" data-name="Path 559" d="M311.186,1192.787l12.006,70.3,36.666-70.3h8.113l-41.533,76.578h-8.655l-14.6-76.578Z" transform="translate(-155.118 -1192.787)" fill="#fff"/>
        <path id="Path_560" data-name="Path 560" d="M351.811,1192.787H400.05l-1.188,6.813H357.976l-4.758,26.609h35.476l-1.081,6.6H352.028l-5.192,29.745h41.425l-1.3,6.813H338.29Z" transform="translate(-132.039 -1192.787)" fill="#fff"/>
      </g>
      <g id="Group_86" data-name="Group 86" transform="translate(244.091 1315.846)">
        <path id="Path_561" data-name="Path 561" d="M242.064,1270.378h-6.5l.31-1.774h14.947l-.282,1.774h-6.559l-3.292,18.156H238.77Z" transform="translate(-235.561 -1267.368)" fill="#fff"/>
        <path id="Path_562" data-name="Path 562" d="M246.923,1267.938h1.858l-1.492,8.357a7.53,7.53,0,0,1,5.8-2.476c3.378,0,4.73,1.745,3.912,6.417l-1.548,8.867h-1.858l1.605-9.093c.507-2.927-.058-4.447-2.843-4.447a7.026,7.026,0,0,0-5.462,3.042l-1.856,10.5h-1.86Z" transform="translate(-229.042 -1267.938)" fill="#fff"/>
        <path id="Path_563" data-name="Path 563" d="M257.907,1286.74c-5.039,0-6.137-3.042-5.293-7.91.844-4.814,2.9-7.769,7.824-7.769,4.731,0,6.137,2.559,5.154,8.192H254.416c-.676,4,.254,5.853,3.574,5.853,3.6,0,4.9-2.056,5.094-3.181l1.913.03C264.69,1283.474,263.226,1286.74,257.907,1286.74Zm-3.125-9.15h9.147c.31-3.517-.815-4.925-3.574-4.925C257.287,1272.665,255.654,1274.327,254.781,1277.591Z" transform="translate(-221.187 -1265.264)" fill="#fff"/>
        <path id="Path_564" data-name="Path 564" d="M271.25,1289.232c-6.249,0-7.683-3.8-6.5-10.528,1.182-6.642,3.8-10.358,9.938-10.358,6.221,0,7.655,3.857,6.473,10.584C279.976,1285.573,277.357,1289.232,271.25,1289.232Zm.084-1.772c4.645,0,6.868-2.873,7.912-8.7,1.041-5.8-.056-8.641-4.645-8.641-4.645,0-6.9,2.928-7.937,8.726S266.718,1287.46,271.333,1287.46Z" transform="translate(-210.905 -1267.588)" fill="#fff"/>
        <path id="Path_565" data-name="Path 565" d="M280.569,1286.74c-5.011,0-6.052-3.042-5.208-7.91.846-4.757,2.815-7.769,7.741-7.769,4.363,0,5.883,2.11,5.321,5.684h-1.83c.449-2.758-.817-4.081-3.546-4.081-3.463,0-5.094,2.253-5.827,6.362-.7,4.109.058,6.109,3.435,6.109,2.758,0,4.616-1.184,5.066-3.548h1.858C286.961,1284.714,284.793,1286.74,280.569,1286.74Z" transform="translate(-201.723 -1265.264)" fill="#fff"/>
        <path id="Path_566" data-name="Path 566" d="M289.241,1286.74c-5.039,0-6.137-3.042-5.293-7.91.844-4.814,2.9-7.769,7.824-7.769,4.73,0,6.137,2.559,5.154,8.192H285.75c-.676,4,.254,5.853,3.574,5.853,3.6,0,4.9-2.056,5.094-3.181l1.913.03C296.024,1283.474,294.559,1286.74,289.241,1286.74Zm-3.125-9.15h9.148c.31-3.517-.815-4.925-3.574-4.925C288.621,1272.665,286.988,1274.327,286.115,1277.591Z" transform="translate(-194.37 -1265.264)" fill="#fff"/>
        <path id="Path_567" data-name="Path 567" d="M302.746,1284.491a8.342,8.342,0,0,1-5.855,2.223c-3.8,0-5.039-1.8-4.53-4.729.646-3.66,3.264-4.7,7.093-4.7a28.153,28.153,0,0,1,4.278.28c.62-3.546.507-4.9-3.04-4.9-3.715,0-4.729,1.941-4.925,3.264l-1.717-.026c.338-1.832,1.379-4.814,6.614-4.814,6.191,0,5.517,3.322,4.7,7.909l-.648,3.6-.366,3.771h-1.689Zm.169-2.225.564-3.209a30.922,30.922,0,0,0-3.6-.169c-3.266,0-5.18.733-5.575,3.1-.308,1.744.2,3.1,2.954,3.1A6.482,6.482,0,0,0,302.915,1282.266Z" transform="translate(-187.042 -1265.239)" fill="#fff"/>
        <path id="Path_568" data-name="Path 568" d="M303.265,1275.245l.421-3.912h1.605l-.141,2.533a7.433,7.433,0,0,1,6.022-2.759c3.407,0,4.731,1.744,3.914,6.475l-1.548,8.81h-1.858l1.6-9.036c.509-2.984-.056-4.5-2.843-4.5a6.969,6.969,0,0,0-5.432,3.012l-1.858,10.528h-1.858Z" transform="translate(-179.304 -1265.226)" fill="#fff"/>
        <path id="Path_569" data-name="Path 569" d="M311.25,1288.534h-2.307l8.865-10.049L312.6,1268.6h2.027l4.532,8.728,7.6-8.728h2.281l-8.923,10.051,5.208,9.879h-2.056l-4.474-8.671Z" transform="translate(-172.757 -1267.368)" fill="#fff"/>
        <path id="Path_570" data-name="Path 570" d="M326.373,1268.559H332.9c5.939,0,7.093,2.027,6.531,5.122a5.018,5.018,0,0,1-3.688,4.474c2.478.846,2.956,2.845,2.561,5.1-.62,3.63-2,5.4-8.865,5.4h-6.616Zm-1.353,18.492h4.758c4.7,0,6.191-1.069,6.727-4.107.451-2.621-.789-3.97-4.28-3.97h-5.8Zm1.719-9.8,5.659.03c3.405,0,4.784-1.268,5.206-3.66.423-2.364-.7-3.461-4.729-3.461H328Z" transform="translate(-160.876 -1267.406)" fill="#fff"/>
        <path id="Path_571" data-name="Path 571" d="M336.657,1267.938h1.858l-3.771,21.166h-1.858Z" transform="translate(-152.266 -1267.938)" fill="#fff"/>
        <path id="Path_572" data-name="Path 572" d="M342.236,1286.74c-5.18,0-6.193-3.012-5.323-7.91.844-4.814,2.76-7.769,7.856-7.769,5.206-.03,6.191,3.094,5.319,7.993C349.243,1283.9,347.3,1286.74,342.236,1286.74Zm.083-1.6c3.632,0,5.15-2.112,5.881-6.278.733-4.109.057-6.193-3.489-6.193-3.66,0-5.178,2.2-5.941,6.361C338.042,1283.136,338.771,1285.137,342.319,1285.137Z" transform="translate(-149.057 -1265.264)" fill="#fff"/>
        <path id="Path_573" data-name="Path 573" d="M350.64,1293.158c-6.334,0-5.066-5.319-5.066-5.319h1.969c0,.056-.9,3.745,3.211,3.745,4.306,0,5.009-2.507,5.488-5.293l.31-1.8a6.608,6.608,0,0,1-5.321,2.166c-4.278,0-5.46-3.068-4.615-7.824.816-4.7,2.927-7.74,7.037-7.74a5.258,5.258,0,0,1,4.953,2.616l.759-2.362H361l-.928,3.8-2,11.373C357.481,1289.727,356.777,1293.158,350.64,1293.158Zm6.276-10.834,1.24-7.037a4.278,4.278,0,0,0-4.166-2.506c-3.07,0-4.87,2.363-5.573,6.249-.676,3.829.254,5.911,3.237,5.911A6.31,6.31,0,0,0,356.917,1282.324Z" transform="translate(-141.496 -1265.239)" fill="#fff"/>
      </g>
      <path id="Path_574" data-name="Path 574" d="M204.727,1247.107c7.8,0,12.074,4.472,16.351,8.943,3.679,3.847,7.357,7.692,13.471,7.692s9.793-3.845,13.473-7.692c4.276-4.471,8.554-8.943,16.351-8.943s12.074,4.472,16.351,8.943c3.678,3.847,7.357,7.692,13.471,7.692s9.793-3.845,13.471-7.692c4.278-4.471,8.555-8.943,16.353-8.943s12.074,4.472,16.351,8.943c3.678,3.847,7.357,7.692,13.471,7.692s9.793-3.845,13.471-7.692c4.278-4.471,8.555-8.943,16.351-8.943s12.076,4.472,16.353,8.943c3.678,3.847,7.357,7.692,13.471,7.692s9.793-3.845,13.471-7.692c4.278-4.471,8.555-8.943,16.351-8.943s12.075,4.472,16.351,8.943c3.679,3.847,7.357,7.692,13.471,7.692s9.793-3.845,13.473-7.692c4.278-4.471,8.554-8.943,16.352-8.943v4.008c-6.114,0-9.793,3.845-13.471,7.692-4.278,4.471-8.555,8.943-16.353,8.943s-12.074-4.472-16.351-8.943c-3.678-3.847-7.357-7.692-13.471-7.692s-9.793,3.845-13.471,7.692c-4.278,4.471-8.555,8.943-16.351,8.943s-12.075-4.472-16.351-8.943c-3.679-3.847-7.357-7.692-13.473-7.692s-9.792,3.845-13.471,7.692c-4.278,4.471-8.554,8.943-16.351,8.943s-12.074-4.472-16.351-8.943c-3.679-3.847-7.357-7.692-13.471-7.692s-9.793,3.845-13.473,7.692c-4.276,4.471-8.554,8.943-16.351,8.943s-12.074-4.472-16.351-8.943c-3.678-3.847-7.357-7.692-13.471-7.692s-9.793,3.845-13.471,7.692c-4.278,4.471-8.555,8.943-16.353,8.943s-12.074-4.472-16.351-8.943c-3.678-3.847-7.357-7.692-13.471-7.692v-4.008Z" transform="translate(0 35.708)" fill="#37c3f2"/>
    </g>
  </g>
</svg>
