<svg xmlns="http://www.w3.org/2000/svg" xmlns:xlink="http://www.w3.org/1999/xlink" width="1825" height="28" viewBox="0 0 1825 28">
  <defs>
    <clipPath id="clip-x-stripe-2">
      <rect width="1825" height="28"/>
    </clipPath>
  </defs>
  <g id="x-stripe-2" clip-path="url(#clip-x-stripe-2)">
    <g id="Group_228" data-name="Group 228" transform="translate(-76.634 -1005)">
      <path id="Path_152" data-name="Path 152" d="M334.471,11.966h6.6L327.447,26.142,341.07,40.318h-6.6L324.177,29.585,313.885,40.318h-6.659l13.622-14.176L307.226,11.966h6.6L324.177,22.7l10.294-10.733Z" transform="translate(-63.59 992.682)" fill="#37c3f2"/>
      <path id="Path_152-2" data-name="Path 152" d="M334.471,11.966h6.6L327.447,26.142,341.07,40.318h-6.6L324.177,29.585,313.885,40.318h-6.659l13.622-14.176L307.226,11.966h6.6L324.177,22.7l10.294-10.733Z" transform="translate(-7.59 992.682)" fill="#37c3f2" opacity="0.2"/>
      <path id="Path_244" data-name="Path 244" d="M334.471,11.966h6.6L327.447,26.142,341.07,40.318h-6.6L324.177,29.585,313.885,40.318h-6.659l13.622-14.176L307.226,11.966h6.6L324.177,22.7l10.294-10.733Z" transform="translate(160.41 992.682)" fill="#37c3f2" opacity="0.2"/>
      <path id="Path_245" data-name="Path 245" d="M334.471,11.966h6.6L327.447,26.142,341.07,40.318h-6.6L324.177,29.585,313.885,40.318h-6.659l13.622-14.176L307.226,11.966h6.6L324.177,22.7l10.294-10.733Z" transform="translate(216.41 992.682)" fill="#108bcc" opacity="0.5"/>
      <path id="Path_246" data-name="Path 246" d="M334.471,11.966h6.6L327.447,26.142,341.07,40.318h-6.6L324.177,29.585,313.885,40.318h-6.659l13.622-14.176L307.226,11.966h6.6L324.177,22.7l10.294-10.733Z" transform="translate(272.41 992.682)" fill="#37c3f2"/>
      <path id="Path_247" data-name="Path 247" d="M334.471,11.966h6.6L327.447,26.142,341.07,40.318h-6.6L324.177,29.585,313.885,40.318h-6.659l13.622-14.176L307.226,11.966h6.6L324.177,22.7l10.294-10.733Z" transform="translate(552.41 992.682)" fill="#37c3f2"/>
      <path id="Path_248" data-name="Path 248" d="M334.471,11.966h6.6L327.447,26.142,341.07,40.318h-6.6L324.177,29.585,313.885,40.318h-6.659l13.622-14.176L307.226,11.966h6.6L324.177,22.7l10.294-10.733Z" transform="translate(608.41 992.682)" fill="#45454a" opacity="0.5"/>
      <path id="Path_249" data-name="Path 249" d="M334.471,11.966h6.6L327.447,26.142,341.07,40.318h-6.6L324.177,29.585,313.885,40.318h-6.659l13.622-14.176L307.226,11.966h6.6L324.177,22.7l10.294-10.733Z" transform="translate(664.41 992.682)" fill="#45454a" opacity="0.2"/>
      <path id="Path_250" data-name="Path 250" d="M334.471,11.966h6.6L327.447,26.142,341.07,40.318h-6.6L324.177,29.585,313.885,40.318h-6.659l13.622-14.176L307.226,11.966h6.6L324.177,22.7l10.294-10.733Z" transform="translate(720.41 992.682)" fill="#37c3f2" opacity="0.2"/>
      <path id="Path_251" data-name="Path 251" d="M334.471,11.966h6.6L327.447,26.142,341.07,40.318h-6.6L324.177,29.585,313.885,40.318h-6.659l13.622-14.176L307.226,11.966h6.6L324.177,22.7l10.294-10.733Z" transform="translate(832.41 992.682)" fill="#37c3f2" opacity="0.5"/>
      <path id="Path_252" data-name="Path 252" d="M334.471,11.966h6.6L327.447,26.142,341.07,40.318h-6.6L324.177,29.585,313.885,40.318h-6.659l13.622-14.176L307.226,11.966h6.6L324.177,22.7l10.294-10.733Z" transform="translate(888.41 992.682)" fill="#37c3f2" opacity="0.2"/>
      <path id="Path_253" data-name="Path 253" d="M334.471,11.966h6.6L327.447,26.142,341.07,40.318h-6.6L324.177,29.585,313.885,40.318h-6.659l13.622-14.176L307.226,11.966h6.6L324.177,22.7l10.294-10.733Z" transform="translate(1000.41 992.682)" fill="#108bcc" opacity="0.5"/>
      <path id="Path_254" data-name="Path 254" d="M334.471,11.966h6.6L327.447,26.142,341.07,40.318h-6.6L324.177,29.585,313.885,40.318h-6.659l13.622-14.176L307.226,11.966h6.6L324.177,22.7l10.294-10.733Z" transform="translate(1112.41 992.682)" fill="#108bcc" opacity="0.2"/>
      <path id="Path_255" data-name="Path 255" d="M334.471,11.966h6.6L327.447,26.142,341.07,40.318h-6.6L324.177,29.585,313.885,40.318h-6.659l13.622-14.176L307.226,11.966h6.6L324.177,22.7l10.294-10.733Z" transform="translate(1168.41 992.682)" fill="#37c3f2" opacity="0.2"/>
      <path id="Path_256" data-name="Path 256" d="M334.471,11.966h6.6L327.447,26.142,341.07,40.318h-6.6L324.177,29.585,313.885,40.318h-6.659l13.622-14.176L307.226,11.966h6.6L324.177,22.7l10.294-10.733Z" transform="translate(1280.41 992.682)" fill="#37c3f2"/>
      <path id="Path_257" data-name="Path 257" d="M334.471,11.966h6.6L327.447,26.142,341.07,40.318h-6.6L324.177,29.585,313.885,40.318h-6.659l13.622-14.176L307.226,11.966h6.6L324.177,22.7l10.294-10.733Z" transform="translate(1392.41 992.682)" fill="#37c3f2" opacity="0.2"/>
      <path id="Path_258" data-name="Path 258" d="M334.471,11.966h6.6L327.447,26.142,341.07,40.318h-6.6L324.177,29.585,313.885,40.318h-6.659l13.622-14.176L307.226,11.966h6.6L324.177,22.7l10.294-10.733Z" transform="translate(1560.41 992.682)" fill="#108bcc"/>
    </g>
  </g>
</svg>
