<svg xmlns="http://www.w3.org/2000/svg" xmlns:xlink="http://www.w3.org/1999/xlink" width="1825" height="83" viewBox="0 0 1825 83">
  <defs>
    <clipPath id="clip-x-stripe-_6">
      <rect width="1825" height="83"/>
    </clipPath>
  </defs>
  <g id="x-stripe-_6" data-name="x-stripe- 6" clip-path="url(#clip-x-stripe-_6)">
    <g id="Group_255" data-name="Group 255" transform="translate(18542 9155)">
      <path id="Path_976" data-name="Path 976" d="M334.471,11.966h6.6L327.447,26.142,341.07,40.318h-6.6L324.177,29.585,313.885,40.318h-6.659l13.622-14.176L307.226,11.966h6.6L324.177,22.7l10.294-10.733Z" transform="translate(-18849.59 -9167.318)" fill="#37c3f2"/>
      <path id="Path_977" data-name="Path 977" d="M334.471,11.966h6.6L327.447,26.142,341.07,40.318h-6.6L324.177,29.585,313.885,40.318h-6.659l13.622-14.176L307.226,11.966h6.6L324.177,22.7l10.294-10.733Z" transform="translate(-18793.59 -9167.318)" fill="#45454a" opacity="0.2"/>
      <path id="Path_978" data-name="Path 978" d="M334.471,11.966h6.6L327.447,26.142,341.07,40.318h-6.6L324.177,29.585,313.885,40.318h-6.659l13.622-14.176L307.226,11.966h6.6L324.177,22.7l10.294-10.733Z" transform="translate(-18737.59 -9167.318)" fill="#45454a" opacity="0.2"/>
      <path id="Path_981" data-name="Path 981" d="M334.471,11.966h6.6L327.447,26.142,341.07,40.318h-6.6L324.177,29.585,313.885,40.318h-6.659l13.622-14.176L307.226,11.966h6.6L324.177,22.7l10.294-10.733Z" transform="translate(-18681.59 -9167.318)" fill="#37c3f2" opacity="0.2"/>
      <path id="Path_982" data-name="Path 982" d="M334.471,11.966h6.6L327.447,26.142,341.07,40.318h-6.6L324.177,29.585,313.885,40.318h-6.659l13.622-14.176L307.226,11.966h6.6L324.177,22.7l10.294-10.733Z" transform="translate(-18625.59 -9167.318)" fill="#45454a"/>
      <path id="Path_991" data-name="Path 991" d="M334.471,11.966h6.6L327.447,26.142,341.07,40.318h-6.6L324.177,29.585,313.885,40.318h-6.659l13.622-14.176L307.226,11.966h6.6L324.177,22.7l10.294-10.733Z" transform="translate(-18289.59 -9167.318)" fill="#37c3f2"/>
      <path id="Path_992" data-name="Path 992" d="M334.471,11.966h6.6L327.447,26.142,341.07,40.318h-6.6L324.177,29.585,313.885,40.318h-6.659l13.622-14.176L307.226,11.966h6.6L324.177,22.7l10.294-10.733Z" transform="translate(-18233.59 -9167.318)" fill="#108bcc" opacity="0.2"/>
      <path id="Path_993" data-name="Path 993" d="M334.471,11.966h6.6L327.447,26.142,341.07,40.318h-6.6L324.177,29.585,313.885,40.318h-6.659l13.622-14.176L307.226,11.966h6.6L324.177,22.7l10.294-10.733Z" transform="translate(-18177.59 -9167.318)" fill="#37c3f2" opacity="0.2"/>
      <path id="Path_994" data-name="Path 994" d="M334.471,11.966h6.6L327.447,26.142,341.07,40.318h-6.6L324.177,29.585,313.885,40.318h-6.659l13.622-14.176L307.226,11.966h6.6L324.177,22.7l10.294-10.733Z" transform="translate(-17841.59 -9167.318)" fill="#37c3f2" opacity="0.2"/>
      <path id="Path_995" data-name="Path 995" d="M334.471,11.966h6.6L327.447,26.142,341.07,40.318h-6.6L324.177,29.585,313.885,40.318h-6.659l13.622-14.176L307.226,11.966h6.6L324.177,22.7l10.294-10.733Z" transform="translate(-17785.59 -9167.318)" fill="#37c3f2" opacity="0.2"/>
      <path id="Path_996" data-name="Path 996" d="M334.471,11.966h6.6L327.447,26.142,341.07,40.318h-6.6L324.177,29.585,313.885,40.318h-6.659l13.622-14.176L307.226,11.966h6.6L324.177,22.7l10.294-10.733Z" transform="translate(-17729.59 -9167.318)" fill="#37c3f2" opacity="0.2"/>
      <path id="Path_997" data-name="Path 997" d="M334.471,11.966h6.6L327.447,26.142,341.07,40.318h-6.6L324.177,29.585,313.885,40.318h-6.659l13.622-14.176L307.226,11.966h6.6L324.177,22.7l10.294-10.733Z" transform="translate(-17673.59 -9167.318)" fill="#37c3f2"/>
      <path id="Path_998" data-name="Path 998" d="M334.471,11.966h6.6L327.447,26.142,341.07,40.318h-6.6L324.177,29.585,313.885,40.318h-6.659l13.622-14.176L307.226,11.966h6.6L324.177,22.7l10.294-10.733Z" transform="translate(-17617.59 -9167.318)" fill="#37c3f2"/>
      <path id="Path_1007" data-name="Path 1007" d="M334.471,11.966h6.6L327.447,26.142,341.07,40.318h-6.6L324.177,29.585,313.885,40.318h-6.659l13.622-14.176L307.226,11.966h6.6L324.177,22.7l10.294-10.733Z" transform="translate(-17393.59 -9167.318)" fill="#37c3f2"/>
      <path id="Path_1008" data-name="Path 1008" d="M334.471,11.966h6.6L327.447,26.142,341.07,40.318h-6.6L324.177,29.585,313.885,40.318h-6.659l13.622-14.176L307.226,11.966h6.6L324.177,22.7l10.294-10.733Z" transform="translate(-17337.59 -9167.318)" fill="#f2dc4f"/>
      <path id="Path_1009" data-name="Path 1009" d="M334.471,11.966h6.6L327.447,26.142,341.07,40.318h-6.6L324.177,29.585,313.885,40.318h-6.659l13.622-14.176L307.226,11.966h6.6L324.177,22.7l10.294-10.733Z" transform="translate(-17281.59 -9167.318)" fill="#37c3f2" opacity="0.2"/>
      <path id="Path_1010" data-name="Path 1010" d="M334.471,11.966h6.6L327.447,26.142,341.07,40.318h-6.6L324.177,29.585,313.885,40.318h-6.659l13.622-14.176L307.226,11.966h6.6L324.177,22.7l10.294-10.733Z" transform="translate(-17225.59 -9167.318)" fill="#37c3f2" opacity="0.2"/>
      <path id="Path_1011" data-name="Path 1011" d="M334.471,11.966h6.6L327.447,26.142,341.07,40.318h-6.6L324.177,29.585,313.885,40.318h-6.659l13.622-14.176L307.226,11.966h6.6L324.177,22.7l10.294-10.733Z" transform="translate(-17113.59 -9167.318)" fill="#108bcc" opacity="0.2"/>
      <path id="Path_1013" data-name="Path 1013" d="M334.471,11.966h6.6L327.447,26.142,341.07,40.318h-6.6L324.177,29.585,313.885,40.318h-6.659l13.622-14.176L307.226,11.966h6.6L324.177,22.7l10.294-10.733Z" transform="translate(-17057.59 -9167.318)" fill="#108bcc"/>
      <path id="Path_1015" data-name="Path 1015" d="M334.471,11.966h6.6L327.447,26.142,341.07,40.318h-6.6L324.177,29.585,313.885,40.318h-6.659l13.622-14.176L307.226,11.966h6.6L324.177,22.7l10.294-10.733Z" transform="translate(-17057.59 -9167.318)" fill="#37c3f2"/>
      <path id="Path_983" data-name="Path 983" d="M334.471,11.966h6.6L327.447,26.142,341.07,40.318h-6.6L324.177,29.585,313.885,40.318h-6.659l13.622-14.176L307.226,11.966h6.6L324.177,22.7l10.294-10.733Z" transform="translate(-18849.59 -9112.318)" fill="#37c3f2"/>
      <path id="Path_984" data-name="Path 984" d="M334.471,11.966h6.6L327.447,26.142,341.07,40.318h-6.6L324.177,29.585,313.885,40.318h-6.659l13.622-14.176L307.226,11.966h6.6L324.177,22.7l10.294-10.733Z" transform="translate(-18793.59 -9112.318)" fill="#37c3f2" opacity="0.2"/>
      <path id="Path_985" data-name="Path 985" d="M334.471,11.966h6.6L327.447,26.142,341.07,40.318h-6.6L324.177,29.585,313.885,40.318h-6.659l13.622-14.176L307.226,11.966h6.6L324.177,22.7l10.294-10.733Z" transform="translate(-18681.59 -9112.318)" fill="#37c3f2" opacity="0.2"/>
      <path id="Path_986" data-name="Path 986" d="M334.471,11.966h6.6L327.447,26.142,341.07,40.318h-6.6L324.177,29.585,313.885,40.318h-6.659l13.622-14.176L307.226,11.966h6.6L324.177,22.7l10.294-10.733Z" transform="translate(-18625.59 -9112.318)" fill="#37c3f2" opacity="0.2"/>
      <path id="Path_987" data-name="Path 987" d="M334.471,11.966h6.6L327.447,26.142,341.07,40.318h-6.6L324.177,29.585,313.885,40.318h-6.659l13.622-14.176L307.226,11.966h6.6L324.177,22.7l10.294-10.733Z" transform="translate(-18569.59 -9112.318)" fill="#bf1866" opacity="0.2"/>
      <path id="Path_988" data-name="Path 988" d="M334.471,11.966h6.6L327.447,26.142,341.07,40.318h-6.6L324.177,29.585,313.885,40.318h-6.659l13.622-14.176L307.226,11.966h6.6L324.177,22.7l10.294-10.733Z" transform="translate(-18513.59 -9112.318)" fill="#bf1866" opacity="0.2"/>
      <path id="Path_999" data-name="Path 999" d="M334.471,11.966h6.6L327.447,26.142,341.07,40.318h-6.6L324.177,29.585,313.885,40.318h-6.659l13.622-14.176L307.226,11.966h6.6L324.177,22.7l10.294-10.733Z" transform="translate(-18401.59 -9112.318)" fill="#37c3f2"/>
      <path id="Path_1000" data-name="Path 1000" d="M334.471,11.966h6.6L327.447,26.142,341.07,40.318h-6.6L324.177,29.585,313.885,40.318h-6.659l13.622-14.176L307.226,11.966h6.6L324.177,22.7l10.294-10.733Z" transform="translate(-18345.59 -9112.318)" fill="#37c3f2"/>
      <path id="Path_1001" data-name="Path 1001" d="M334.471,11.966h6.6L327.447,26.142,341.07,40.318h-6.6L324.177,29.585,313.885,40.318h-6.659l13.622-14.176L307.226,11.966h6.6L324.177,22.7l10.294-10.733Z" transform="translate(-18121.59 -9112.318)" fill="#37c3f2"/>
      <path id="Path_1002" data-name="Path 1002" d="M334.471,11.966h6.6L327.447,26.142,341.07,40.318h-6.6L324.177,29.585,313.885,40.318h-6.659l13.622-14.176L307.226,11.966h6.6L324.177,22.7l10.294-10.733Z" transform="translate(-18065.59 -9112.318)" fill="#37c3f2" opacity="0.2"/>
      <path id="Path_1003" data-name="Path 1003" d="M334.471,11.966h6.6L327.447,26.142,341.07,40.318h-6.6L324.177,29.585,313.885,40.318h-6.659l13.622-14.176L307.226,11.966h6.6L324.177,22.7l10.294-10.733Z" transform="translate(-17841.59 -9112.318)" fill="#45454a" opacity="0.2"/>
      <path id="Path_1004" data-name="Path 1004" d="M334.471,11.966h6.6L327.447,26.142,341.07,40.318h-6.6L324.177,29.585,313.885,40.318h-6.659l13.622-14.176L307.226,11.966h6.6L324.177,22.7l10.294-10.733Z" transform="translate(-17785.59 -9112.318)" fill="#37c3f2" opacity="0.2"/>
      <path id="Path_1005" data-name="Path 1005" d="M334.471,11.966h6.6L327.447,26.142,341.07,40.318h-6.6L324.177,29.585,313.885,40.318h-6.659l13.622-14.176L307.226,11.966h6.6L324.177,22.7l10.294-10.733Z" transform="translate(-17561.59 -9112.318)" fill="#37c3f2"/>
      <path id="Path_1006" data-name="Path 1006" d="M334.471,11.966h6.6L327.447,26.142,341.07,40.318h-6.6L324.177,29.585,313.885,40.318h-6.659l13.622-14.176L307.226,11.966h6.6L324.177,22.7l10.294-10.733Z" transform="translate(-17505.59 -9112.318)" fill="#37c3f2"/>
      <path id="Path_1012" data-name="Path 1012" d="M334.471,11.966h6.6L327.447,26.142,341.07,40.318h-6.6L324.177,29.585,313.885,40.318h-6.659l13.622-14.176L307.226,11.966h6.6L324.177,22.7l10.294-10.733Z" transform="translate(-17169.59 -9112.318)" fill="#45454a" opacity="0.2"/>
      <path id="Path_1014" data-name="Path 1014" d="M334.471,11.966h6.6L327.447,26.142,341.07,40.318h-6.6L324.177,29.585,313.885,40.318h-6.659l13.622-14.176L307.226,11.966h6.6L324.177,22.7l10.294-10.733Z" transform="translate(-17113.59 -9112.318)" fill="#45454a" opacity="0.2"/>
      <path id="Path_1016" data-name="Path 1016" d="M334.471,11.966h6.6L327.447,26.142,341.07,40.318h-6.6L324.177,29.585,313.885,40.318h-6.659l13.622-14.176L307.226,11.966h6.6L324.177,22.7l10.294-10.733Z" transform="translate(-17057.59 -9112.318)" fill="#37c3f2"/>
    </g>
  </g>
</svg>
