<svg xmlns="http://www.w3.org/2000/svg" xmlns:xlink="http://www.w3.org/1999/xlink" width="461" height="28" viewBox="0 0 461 28">
  <defs>
    <clipPath id="clip-x-stripe-3_mobile_">
      <rect width="461" height="28"/>
    </clipPath>
  </defs>
  <g id="x-stripe-3_mobile_" data-name="x-stripe-3 – mobile " clip-path="url(#clip-x-stripe-3_mobile_)">
    <g id="Group_229" data-name="Group 229" transform="translate(-76 -1475)">
      <path id="Path_152" data-name="Path 152" d="M334.471,11.966h6.6L327.447,26.142,341.07,40.318h-6.6L324.177,29.585,313.885,40.318h-6.659l13.622-14.176L307.226,11.966h6.6L324.177,22.7l10.294-10.733Z" transform="translate(-119.59 1463.682)" fill="#37c3f2" opacity="0.2"/>
      <path id="Path_152-2" data-name="Path 152" d="M334.471,11.966h6.6L327.447,26.142,341.07,40.318h-6.6L324.177,29.585,313.885,40.318h-6.659l13.622-14.176L307.226,11.966h6.6L324.177,22.7l10.294-10.733Z" transform="translate(-63.59 1463.682)" fill="#45454a" opacity="0.2"/>
      <path id="Path_152-3" data-name="Path 152" d="M334.471,11.966h6.6L327.447,26.142,341.07,40.318h-6.6L324.177,29.585,313.885,40.318h-6.659l13.622-14.176L307.226,11.966h6.6L324.177,22.7l10.294-10.733Z" transform="translate(-231.59 1463.682)" fill="#37c3f2" opacity="0.2"/>
      <path id="Path_152-4" data-name="Path 152" d="M334.471,11.966h6.6L327.447,26.142,341.07,40.318h-6.6L324.177,29.585,313.885,40.318h-6.659l13.622-14.176L307.226,11.966h6.6L324.177,22.7l10.294-10.733Z" transform="translate(-175.59 1463.682)" fill="#37c3f2" opacity="0.2"/>
      <path id="Path_152-5" data-name="Path 152" d="M334.471,11.966h6.6L327.447,26.142,341.07,40.318h-6.6L324.177,29.585,313.885,40.318h-6.659l13.622-14.176L307.226,11.966h6.6L324.177,22.7l10.294-10.733Z" transform="translate(10.41 1463.682)" fill="#37c3f2" opacity="0.2"/>
      <path id="Path_152-6" data-name="Path 152" d="M334.471,11.966h6.6L327.447,26.142,341.07,40.318h-6.6L324.177,29.585,313.885,40.318h-6.659l13.622-14.176L307.226,11.966h6.6L324.177,22.7l10.294-10.733Z" transform="translate(66.41 1463.682)" fill="#37c3f2"/>
      <path id="Path_152-7" data-name="Path 152" d="M334.471,11.966h6.6L327.447,26.142,341.07,40.318h-6.6L324.177,29.585,313.885,40.318h-6.659l13.622-14.176L307.226,11.966h6.6L324.177,22.7l10.294-10.733Z" transform="translate(122.41 1463.682)" fill="#45454a" opacity="0.2"/>
      <path id="Path_152-8" data-name="Path 152" d="M334.471,11.966h6.6L327.447,26.142,341.07,40.318h-6.6L324.177,29.585,313.885,40.318h-6.659l13.622-14.176L307.226,11.966h6.6L324.177,22.7l10.294-10.733Z" transform="translate(196.41 1463.682)" fill="#37c3f2" opacity="0.5"/>
    </g>
  </g>
</svg>
