<svg xmlns="http://www.w3.org/2000/svg" xmlns:xlink="http://www.w3.org/1999/xlink" width="1825" height="83" viewBox="0 0 1825 83">
  <defs>
    <clipPath id="clip-x-stripe-5">
      <rect width="1825" height="83"/>
    </clipPath>
  </defs>
  <g id="x-stripe-5" clip-path="url(#clip-x-stripe-5)">
    <g id="Group_237" data-name="Group 237" transform="translate(-20 -3625)">
      <path id="Path_152" data-name="Path 152" d="M334.471,11.966h6.6L327.447,26.142,341.07,40.318h-6.6L324.177,29.585,313.885,40.318h-6.659l13.622-14.176L307.226,11.966h6.6L324.177,22.7l10.294-10.733Z" transform="translate(552.41 3667.682)" fill="#37c3f2"/>
      <path id="Path_152-2" data-name="Path 152" d="M334.471,11.966h6.6L327.447,26.142,341.07,40.318h-6.6L324.177,29.585,313.885,40.318h-6.659l13.622-14.176L307.226,11.966h6.6L324.177,22.7l10.294-10.733Z" transform="translate(608.41 3667.682)" fill="#45454a" opacity="0.5"/>
      <path id="Path_152-3" data-name="Path 152" d="M334.471,11.966h6.6L327.447,26.142,341.07,40.318h-6.6L324.177,29.585,313.885,40.318h-6.659l13.622-14.176L307.226,11.966h6.6L324.177,22.7l10.294-10.733Z" transform="translate(664.41 3667.682)" fill="#45454a" opacity="0.2"/>
      <path id="Path_152-4" data-name="Path 152" d="M334.471,11.966h6.6L327.447,26.142,341.07,40.318h-6.6L324.177,29.585,313.885,40.318h-6.659l13.622-14.176L307.226,11.966h6.6L324.177,22.7l10.294-10.733Z" transform="translate(720.41 3667.682)" fill="#37c3f2" opacity="0.2"/>
      <path id="Path_152-5" data-name="Path 152" d="M334.471,11.966h6.6L327.447,26.142,341.07,40.318h-6.6L324.177,29.585,313.885,40.318h-6.659l13.622-14.176L307.226,11.966h6.6L324.177,22.7l10.294-10.733Z" transform="translate(1000.41 3667.682)" fill="#108bcc" opacity="0.5"/>
      <path id="Path_432" data-name="Path 432" d="M334.471,11.966h6.6L327.447,26.142,341.07,40.318h-6.6L324.177,29.585,313.885,40.318h-6.659l13.622-14.176L307.226,11.966h6.6L324.177,22.7l10.294-10.733Z" transform="translate(1056.41 3612.682)" fill="#bf1866"/>
      <path id="Path_433" data-name="Path 433" d="M334.471,11.966h6.6L327.447,26.142,341.07,40.318h-6.6L324.177,29.585,313.885,40.318h-6.659l13.622-14.176L307.226,11.966h6.6L324.177,22.7l10.294-10.733Z" transform="translate(1168.41 3612.682)" fill="#45454a" opacity="0.2"/>
      <path id="Path_434" data-name="Path 434" d="M334.471,11.966h6.6L327.447,26.142,341.07,40.318h-6.6L324.177,29.585,313.885,40.318h-6.659l13.622-14.176L307.226,11.966h6.6L324.177,22.7l10.294-10.733Z" transform="translate(1224.41 3612.682)" fill="#108bcc" opacity="0.2"/>
      <path id="Path_437" data-name="Path 437" d="M334.471,11.966h6.6L327.447,26.142,341.07,40.318h-6.6L324.177,29.585,313.885,40.318h-6.659l13.622-14.176L307.226,11.966h6.6L324.177,22.7l10.294-10.733Z" transform="translate(1448.41 3612.682)" fill="#37c3f2" opacity="0.2"/>
      <path id="Path_438" data-name="Path 438" d="M334.471,11.966h6.6L327.447,26.142,341.07,40.318h-6.6L324.177,29.585,313.885,40.318h-6.659l13.622-14.176L307.226,11.966h6.6L324.177,22.7l10.294-10.733Z" transform="translate(1504.41 3612.682)" fill="#108bcc" opacity="0.2"/>
      <path id="Path_439" data-name="Path 439" d="M334.471,11.966h6.6L327.447,26.142,341.07,40.318h-6.6L324.177,29.585,313.885,40.318h-6.659l13.622-14.176L307.226,11.966h6.6L324.177,22.7l10.294-10.733Z" transform="translate(1056.41 3667.682)" fill="#37c3f2"/>
      <path id="Path_440" data-name="Path 440" d="M334.471,11.966h6.6L327.447,26.142,341.07,40.318h-6.6L324.177,29.585,313.885,40.318h-6.659l13.622-14.176L307.226,11.966h6.6L324.177,22.7l10.294-10.733Z" transform="translate(1112.41 3667.682)" fill="#37c3f2" opacity="0.2"/>
      <path id="Path_441" data-name="Path 441" d="M334.471,11.966h6.6L327.447,26.142,341.07,40.318h-6.6L324.177,29.585,313.885,40.318h-6.659l13.622-14.176L307.226,11.966h6.6L324.177,22.7l10.294-10.733Z" transform="translate(1280.41 3667.682)" fill="#37c3f2" opacity="0.2"/>
      <path id="Path_442" data-name="Path 442" d="M334.471,11.966h6.6L327.447,26.142,341.07,40.318h-6.6L324.177,29.585,313.885,40.318h-6.659l13.622-14.176L307.226,11.966h6.6L324.177,22.7l10.294-10.733Z" transform="translate(1336.41 3667.682)" fill="#45454a" opacity="0.2"/>
      <path id="Path_443" data-name="Path 443" d="M334.471,11.966h6.6L327.447,26.142,341.07,40.318h-6.6L324.177,29.585,313.885,40.318h-6.659l13.622-14.176L307.226,11.966h6.6L324.177,22.7l10.294-10.733Z" transform="translate(1392.41 3667.682)" fill="#37c3f2"/>
      <path id="Path_152-6" data-name="Path 152" d="M334.471,11.966h6.6L327.447,26.142,341.07,40.318h-6.6L324.177,29.585,313.885,40.318h-6.659l13.622-14.176L307.226,11.966h6.6L324.177,22.7l10.294-10.733Z" transform="translate(-287.59 3612.682)" fill="#bf1866"/>
      <path id="Path_152-7" data-name="Path 152" d="M334.471,11.966h6.6L327.447,26.142,341.07,40.318h-6.6L324.177,29.585,313.885,40.318h-6.659l13.622-14.176L307.226,11.966h6.6L324.177,22.7l10.294-10.733Z" transform="translate(-175.59 3612.682)" fill="#45454a" opacity="0.2"/>
      <path id="Path_152-8" data-name="Path 152" d="M334.471,11.966h6.6L327.447,26.142,341.07,40.318h-6.6L324.177,29.585,313.885,40.318h-6.659l13.622-14.176L307.226,11.966h6.6L324.177,22.7l10.294-10.733Z" transform="translate(-119.59 3612.682)" fill="#108bcc" opacity="0.2"/>
      <path id="Path_152-9" data-name="Path 152" d="M334.471,11.966h6.6L327.447,26.142,341.07,40.318h-6.6L324.177,29.585,313.885,40.318h-6.659l13.622-14.176L307.226,11.966h6.6L324.177,22.7l10.294-10.733Z" transform="translate(-7.59 3612.682)" fill="#45454a" opacity="0.5"/>
      <path id="Path_152-10" data-name="Path 152" d="M334.471,11.966h6.6L327.447,26.142,341.07,40.318h-6.6L324.177,29.585,313.885,40.318h-6.659l13.622-14.176L307.226,11.966h6.6L324.177,22.7l10.294-10.733Z" transform="translate(104.41 3612.682)" fill="#37c3f2" opacity="0.2"/>
      <path id="Path_152-11" data-name="Path 152" d="M334.471,11.966h6.6L327.447,26.142,341.07,40.318h-6.6L324.177,29.585,313.885,40.318h-6.659l13.622-14.176L307.226,11.966h6.6L324.177,22.7l10.294-10.733Z" transform="translate(160.41 3612.682)" fill="#108bcc" opacity="0.2"/>
      <path id="Path_152-12" data-name="Path 152" d="M334.471,11.966h6.6L327.447,26.142,341.07,40.318h-6.6L324.177,29.585,313.885,40.318h-6.659l13.622-14.176L307.226,11.966h6.6L324.177,22.7l10.294-10.733Z" transform="translate(-287.59 3667.682)" fill="#37c3f2"/>
      <path id="Path_152-13" data-name="Path 152" d="M334.471,11.966h6.6L327.447,26.142,341.07,40.318h-6.6L324.177,29.585,313.885,40.318h-6.659l13.622-14.176L307.226,11.966h6.6L324.177,22.7l10.294-10.733Z" transform="translate(-231.59 3667.682)" fill="#37c3f2" opacity="0.2"/>
      <path id="Path_152-14" data-name="Path 152" d="M334.471,11.966h6.6L327.447,26.142,341.07,40.318h-6.6L324.177,29.585,313.885,40.318h-6.659l13.622-14.176L307.226,11.966h6.6L324.177,22.7l10.294-10.733Z" transform="translate(-63.59 3667.682)" fill="#37c3f2" opacity="0.2"/>
      <path id="Path_152-15" data-name="Path 152" d="M334.471,11.966h6.6L327.447,26.142,341.07,40.318h-6.6L324.177,29.585,313.885,40.318h-6.659l13.622-14.176L307.226,11.966h6.6L324.177,22.7l10.294-10.733Z" transform="translate(48.41 3667.682)" fill="#37c3f2"/>
    </g>
  </g>
</svg>
