<svg xmlns="http://www.w3.org/2000/svg" xmlns:xlink="http://www.w3.org/1999/xlink" width="461" height="28" viewBox="0 0 461 28">
  <defs>
    <clipPath id="clip-x-stripe-1_mobile">
      <rect width="461" height="28"/>
    </clipPath>
  </defs>
  <g id="x-stripe-1_mobile" data-name="x-stripe-1 – mobile" clip-path="url(#clip-x-stripe-1_mobile)">
    <path id="Path_152" data-name="Path 152" d="M334.471,11.966h6.6L327.447,26.142,341.07,40.318h-6.6L324.177,29.585,313.885,40.318h-6.659l13.622-14.176L307.226,11.966h6.6L324.177,22.7l10.294-10.733Z" transform="translate(-307.59 -12.318)" fill="#37c3f2"/>
    <path id="Path_152-2" data-name="Path 152" d="M334.471,11.966h6.6L327.447,26.142,341.07,40.318h-6.6L324.177,29.585,313.885,40.318h-6.659l13.622-14.176L307.226,11.966h6.6L324.177,22.7l10.294-10.733Z" transform="translate(-251.59 -12.318)" fill="#f2dc4f"/>
    <path id="Path_152-3" data-name="Path 152" d="M334.471,11.966h6.6L327.447,26.142,341.07,40.318h-6.6L324.177,29.585,313.885,40.318h-6.659l13.622-14.176L307.226,11.966h6.6L324.177,22.7l10.294-10.733Z" transform="translate(-195.59 -12.318)" fill="#37c3f2" opacity="0.2"/>
    <path id="Path_152-4" data-name="Path 152" d="M334.471,11.966h6.6L327.447,26.142,341.07,40.318h-6.6L324.177,29.585,313.885,40.318h-6.659l13.622-14.176L307.226,11.966h6.6L324.177,22.7l10.294-10.733Z" transform="translate(-119.59 -12.318)" fill="#108bcc" opacity="0.2"/>
    <path id="Path_152-5" data-name="Path 152" d="M334.471,11.966h6.6L327.447,26.142,341.07,40.318h-6.6L324.177,29.585,313.885,40.318h-6.659l13.622-14.176L307.226,11.966h6.6L324.177,22.7l10.294-10.733Z" transform="translate(-63.59 -12.318)" fill="#37c3f2"/>
    <path id="Path_152-6" data-name="Path 152" d="M334.471,11.966h6.6L327.447,26.142,341.07,40.318h-6.6L324.177,29.585,313.885,40.318h-6.659l13.622-14.176L307.226,11.966h6.6L324.177,22.7l10.294-10.733Z" transform="translate(7.41 -12.318)" fill="#45454a" opacity="0.2"/>
    <path id="Path_152-7" data-name="Path 152" d="M334.471,11.966h6.6L327.447,26.142,341.07,40.318h-6.6L324.177,29.585,313.885,40.318h-6.659l13.622-14.176L307.226,11.966h6.6L324.177,22.7l10.294-10.733Z" transform="translate(63.41 -12.318)" fill="#45454a" opacity="0.2"/>
    <path id="Path_152-8" data-name="Path 152" d="M334.471,11.966h6.6L327.447,26.142,341.07,40.318h-6.6L324.177,29.585,313.885,40.318h-6.659l13.622-14.176L307.226,11.966h6.6L324.177,22.7l10.294-10.733Z" transform="translate(119.41 -12.318)" fill="#37c3f2" opacity="0.5"/>
  </g>
</svg>
