<svg xmlns="http://www.w3.org/2000/svg" xmlns:xlink="http://www.w3.org/1999/xlink" width="1226" height="28" viewBox="0 0 1226 28">
  <defs>
    <clipPath id="clip-x-stripe-4_tablet">
      <rect width="1226" height="28"/>
    </clipPath>
  </defs>
  <g id="x-stripe-4_tablet" data-name="x-stripe-4 – tablet" clip-path="url(#clip-x-stripe-4_tablet)">
    <g id="Group_235" data-name="Group 235" transform="translate(-20 -1944)">
      <path id="Path_279" data-name="Path 279" d="M334.471,11.966h6.6L327.447,26.142,341.07,40.318h-6.6L324.177,29.585,313.885,40.318h-6.659l13.622-14.176L307.226,11.966h6.6L324.177,22.7l10.294-10.733Z" transform="translate(-286.59 1931.682)" fill="#37c3f2"/>
      <g id="Group_232" data-name="Group 232" transform="translate(-38)">
        <path id="Path_152" data-name="Path 152" d="M334.471,11.966h6.6L327.447,26.142,341.07,40.318h-6.6L324.177,29.585,313.885,40.318h-6.659l13.622-14.176L307.226,11.966h6.6L324.177,22.7l10.294-10.733Z" transform="translate(-101.59 1932.682)" fill="#37c3f2"/>
        <path id="Path_152-2" data-name="Path 152" d="M334.471,11.966h6.6L327.447,26.142,341.07,40.318h-6.6L324.177,29.585,313.885,40.318h-6.659l13.622-14.176L307.226,11.966h6.6L324.177,22.7l10.294-10.733Z" transform="translate(234.41 1931.682)" fill="#37c3f2" opacity="0.5"/>
        <path id="Path_152-3" data-name="Path 152" d="M334.471,11.966h6.6L327.447,26.142,341.07,40.318h-6.6L324.177,29.585,313.885,40.318h-6.659l13.622-14.176L307.226,11.966h6.6L324.177,22.7l10.294-10.733Z" transform="translate(778.41 1932.682)" fill="#37c3f2" opacity="0.2"/>
        <path id="Path_152-4" data-name="Path 152" d="M334.471,11.966h6.6L327.447,26.142,341.07,40.318h-6.6L324.177,29.585,313.885,40.318h-6.659l13.622-14.176L307.226,11.966h6.6L324.177,22.7l10.294-10.733Z" transform="translate(386.41 1932.682)" fill="#108bcc" opacity="0.2"/>
        <path id="Path_152-5" data-name="Path 152" d="M334.471,11.966h6.6L327.447,26.142,341.07,40.318h-6.6L324.177,29.585,313.885,40.318h-6.659l13.622-14.176L307.226,11.966h6.6L324.177,22.7l10.294-10.733Z" transform="translate(442.41 1932.682)" fill="#37c3f2" opacity="0.2"/>
        <path id="Path_152-6" data-name="Path 152" d="M334.471,11.966h6.6L327.447,26.142,341.07,40.318h-6.6L324.177,29.585,313.885,40.318h-6.659l13.622-14.176L307.226,11.966h6.6L324.177,22.7l10.294-10.733Z" transform="translate(554.41 1932.682)" fill="#37c3f2"/>
        <path id="Path_152-7" data-name="Path 152" d="M334.471,11.966h6.6L327.447,26.142,341.07,40.318h-6.6L324.177,29.585,313.885,40.318h-6.659l13.622-14.176L307.226,11.966h6.6L324.177,22.7l10.294-10.733Z" transform="translate(666.41 1932.682)" fill="#37c3f2" opacity="0.2"/>
        <path id="Path_152-8" data-name="Path 152" d="M334.471,11.966h6.6L327.447,26.142,341.07,40.318h-6.6L324.177,29.585,313.885,40.318h-6.659l13.622-14.176L307.226,11.966h6.6L324.177,22.7l10.294-10.733Z" transform="translate(943.41 1931.682)" fill="#108bcc"/>
        <path id="Path_280" data-name="Path 280" d="M334.471,11.966h6.6L327.447,26.142,341.07,40.318h-6.6L324.177,29.585,313.885,40.318h-6.659l13.622-14.176L307.226,11.966h6.6L324.177,22.7l10.294-10.733Z" transform="translate(12.41 1932.682)" fill="#45454a" opacity="0.5"/>
        <path id="Path_281" data-name="Path 281" d="M334.471,11.966h6.6L327.447,26.142,341.07,40.318h-6.6L324.177,29.585,313.885,40.318h-6.659l13.622-14.176L307.226,11.966h6.6L324.177,22.7l10.294-10.733Z" transform="translate(68.41 1932.682)" fill="#45454a" opacity="0.2"/>
        <path id="Path_282" data-name="Path 282" d="M334.471,11.966h6.6L327.447,26.142,341.07,40.318h-6.6L324.177,29.585,313.885,40.318h-6.659l13.622-14.176L307.226,11.966h6.6L324.177,22.7l10.294-10.733Z" transform="translate(-185.59 1932.682)" fill="#37c3f2" opacity="0.2"/>
      </g>
    </g>
  </g>
</svg>
